<mxfile host="app.diagrams.net" modified="2021-05-26T11:34:32.322Z" agent="5.0 (Windows NT 10.0; Win64; x64) AppleWebKit/537.36 (KHTML, like Gecko) Chrome/90.0.4430.72 YaBrowser/21.5.1.330 Yowser/2.5 Safari/537.36" etag="I0MOdRm4sWJqDoj-Gn8b" version="14.7.1" type="github">
  <diagram id="HZ_QNLdqgeZJYxSRcRLy" name="Page-1">
    <mxGraphModel dx="3010" dy="1700" grid="1" gridSize="10" guides="1" tooltips="1" connect="1" arrows="1" fold="1" page="1" pageScale="1" pageWidth="827" pageHeight="1169" math="0" shadow="0">
      <root>
        <mxCell id="0" />
        <mxCell id="1" parent="0" />
        <mxCell id="EKHix6JRG0I5_opqSx7Z-1" value="" style="shape=image;verticalLabelPosition=bottom;labelBackgroundColor=#ffffff;verticalAlign=top;aspect=fixed;imageAspect=0;image=data:image/png,iVBORw0KGgoAAAANSUhEUgAAAl4AAAKvCAYAAAC778E6AAAgAElEQVR4AeydB5gsTVW/1+dvBgNizjnnLCggGSTIwiUHCUpUQUmKiq5LzlEyCOwl55yRsBfMOedPvdcAAoLpqv1/qrpP9+kzPbtnZqq6pqff+zzz9XR39Tmn3nO66jfVs/PtfeTf/6PiBQNqgBqgBqgBaoAaoAby18Dev7zvfRUvGFAD1AA1QA1QA9QANZC/Bvb+4i/+suIFA2qAGqAGqAFqgBqgBvLXwF7V/Nvb26t4wYAaoAaoAWqAGqAGqIG0NSBaK2x7wkuf4D0EIAABCEAAAhCAwGYEgojV/9o9e0I34j0EIAABCEAAAhCAwOoErL5CeK3OkCsgAAEIQAACEICAiwDCy4WJRhCAAAQgAAEIQGBzAgivzRliAQIQgAAEIAABCLgIILxcmGgEAQhAAAIQgAAENieA8NqcIRYgAAEIQAACEICAiwDCy4WJRhCAAAQgAAEIQGBzAgvC6+LFi1V42RObu8ICBCAAAQhAAAIQmDeBoK9Ea0W9JTsIr3kXBr2HAAQgAAEIQCA9gQXhJS4QXkKCLQQgAAEIQAACEEhDwOorfkA1DVesQAACEIAABCAAgQUCCK8FJByAAAQgAAEIQAACeQggvPJwxSoEIAABCEAAAhBYIIDwWkDCAQhAAAIQgAAEIJCHAMIrD1esQgACEIAABCAAgQUCCK8FJByAAAQgAAEIQAACeQggvPJwxSoEIAABCEAAAhBYILAgvPgB1QVGHIAABCAAAQhAAAJJCAThJVqLX65PghQjEIAABCAAAQhAYJjAgvCSZnYpTI6zhQAEIAABCEAAAhBYj4DVV/xy/XocuQoCEIAABCAAAQicSgDhdSoiGkAAAhCAAAQgAIE0BBBeaThiBQIQgAAEIAABCJxKAOF1KiIaQAACEIAABCAAgTQEEF5pOGIFAhDYYQLnz+5X+2fP73AP6RoEIDAWAYTXWKTxAwEITJYAwmuyqSNwCGwdAYTX1qWEgCCw3QSCCAkDR3jJKtDxwV51eE7iPq4O92T/fHV0Zr86ukSfU/vnDltbe2eOKllTCvb29g6rY7msCnb6x3Qce3tiU9rV8e0dHFdV8HHmqDqKNvs2qtZu017F0Nnfrw4P9qv9M12/275eclTtq2vacBuf0p/2OG8gAIHZE1gQXvJrqvbE7EkBAAIQaEVMLSiCwKoFjxZeIlhqcXKC8AqixQqmIJSqqgr2gtDpCZwo9hoxFgVbJ8yiUIvXWn9VHbMRiVGQNX7kfVUpwRhjE/v18VYI6nMIL+4KCEBgRQJBX4nW4pfrV4RHcwjMjUAURAPfdWqFVyNEwurSacIrCjS9WqRWiaK9s0fVfiPEQtv9g8Nqv7cK1tGPtk4UXiKiqqrSwqkzUcnqV4i7s1c36Pe7XlWL/UN49QiyAwEInE5gQXjJJax4CQm2EIBATaAWHPJ4UVMR4WW3ImbCeNK96lWyKG56x7vHgLWdsNJUC6bjg/3q6FxYIRMBVcfS2dyr6pWrJSteWuBp4RXf69hqwRiFnhKYdl/6WYs4fX3zyFOJSM2J9xCAAASsvuKX66kJCEBgKYEgOJYKr7BC1QicVpjE71DJ96+C2e7xpF1V0k7l+np7XB0Gu0owxWuVmOpsLRFerWCTR49BwFkhWe9vtOIlgku2ulO8hwAEIFBV8UOoBoHw0jR4DwEI9Aj0BU/3naggkMKnuPrxYv0drfq9FUKd8KpXizpRFm1Y4XbusP5Se3iMuFR41XGcuOJlYuvaKiEZxJK0i74ktsa+CD0VR4xJjgdSIrhk26PHDgQgAAGEFzUAAQisSEBEVhApsvoVjzXfxwrmwv6pwis0bMROsNV+eV1fH0VOY0sLnuaL8O11rdCxQk/E0GF1GP8qci/+hWP714ba/8Fx/aV+ecTYnjvlrxp7j0t51LhiOdEcArMjEMYt/a/dsyd0I95DAAIQmAyBVpStH3FY6RORub4VroQABCDAihc1AAEI7DoBhNeuZ5j+QWBSBOzCFitek0ofwUIAAhCAAAQgMCUCCK8pZYtYIQABCEAAAhCYNAGE16TTR/AQgAAEIAABCEyJwILwunDhQhVe9sSUOkWsEIAABCAAAQhAYBsJBH0lWivqLQkS4SUk2EIAAhCAAAQgAIE0BKy+4sv1abhiBQIQgAAEIAABCCwQQHgtIOEABCAAAQhAAAIQyEMA4ZWHK1YhAAEIQAACEIDAAgGE1wISDkAAAhCAAAQgAIE8BBBeebhiFQIQgAAEIAABCCwQQHgtIOEABCAAAQhAAAIQyEMA4ZWHK1YhAAEIQAACEIDAAoEF4XXx4sUqvOyJhSs5AAEIQAACEIAABCCwEoGgr0RrRb0lOwivlTjSGAIQgAAEIAABCJxKYEF4yRUILyHBFgIQgAAEIAABCKQhYPUVv1yfhitWIAABCEAAAhCAwAIBhNcCEg5AAAIQgAAEIACBPAQQXnm4YhUCEIAABCAAAQgsEEB4LSDhAAQgAAEIQAACEMhDAOGVhytWIQABCEAAAhCAwAIBhNcCEg5AAAIQgAAEIACBPAQQXnm4YhUCEIAABCAAAQgsEFgQXvyA6gIjDkAAAhCAAAQgAIEkBILwEq218Mv14SQvGFAD1AA1QA1QA9QANZCuBnrCS+RcAMy//ATgnJ9x8ABnOI9DYDMv1OkwP7jAZZjANI/aem7Vlj0xze5tf9RwHidHcIbzOAQ280KdDvODC1yGCUzzqK1nhNfIebQJGNn9bNzBeZxUw3kzzvAb5gcXuAwTmOZRW88Ir5HzaBMwsvvZuIPzOKmG82ac4TfMDy5wGSYwzaO2nhFeI+fRJmBk97NxB+dxUg3nzTjDb5gfXOAyTGCaR209I7xGzqNNwMjuZ+MOzuOkGs6bcYbfMD+4wGWYwDSP2npGeI2cR5uAkd3Pxh2cx0k1nDfjDL9hfnCByzCBaR619YzwGjmPNgEju5+NOziPk2o4b8YZfsP8dofL+erozGF1HLp5yVF1ePb8cIedR3eHi7PDO9LM5m1PftTLntiR/m5dN+A8TkrgDOdxCGzmhTod5rdTXM4dNj9Mvl8dXTLcX+/RneLi7fQOtAt5E6218Mv1O9C/re8CN844KYIznMchsJkX6nSYH1zgMkxgmkdDPfeEl3Rj5UIPKv4gLqBW58/uV3tnjqpXHexV+2opNRyv98Nyq/3p/Wb5VdkJsRwf7LV2w/vDcxJhbaPdbz9F1HZ7x88cVUfBTvxfIDV+Gtttu0rZu+So2j9zVC0sAgcf+rj2qY9LiI7typwdNmmySADOi0xyHIHzZlThN8xvEy5xDun97++alSYzzsu8Fcb9pXONuabSc0J438yBuhfRbjwe5hi1yhVs7al9fZHz/SZcKpnzzoY46vlRz9fhUagc39vr5s3Y55bnfnX0q/35UnOM3dB24jx5XB2218u8HOb2Zg5eFo+eb/c6LdDPVRX1h/Sjf672K3N+jLMXh+qj8Df5XuibtFtxa/O2/ne82qILnVMiqhUkuuj0+xCxuUaKVxLW7PchNkkKQiy26wq4B6dJlk6E3Bwn2mvjVkSDLTne81nHInbVFae+tQk49QIarEUAzmthW/kiOK+MrHcB/Ho42p1NuCyO80PCqxEDzfi+eE0z0ZuJeBPhFXzsbYHwakVVb07ri5QYq8x97VzfpKfHpM+xntu7uTnYkbnYnhMhOBhPL7ZaXMlc3M/VcuElQqsWXiHOLq6eBmmrrtEW0u+oU/Y6DaDbrfje1vPGwit0rg+2EWG95HiEV9PmbPcpog9YCS/baS2QovBSSjYmsN5faq8XqzKu7PbEXWiizqkrTn1rE3DqBTRYiwCc18K28kVwXhlZ7wL49XC0O5twWRznF4VXbBNWWsYSXmG+ODjqr4C1vfW/2YSLCJ1uvq5X+uL+CfNmnOtkcSSEquZLy/HkedGKn3pOH4zHIlHzbT+/S4RXE2N48lULrxM0iPZ1Ut90uxXf27xtJrzCsp1OiFqy7QuyEzodC/K4FjLBluw3tkLA+iXLhgG+Pi5qeCHxAWSzIrdwjSxfxjbaXnOjqmSLeu75lJW+FZIQrudffgJwzs84eIDzZpzhN8xvEy79iVnNPTKp2m3VrKi0c1ktCOJcszA3qBWQMD/05qf6A36cK6It8W23w332HN2EiwgvmUODv8CqE156Dgzv1TzYslHCaxnHdsXI9mhYeA3GMzT/D4rkYeElNSDbOpI6r13O1AKNhGr7JPtyfs2tzVurAuyJU+2LQJKtXBD3rbKXwpNGIQFNp217ZW8IWkxSaCPXB5NhX5I9dE4Jry7JdRLivoUr9mS7cGNKP1bfrsx5dRdcgSAYrQao581Qw2+Y3yZcFueN/opXuwrSG/ftpLz6o0YRXLKthc5+ddQ+xbHz4HDfTzq6CRcRXt0KU93nVnjJHGoDCPPggPAa5KjmTGtm2aPGpfEsmeP7+R0QXstWMnv5VhpEB9q0Geybbrfie5u3zYWXWuWqYwkdUp8K4kFbcKrTIVF65UwluQ+4LpJF4VUf7wsvWV50flm/lxAl5HQRhTbyCUDU+LJCPSEpNgEnNOXUBgTgvAG8FS6F8wqwBpqm5BfGy2CvfenJcsD3Nh/ahMvivKGEl56b7LjfAlFzjW2j5wQ1V4VLRXDJVoROu3IUv9zexNL6Wu3NJlzaeGTe6s1p9bwtCxOxDyJ8TD/bL+FrO/q9nSfbOgw+dP/N3K3jCT7Ff/NHATLH9/O7KLwCI+mHbqvfn/gdL1eNbJa3JMKrTkS3bBc62KnYRoi1EEPAVnh119pHjQJQiqbebxIWB5n96uhc9zixXv06rA7lryilIBYEorm59IAlxaFvshB2LAYZ2FTMK+RgsxtnBUczbwrncQoAzptxTsUvTJTdWLlZTNtw9XpcZF6wk7sWXuqcFVVtx83coOaQxacrMh+EbT0nWOHVzYXBrvLf+vO/WY+L2G/6ddA9Iu3VTBQ+0h8V56DwUuctRz1PanZx3lfXyV9ZDsYjuQzx9Of4oC8Ch/6rthvPtUJP/bWqncu1BhE8YavFn+z3+qAb+9/bvK0vvJb6tKp2acM8JxYA53GzrlWbgHXtDF5nbpBuAKhb64JtB4PezRaKWQtKXfzdp4jGmvoT4XBNv63cFMFP8Nvd4LUQ7/YHe7LxwdScNbu6b2oA6THU/ORDhwwScs0Qq+Y6k0M7kNSfRGt7ksOOb203Hj/FzsaAGwOpOaeKayp2lvHrchp6Yu6ZkNtm4qlr4Hx1dHBUHYef9ZEJyUw++2ePuvtVnRPbC9eZ+tFjST+2uuba+3npvWA+uJ4ymS3jMpW85opzMy4mV7mCdNtNFU+wI2Or2/moDW3e0gqv5qaTCWHUnomzMGCcclNL0xJbm4CkMZwwWNYTdjO5N3mKg2V4r3jZAbZlGQd7Ke7+DaOv6a9M1r3TA3UdhxZiSQm0xlJz1n2o+ygs6klRaj60a5n1PlXpwUG/DyEHGwPCSyYxmSh7tR2uqWNoY9P51++tnZbS5m9Sc948omlZWMavzak8wmofn3R57+qmrsHuezj1/dmrSVnF74m4frvep31dPxJDU4c6tv79XsfR8ytjS6xBuWdqv128izlbxmWx5byObMal5t6K5OLoUsUT7EhtFe/UYAA2b3sXLlyowsueGLyagxsTyMr5lMFSBsTQiSgQwkA6ILzqdvamqPfjuTiI6pUdjcVep5Z7G1/tFxf1ZYnfp+a8ONk0N7plEfdlEDiuDmXi6X2/ww4UYcKywqtp034xt+aocyjI6tiMzbYWFu3IdSm2qTmniGlKNpbxa+vtxHtGRJhsVc9D/pvaa+/15nT/g5K6Joqypnbb+qnP62va2OKpUF/NB6kT7oV4fXsvqO/Ravfq/TIuqsks38JlmmkPeROtFfWWdIOECom826ycw2ApjxpkGz+l1oOjnrTbgTQOlvIoTD9qrD+96k9HYcCNNqKf1YWXDNiyzUk6Ned+zErkLLBQk2BgK6tVqwovmfhk2zzK1TkUfiG20F+dq/a7knK9bOWiRNvUnBOFNRkzy/hJvdmtdCzev3vyXdpQc+Z+bASb/Cq7rpv23g/GQl3IWBG3Snj1jnc/HST1pq+LtRdt6Ti6e0Hi1df0v9YgPau3y7j0W81vDy7TzLnNW9pHjdNkMmrUNgFJnZvJVQ+wYbDUg28cPAdWvLovj6pPsjFIJd7sJ9teJ+x1zYrXsj/x7V2bbic1Z5kA6wiV8LIs4n43eXXM1TU9ERYsqokz5lD9HIvKqc2h0JLYZBuPn2BHrkuxTc05RUxTsrGMX8zlqfeM3Gu6tpreh/wvWfEKtuvHfKHutGDvhFIr3BtzdizpRL7EIF9MVsJL3Qv6ek9+lnHxXLvLbeAyzezavCG8Rs6jTUBS92qSDnb1YBffy6fiOCCqxwNLHgHEAVrOBduD3xNp/Ei7ZmWmG5ibx5pqgO8JhKQAOmOpOfdj1hNdPXmJwOqY6TYxG+p7CPacEV5hpUFWylROYw5bzt2k2cXms9NR2vxdas6bRzQtC8v4xToaumfCvdvWQCd69L3e/96V3H8iiLq6kS/Wy71ajxHdh4a2Bs1Y0tVbYN3FIPYW7wURZY1t+apD24/FnC3jsthywyPNWBj81a8uxg0tZ7l8NC5Zop+vUZs3hNfItWATkNS9mqSD3f5gLANwPcDI4Fh/oVYGHfvIqh5U6wFJfzKWgVSuk0E9eu2+89F0Lk4iIiSaQVcG+6T9V8ZSc16cbNQA3Ru8axYycQq7bhvOnya8FE+TU21Xcqhja3MehfJyOwrVRm9Tc94omAlevIxfzPOSe0bXgBZHJx3fPzhs/wfIUjcBVy22ZEw47u5dU3dtXS3cv1p4nTQu2MeaqjYH8raMy0DTDQ7p72BuYGbES8fhMmKHZuLK5q2g8Ko/eYWA6mf9/Um+Pi6Px3RbWQ0wx5pPLPX/8VxNiiqxeoKST2e5BYByH9/aBNjz7KchUJpzv9akT6FmT55wpOVUtqU5T4XTsjjH4BdqUYutZbFs0/G1uOjVwN4HDzO3yErbucPq8JyeR9S8oW2JQFXXacGrRamsAIb4wyvOLzEW+ZAq2/XGgbW4FEmsYS4s4odU1ffARrjKSmjDTtes/oAQ2aoPJUW6t6JTm7dCwqv/KWmocDtBVLdtkxATp24Q/Zc4EUZor893hPRkKIns/HTtcr6zCcjpa862S3PWtdblAeHVseBdIDBGnc5PePXngND/TijVQiuM+/UcoOYKLdZ6wqsRZyIQQjs18ev5q+cr2jP2xcaa5T9GvawZmrmsn4P6yUojuFp+oU0nwup8NPtxnu+esoRzrQZorzcut3jX5q2M8LKqtwcsJKMD3jsVd8JNoIp5HeHV3FRj/KyBjd8mwJ5nPw0BOKfheJoVOJ9G6OTz8BvmsxYXEUsnTszd/KIFUx1Fd07/zE78EKX+0GH5Hx50om7BXjgQ4pqz8FJ9jx8Gzigx1ax2teJKVr8agRty1S6SnJjf4XoqfdTWcxnhFcAtfeSiil9oxfayRBu2pwkv3bYTcfEGOtf8lZ3aipsxtjYBY/icow84j5N1OG/GGX7D/Nbi0qySLIgbOd48wgq2ZcVLT/QhEpkjWuElYk62odHCfCQras3KmPITfLU+wnVKfAz3/OSja3E52WSms/U8HuKVVyucgseYk261Sx7Rtqzk8W4jvI4P1JwfOKoVx0wdSGrW5m3v4sWLVXjZE0m9WmML0HUDK7zsp4gVV7yUL/vJpb3JtPvM70flnLkv22wezuNkB86bcYbfML+1uIg4km00Xc8n3YSu5peFCVyda2y0T0W0TXNdt3Jm5ybTt9kJLyWWek+mAuf96kj9OHQgFebjLk/NH4NFgRXaK5Fm+BvKW7kb6lm0VtRbsrNWoa/dxb6YioXbfhJQxR/tD7Q9dcVLJTzcMM3qWkhs6Kcob4TX2gnc+gvHreetx5EtQDhvhhZ+w/zW4qLEUZhT6km8nk/aCT1M2u0cYISSFkZx3lD/+y9le/mjRi0WZFWnm29m/ahRCa8uN2qFUVa45ElYwz/O1VZo2f3hEtqqo6HmRGtF4SXRrVXocvE6WynsuBSp1Gzvd2Fqw1GYNUuW+2fVnzzH0+bmaa4P/ZGXFlp6iRLhtU7ipnHN6PU8DSzJo4TzZkjhN8xvLS5aHKmJvvdo8OC4v7LSm4fsB3azL4sDZuKP81P76KsWeiH+8GoFX+imFnbD3T716FpcTrWao0GfQ+QRGC0w6M/fsjjSsuvlp5vT2/M5Qs9g0+atzHe8MnRsKiZtAqYS99TihPM4GYPzZpzhN8wPLnCJBHpiumOiV826o9v7ztYzwmvkXNkEjOx+Nu7gPE6q4bwZZ/gN84MLXCIBhNdwIXB0NQIMKKvxWrc1nNclt9p1cF6Nl20NP0uk3ocLXIYJTPOorWdWvEbOo03AyO5n4w7O46Qazptxht8wP7jAZZjANI/aekZ4jZxHm4CR3c/GHZzHSTWcN+MMv2F+cIHLMIFpHrX1jPAaOY82ASO7n407OI+Tajhvxhl+w/zgApdhAtM8ausZ4TVyHm0CRnY/G3dwHifVcN6MM/yG+cEFLsMEpnnU1nOZX66fJrskUdsEJDGKkQUCcF5AkuUAnDfDCr9hfnCByzCBaR4N9dz7AVXZCSd4wYAaoAaoAWqAGqAGqIG0NSBaq+wv109TuBI1BCAAAQhAAAIQcBMIIlb/a/fsCd2I9xCAAAQgAAEIQAACqxOw+grhtTpDroAABCAAAQhAAAIuAggvFyYaQQACEIAABCAAgc0JILw2Z4gFCEAAAhCAAAQg4CKA8HJhohEEIAABCEAAAhDYnADCa3OGWIAABCAAAQhAAAIuAggvFyYaQQACEIAABCAAgc0JLAgv+VEve2JzV1iAAAQgAAEIQAAC8yYQ9JVorfgDqrKD8Jp3YdB7CEAAAhCAAATSE1gQXuIC4SUk2EIAAhCAAAQgAIE0BKy+4gdU03DFCgQgAAEIQAACEFgggPBaQMIBCEAAAhCAAAQgkIcAwisPV6xCAAIQgAAEIACBBQIIrwUkHIAABCAAAQikJxAmXF7bxSB9lk+3iPA6nREtIAABCEAAAhsTsBPuxgYxsBGBUvmwfvly/UZp5GIIQAACEIDAMAE74Q634uhYBErlw/pFeI2VcfxAAAIQgMCsCNgJd1ad38LOlsqH9Yvw2sLiICQIQAACEJg+ATvhTr9H0+5BqXxYv3sXLlyowsuemDZeoocABCAAAQiUJcC8Wpa/9V4qH8GvaK2otySwUgGJf7YQgAAEIACBXSLAvLpd2SyVD+uXR43bVRdEAwEIQAACO0LATrg70q3JdqNUPqxfhNdkS4jAIQABCEBgmwnYCXebY51DbKXyYf0ivOZQbfQRAhCAAARGJ2An3NEDwGGPQKl8WL8Ir15a2IEABCAAAQikIWAn3DRWsbIugVL5sH4RXutmkOsgAAEIQAACJxCwE+4JTbf81HF1uHdYHVfnq6Mze9XhubLhHh/UMZw/u1/tHRy7gymVD+sX4eVOGQ0hAAEIQAACfgJ2wvVfuW0ttfDar44uKRufFl77Z8+7gymVD+sX4eVOGQ0hkJtAGNzkfyjbfboMN61+hYEmDDz7Z4+69vpT3yVH1X57TbDT/Dt32H46jJ8UzxxV9ZCl/e61beSyelt/0tVx7MVPwMq2+GztVjHO7tNx7afbr8+Lzfp48CMDe799jFl87EmbfpRV6GPbpubWDcz9Pug4OivafzgaYuh8LY1B+W39qWMxJsXFxtnGonIUvOtP9DLZ1LEqNiHfrW1PH7ve8i4vgZB31z+dw1g3cv93tWdrsVdDbf7791R9LzQ2Bn2E6Po1s6dsdbGfr44O6vHi+KAZU2x974UxSURQ32Zb3zoGqW/lT99fYqur+9pmOH7+7GEt/s4drrT65s5H1/Ek76zfvYsXL1bhZU8k8YYRCEDASaAeVGSA0hOuDIxyLhgMg9FeKwjUJByFQjcAxnYysLWTemgvgqwbzGKgYWBs7erQQzs7CTQ24jXy+KG2J8v/3aDZiIg9adcXFVW00Z9sAgMZfOtJRmJu+q/FpoTa9rE+oG0ssHD3s+l3OyHWtqO9GIMWZ4qtiSW0j/0xjGOuF3LUxX8qy2Cvub5fNzouAcR2TALuebXNob7P9PsQtcpnrCG5l5bfc/XYYYVX325Xx+JD7J5CytS3615r+9n5aoVesCf3gepriC+OfcbfKdENnnbnY/Dq9Q8Gv6K1ot6SnVIBrd8VroTADhGIA2knLPo9qwfWBeGlhEc74Vo7cV8Jh4PjuIrSCpq+o/7g3jvXH6zrSaCJtzdgVpUWSe2g2Qy4RzKILv2uiPhRAqYXR73T9teeM4NzNxlYhvX+IgfxL4bVZCeHmu1wDKq9iaVlYexEXjLhmGu0j/Z6y7LZPz/ANFyz2EcbAPu5CLjnVclhL/8n1GJoJzUTgg/7zYeptk5ip5SNQR+25/V9occa26Ld78Vaf5Cqa83aqPfjOYmh+fB4eLb70LCsVuv+qH60Aaz+xp2P1U2feMWC8JLWpQIS/2whMGsCauBc5GAHsnrFR0+o7QS9YMcIgfAYTgm26Cteox9n6pUticYOfJ0wir71JBAGVzMJyGQg21q4DX2yrvvareZp/zrGgX6EpksngxBv39/wQC/+tS/hMXBOsYwc9OMWy1UxCr7DmNu+5Jy9RuVL2NltvVootiTWmluISdeJ0GQ7DgH3vBrvmb2+mLKPAGO91Pn13HNNBXQr1YM+qqpfP3UdbSa8TrjXRHjZbdPXoVqVe8UV0ylpdefjFDurnrZ+2wfQ9sSqhmkPAQhsQCAOiuuveMXBKYgAayfuN5OxiBLZxnDtIBn2+5N33avlwqu3YhMaR/FQ9yWKBPOpth5AaxGzOJiKH9k23sNfL4k4ke+GKNFTtzpJeFl/9f7iQN/3qx/v2Mku7i/EoK5dqyAAACAASURBVPz0OKtHq4pPjDvsS9+WXbNkhSDyk0mMFa+2DLbljXtelRzKNnZgeS2ees+1f3WobIht2bY+9Kqoqt/TIA7Uan0/WRv1fjzX+G5XvlUsYaxYvB/rD5mhzuNY0vbrtOCGz7vzMXz52ketX4TX2ii5EAIpCfQFUH+StwNZ8x2n9nta+tr6vQxgUZANTOrdIKavle9hrSi8wuDZribVscqqWvTfnusPnvGcCJdoI/gN1zf+1aDc51HHLD56WVg6GTTMNAu3wKzjWRqDirP3fbyBWGLM4Xibu4aXjkuYGIG5lKXy3xODLdMeIXZGJGAn3KWuTQ47AaPvxVD36t5o76vFe677QLP8fup8KMETa7O/Mrw05oH6XjrumLjbDxqm3+3x5ruqfcEV+r/sw+nSKHsn3PnoXbX5jvWL8NqcKRYgkIZAnCjlkZEeYOqBtRtMaxGxf3DY/vWiDHgxkGV29EAZ29Q+4mTdPPbaP3u85Hd61AAenZhBsBmwwwDTDZ6N2FFCohN8wUgzYTS+6/71/YT2dd8asRXbHlbHwZ+IFU1f97ERLh2bIX/6YolpyWTXTAaxj2ECUDGIKIrnpL+aSYxb7Oo49qujc92j2aFHpSIwow+xLStgYQVATV7DTG0f2R+LgJ1wl/rt5VAEVv9e0Kuv0Y6uL3UvLN5jSqy17cSHrFA3487BcfMX0/LXiUsjPuGxfrhG17gScnHckfvA1m4zXjTjgdy3uj+9DxYnhLbslDsfywysedz6RXitCZLLIFCSQBiMZGAqGQe+IQCB5QTshLu8JWfGIFAqH9YvwmuMbOMDAokJILwSA8UcBDIQsBNuBheYXIFAqXxYvwivFZJGUwhAAAIQgICXgJ1wvdfRLg+BUvmwfhFeefKLVQhAAAIQmDkBO+HOHEfx7pfKh/XLL9cXLwUCgAAEIACBXSRgJ9xd7OOU+lQqH8Gv/Fg9v1w/pYohVghAAAIQmBSBUhP9pCCNGGypfCwIL+lzqYDEP1sIQAACEIDALhFgXt2ubJbKh/XLd7y2qy6IBgIQgAAEdoSAnXB3pFuT7UapfFi/CK/JlhCBQwACEIDANhOwE+42xzqH2Erlw/pFeM2h2ugjBCAAAQiMTsBOuKMHgMMegVL5sH4RXr20sAMBCEAAAhBIQyBMuLy2i0GazK5mBeG1Gi9aQwACEIAABCAAgbUJILzWRseFEIAABCAAAQhAYDUCCK/VeNEaAhCAAAQgAAEIrE1gQXjJr6naE2t74EIIQAACEIAABCAAgUgg6CvRWvxyPUUBAQhAAAIQgAAEMhJYEF7iixUvIcEWAhCAAAQgAAEIpCFg9RU/J5GGK1YgAAEIQAACEIDAAgGE1wISDkAAAhCAAAQgAIE8BBBeebhiFQIQgAAEIAABCCwQQHgtIOEABCAAAQhAAAIQyEMA4ZWHK1YhAAEIQAACEIDAAgGE1wISDkAAAhCAAAQgAIE8BBBeebhiFQIQgAAEIAABCCwQQHgtIOEABCAAAQhAAAIQyENgQXhduHChCq9wghcMqAFqgBqgBqgBaoAaSFsDorWi3hJ9FyDzb3sIlMpHKb/bQ367IimVj1J+t4v+9kRDPrYnF0QCgVUJ2Pu3VVv2xKqGaZ+WQKl8lPKblt7uWCuVj1J+dydzaXtCPtLyxBoExiRg71+E15j0V/BlE7XCpRs1LeV3o6B3+OJS+Sjld4dTuVHXyMdG+LgYAkUJ2PsX4VU0Hcud20Qtb5n2TCm/aXuxO9ZK5aOU393JXNqekI+0PLEGgTEJ2PsX4TUm/RV82UStcOlGTUv53SjoHb64VD5K+d3hVG7UNfKxET4uhkBRAvb+RXgVTcdy5zZRy1umPVPKb9pe7I61Uvko5Xd3Mpe2J+QjLU+sQWBMAvb+RXiNSX8FXzZRK1y6UdNSfjcKeocvLpWPUn53OJUbdY18bISPiyFQlIC9fxFeRdOx3LlN1PKWac+U8pu2F7tjrVQ+Svndncyl7Qn5SMsTaxAYk4C9f/cuXrxYhZc9MWZQ+FokUCofpfwuEuBIIFAqH6X8kvVhAuRjmAtHITAFAuH+Fa0V9ZbscGNvV/pK5aOU3+2ivz3RlMpHKb/bQ367IiEf25UPbzQhb7y2i4E3dynbhRoQrRWFlxjnxhYS27EtlY9SfreD+vZFUSofpfxuXwa2IyLysR15WDUK8rYqsbztS+XD+uU7XnnzvLZ1m6i1Da14YSm/K4Y5m+al8lHK72wSu2JHyceKwLakOXnbkkQ0YZTKh/WL8NquumijsYlqT2R+U8pv5m5N1nypfJTyO9lEZQ6cfGQGnMk8ecsEdk2zpfJh/SK81kxg7stsonL7E/ul/Ip/tn0CpfJRym+/9+wJAfIhJKa1JW/bla9S+bB+EV7bVRdtNDZR7YnMb0r5zdytyZovlY9SfiebqMyBk4/MgDOZJ2+ZwK5ptlQ+rF+E15oJzH2ZTVRuf2K/lF/xz7ZPoFQ+Svnt9549IUA+hMS0tuRtu/JVKh/WL8Jru+qijcYmqj2R+U0pv5m7NVnzpfJRyu9kE5U5cPKRGXAm8+QtE9g1zZbKh/WL8Fozgbkvs4nK7U/sl/Ir/tn2CZTKRym//d6zJwTIh5CY1pa8bVe+SuXD+uWX67erLtpobKLaE5nflPKbuVuTNV8qH6X8TjZRmQMnH5kBZzJP3jKBXdNsqXwEv70fUJWdUgGtyW/nLyuVj1J+dz6ha3awVD5K+V0T085fRj6mmWLytl15K5WP4Fe0Fr9cv1010YumZIH0AmGnKAHqoCj+rXFeqg62BsBEAyFv25W4UvmwfvmO13bVRRuNTVR7IvObUn4zd2uy5kvlo5TfySYqc+DkIzPgTObJWyawa5otlQ/rdzuF17nD+D8WPTzX0T1/dr9/7JKjar/9H5AeVsfSNFx70O5V8bq4f746OrNfHV1SNxR7AYhuL2ZKb22ixoqnlN/B/qlcxnydOapedbBX7Z893zYPx8P+ce94yPVeFesn1MmZo6q9Iths94+rw7aG6v+Rq7bdOin4plQ+svodyGudH5OPcN+GtiZHe3vN/X7SGNBe09zz2k6b/6qpm6OuDmTsMHUj9TcY516/JnOUS9Z85AgYm5FA6ryFcU7uBz0/6uPdGNaMg2e7uTKe0/dCe58cVscn1Xy45sxRddT6V3NuVd9HElfrv3d/hri7a0K8dfx1jO01JjbdxxQllTof3pis3+0VXmf2q30ZBKs6OSH4OhH1AC1JiUUng2lIXHtdNSy8YkH0i6BNvJdk5nY2UZndteZL+W0D0G/aXIZ8N/lqBoB6Agx1IWJavT932IkzM5jEibyplTiZmlqhDuoEZK2Dobw293jLP96jktuqFmByj8cQ/WNA1UwAeqCXMaKesMSPstmrm/q4CPYSdZM1H/qe431SAinz1qu7WNP1mBiPy/g4VOu9c1LrA/fUCTUvH4Dk/oz3TTN2LvXfs6fn4lqoxfuxHQuqqr5Pu/ii3d49v3lqUuZjlWis3+0VXgdH1dGZZrKNCTysDmUVIyRLiin0PhabmpjNZFoPst3E3CvgcH1vMl8FZ762NlH5PPUtl/Lbj6LZa27KkC+54atKiTBzY8c6CILd1oa+eXWuG/viu+9HjpbdlspHVr+DebWcQ567QXjhHg02bJ5l3+T1pGv1BBIiaMcGVVuhzWFYNZA6MvbHqJus+bDo2U9GIF3e6sUHWWzQAYb67MbHZvUpzoH1NfZcux/qWGo6GDyt5uX+krbN/lL/yl64RN8n8Z46183Juj/textfe2L9N+nysVoM1u8WC6/j+BhAVPH+2ePu8VFISLtEKkuvzSA9dE4VoVzXFl/gZwpkNaR5WttE5fGyaLWU38VIGkEc8qyEdGhX37T9G1mut4NALcqlRpqtHmxMvfTqQowW3JbKR1a/wtzkVT5VB9/16zThJe1kq8YAZTuKKZ3zcL8vmTQWhJeMDbKVWpA+NLHmrpus+ZA+sU1OIF3e1GpsL8pFcdXWcLOKrMVab3wMNWzvi7AvtS7b4G+obbyHTvAfrm/v5XCPNosj6tGkji24CfF19/9eP75ev9fbSZeP1fxbv1stvGKyD4IACwNqnWARYr2C0QxCgdhBN+536rorzOZCW1TaXqH3NlFjhVHK72D/JJeylUZxP6yIqok5nBs6rgcPaaMGGxFx4VSoi9wTqHTBuy2Vj6x+JZ+yjTDsxOJY8VJ57PHs2R2YNMJ5Jbz0eBEH/jBeNHUTvtMSxxxTR2PXTdZ89OCxk5JAuryp+c8EGGpRj1ttDdvH93Y/3Af6Hjqp5tU9E92r/aX+zT2jxZvcP7K1Ntt9HZ/p9zq76fKxmnfrd7uFV3is1D460oXXH6SjkBI1HQriFOFVr4KI+q7t6sJdDWme1jZRebwsWi3ldzESEVL1H0r0btD4uNF+Ggo1oR9NN1+oP+Hml8lVvniP8OqykLUO1D3a5XXonlbCOlzTG4SH2g9/3UBWPetP1/X9LmNE8C8irH6MrYRW+LQuPnUd6fcjCfas+ejSzrvEBFLmLdaqzG2hBptH8b35Lx6X70I3ta5r+KTH9821gzUfhZbY1Y8zm8fzeuyV72Kb+2RIePW+OhJ99OflNpZEeUmZj1VCsn6385fr24FZD5L1+3ZpUookLmWaAVqKU39nI6r9rl1drM2ypmq/CsycbW2icvrStkv51TG079s6MN/ja5akO7FsakPnfenNP3xNZ7ONouibUvnI6ndJXvU92ftqQchAuEYmEMmIcwyIzcP18thD2QmT2f7BYftIpM1/tN2NF51IL1M3WfMhPNkmJ5A2b3XtSR23c6F5RNfWsDxqPOhqX1+zcE8trXm5/+rvWUf/6h4K0OoPMPV82vrv3Z/1OfEf2sv7eN/HOVj3b786Otd9JSBVYtLmwx9V8Nv7AVXZKRWQP/R5tSyVj1J+V8tuWO1Qk+JqF0+qdal8lPI7dnKi8FI/TzK2f6+/ueTDy2Mq7crmbfFDwtrchj74rG2s3IWl8hH8itbil+vL5f9UzyUL5NTgSjZoPkW1n6pKxjKCb+ogL2SEV16+c7de6v6tuSO8bP2Vyof1u53f8bK0ZrhvEzUWglJ+x+rf1PyUykcpv1PLz1jxko+xSKf1Q97S8tzUWql8WL8Ir00zmel6m6hMbhbMlvK7EAgHIoFS+Sjll7QPEyAfw1y2/Sh5264MlcqH9Yvw2q66aKOxiWpPZH5Tym/mbk3WfKl8lPI72URlDpx8ZAacyTx5ywR2TbOl8mH9IrzWTGDuy2yicvsT+6X8in+2fQKl8lHKb7/37AkB8iEkprUlb9uVr1L5sH4RXttVF200NlHticxvSvnN3K3Jmi+Vj1J+J5uozIGTj8yAM5knb5nArmm2VD6sX4TXmgnMfZlNVG5/Yr+UX/HPtk+gVD5K+e33nj0hQD6ExLS25G278lUqH9Yvwmu76qKNxiaqPZH5TSm/mbs1WfOl8lHK72QTlTlw8pEZcCbz5C0T2DXNlsqH9YvwWjOBuS+zicrtT+yX8iv+2fYJlMpHKb/93rMnBMiHkJjWlrxtV75K5cP63btw4UIVXvbEduGaXzSl8lHK7/wy7OtxqXyU8uujMr9W5GOaOQ9547VdDEpUUqgB0VpRb0kQ3NhCYju2pfJRyu92UN++KErlo5Tf7cvAdkREPrYjD0QBgXUI2PuXR43rUBzhGpuoEVxGF6X8jtW/qfkplY9SfqeWn7HiJR9jkcYPBNITsPcvwis94yQWbaKSGHUYKeXXEdosm5TKRym/s0yyo9PkwwGJJhDYUgL2/kV4TSRRY4VpC2Qsv/gZJlAqH6X8DlPgKPmgBiAwXQL2/kV4bWkubaLGCrOU37H6NzU/pfJRyu/U8jNWvORjLNL4gUB6Avb+RXilZ5zEok1UEqMOI6X8OkKbZZNS+Sjld5ZJdnSafDgg0QQCW0rA3r8Ir4kkaqwwbYGM5Rc/wwRK5aOU32EKHCUf1AAEpkvA3r8Iry3NpU3UWGGW8jtW/6bmp1Q+SvmdWn7Gipd8jEUaPxBIT8Dev3sXL16swsueSO8ai6sQKJWPUn5XYTOntqXyUcrvnHK7Sl/Jxyq0aAuB7SIQ7l/RWlFvyU44wQsG1AA1QA1QA9QANUANpK0B0VpReIkuDJD5B4FdIUA970om6UcgQD1TBxCYLgF7/7Zqy56YbheJHAJMVNTAbhFgfN6tfNKbeRGw9y/Ca175n01vbaHPpuN0dCcJUM87mVY6NRMC9v5FeM0k8XPrpi30ufWf/u4WAep5t/JJb+ZFwN6/CK955X82vbWFPpuO09GdJEA972Ra6dRMCNj7F+E1k8TPrZu20OfWf/q7WwSo593KJ72ZFwF7/yK85pX/2fTWFvpsOk5Hd5IA9byTaaVTMyFg71+E10wSP7du2kKfW//p724RoJ53K5/0Zl4E7P3LL9fPK/+z6a0t9Nl0nI7uJAHqeSfTSqdmQiDcv70fUJUdbuyZVMBMukk9zyTRM+km9TyTRNPNnSSwILykl9zYQoLtLhCgnnchi/RBCFDPQoItBKZHwN6/fMdrejkkYgcBW+iOS2gCga0lQD1vbWoIDAKnErD3L8LrVGQ0mCIBW+hT7AMxQ0AIUM9Cgi0EpkfA3r8Ir+nlkIgdBGyhOy6hCQS2lgD1vLWpITAInErA3r8Ir1OR0WCKBGyhT7EPxAwBIUA9C4lpbUPeeG0XgxIVZO9fhFeJLOAzOwFb6Nkd4gACGQlQzxnhZjRN3jLCXcN0qXxYvwivNZLHJdtPwBb69kdMhBBYToB6Xs5mm8+Qt+3KTql8WL8Ir+2qC6JJRMAWeiKzmIFAEQLUcxHsGzslbxsjTGqgVD6sX365PmlaMbYtBGyhb0tcxAGBdQhQz+tQK3/NLuTt+MB8R+vguDzYNSMolY/gV36sPmwRXmsmkMu2m0CpG2y7qRDdVAlQz9PM3NTzdv7sfnV4bprsh6IulY/gtye8JLhSAYl/thBISYB6TkkTW6UJUM+lM7Ce/yx5O3e48JeS+2fPNwGer47OdCtUWjQFERXiaV965UrbPHNU1dbOV0cHR9Wxvq69pvZzePao2m9sdjFUVaXt7e3V4s0cq+M4rI4vOar2W5/rcfZelSUfDufWL9/xckCjyfQI2EKfXg+IGAIdAeq5YzGld1nyFgRMK4CqKggqET3xsaCImCh09qujS2piul0URmIjCB8RR1Uj3OK54+owiCpp15yrfYnAO6zig8doo/Gl31d1fHsSUwglxKX3EV5TKmlihcByAlkGvOXuOAOBrASo56x4sxnPkrelwqtZhWofDdb7Isp6jw21DSuEwv5eEFRBeHXCLUJq2/Zth3NB9ImvHtD2muao3Ud49XCxA4HJEsgy4E2WBoFPnQD1PM0MZslbEC7tKpRe8apXqPTjRS2Gjg+UiFI24iNIuwLVCq9mRUvwtyLJiry+8Fr4Qr62PyS89CPQ6Fscpt1myYcjROuXR40OaDSZHgFb6NPrARFDoCNAPXcspvQuS96UaAosukeIVgzpVanwXokobcMKobAfxU+4Rom14Kxtq23HKOJ3y+KKV3t9k6n2miX7rZirz0chqIRlc1WSTZZ8OCKzfhFeDmg0mR4BW+jT6wERQ6AjQD13LKb0LkvegpBRwqQTXvWqU/v9qSiAGuFkrvF9x6v5flbrqxZb9Ypa/b71FcSTPJaMfkXkmXYheeG8XgFDeE2ppIkVAssJZBnwlrvjDASyEqCes+LNZjxL3oyI0sKrki/HN4/uokiKokj9NaN6rNd+JyuKpaaNFkXNd7dCP+LLirCD7i8su0ecjdiK1+xXR+eCKBMhtkR4if24VW0TZyZLPhwxWr8FVrx0UupktglTBRWXG5sCWHheLMq6p5T7dsVmuFbeS1HG/d61+i8vmr/k6BVCsBHsm2XXIeCqD+F0jL0p1qWxmJslfJoJbffPHtV/VRJiaQs+WB3uqz0eki197/u23wVYYs8waj+p6Ju05XTCnwWH9uZmHkKX8pgt9JS2K8NF12r0E84LF+m3qote+wGW9WDYr7d4jdhsaiEcawfO3pdb+9fGeOM9089zYBRewUa/PpbQOqnfqn/h6hhvjNP4DMeaejhqf5hRD7T99lK/rU1hELZyTxjfoS/tObkHVV/r3hlG7ReJV73/Q3vHuLAEqfdw1nr2BkG7lQlsRd7MfSudsOOHHPdt6/tU35++68q2KpUP67eQ8FIDVZykmoG3HUDDYNYNxv1JQQ2YqqC6gT4kthsMF69txIi6tm6/Z8RBZ6MuFeX3pNpp+1BV9YTXTQJLY4lCSjFpJws5FmLpi6h2Ygn+2oG/H6P2p99HVh57PUYDn1SCbxEWgYltL5xsOzmecWsLPamrXj/r3HQc+nUTuEdx1NZFON/Vdm/Jf+H7Gk3+gz91jdi0A6ccrwW41E4j/tsaCSQWB01dH0tZndTvtn/11d392K/JeDa0bQRf2A++pZ71+8hGxd3rr/an30dWnb0Yh9Roc66eLGxc/bzpMaTp0ZIPXva6unXq/2at59TBYq8lsBV56923bWjqu2HdMf+7xTHEf225lqXyYf3uXbhwoQoveyIfGjPg6aJoBtDeANsMzJ2yVte31y4WgUxC/QlFtWuvrQf++ENwMkDHztsBVfk9CU47CTTtz3bP45fGskx4ySf63gpCiKsTYf1JNPjsJnXtr33f9DusNtRMT7CnGMUuh75pRnbfthdOtp0cz7jNWs+qn5Fr+BFB4bKsr+H4wfHiYNccFxRd7Xf1FsWDqgVZMfodz4pXtH9kREOwLfmvPbf1IYEMbU/rt4qxi7nrR2syxKSEZP0BJdTtCbXY3APtOKC5te8bX+09V/fTtSqoPqw1RMxK1kA/YkM7TrS9TPomaz0njRRjmgB50zTKvy+Vj+BXtFbUW4JivIDqwTD4k1dvMNWPEJrg+pOCGgDDRNDa6T7hh8tkAusmgHi0m3BkErFbAbIwEJ8Qd3tNsyoUJiCZDGQrn+zbePVjVtWnxlbos54wun7Uk5Owk23d9rg6FAFgBKswtNt2tc/EFe31+Db5UvZFAMhvJrcrfK2tJieBgb5O88r0PnDJ9s/WjOyLQB7qa2AQuChxEuNT9RH2pW5FUPfz2/RI/BmuXc1IPdmtEKlrub3vBmpT155c1a5oin/ZhgbSvzb30leJobXSPmrs100nvKTPspVYlv05/MK91jKt+yl22m3MwdA5PYZYQbXYvr3n1Kqc6mXStyF2/k2PAHnbrpyVyof1297N9kQ+XHYgVgOcDJiybYIQsVDvquvbgb8eFO1EUg+MiwNmbNdc2678tLak5yqueEj5Dfuhvf7ULpfF2NUKg+rLYj9k1cHYlolQTdLh2nrStnGJ4yYmc40wib7VykwXyyn2tIgIfTlp3zKU9rJVoeZ+m7WeT6qdZX0Nx0NuZCsAzH5feNVCoBPdzUXKR6wLJXa6mt+vjnorP1pUDN8vUiuLj9kav6f1W9VeF/NibdcirVuZ7fZPqMW4KmyuEX+R4dA9t9hPwW4fxy722cZi+yHnZdtZzvEuaz3nCBibkQB5265CKJUP63c7hdeS1Zo6hWoAVBN9N9CLKNITjSRfDcTh2jBhiZBQturWdkBVfkODeL2aCMRFmAT0yoaaWDuxExqrWJY9amyFXYhFRFr/OzGyyhQmzb79/r5M0DK56rbxnExiDZfYzjJRE37srt1f1t62E1YZt7bQk7pqGA3WTjzX1V7LdlkdqOMhxiHh1a+1um5kFUj3K/jqhFdYoZQ4TO32aq+2oOthUYQ0Xk7q90A/6g8K1ne3OqZrUVYCW17BZeMvtjP2ewI2nFtyz8VxQe7x5lFmx0j4BGf2frf7th9yXrYNo0ybrPWcKWbMVrEu4bA9BErdR9ZvIeHVPWZcNmDWg+59q5+P/8NPPUCqATAMzO2gGo53dmVQ76e8btOKinZiagb51la4yg6offsh7kEfcRJQgkxNGP3JTcWyRHjtHxy2j1L7E20/lnAuTjBq5SNyjfs1u96EZoStiEC5pvXV4+v8cn0vhiZvgUGPbT8rOfZCX7L9i4JA1eQQJ+Eg/VZ1IELqVc3/fLblvUx4NcclPyJSbP9CjmtbdX10dsO+ineJ8Grtqy++93yc1G/dP4k3innrW+rosDqU+1UYRWeLtS0CTMcn72Mfg+/2Q0pjXz5INLUu7Tt2Ni57v9v9flzBXs3XtusRS7YT/PFvegTI23blrFQ+rN/2brYntgvX/KLpJlFf37uVEt3eTi763G6/p563OL+rCnErbJuuDdf8Fvd7g9Co5w3gFby0aN6a+2yln21ZuNfCBwuzkGA/VNoPN+0H/sUPK4FH94Fw/MSUyof1i/AaP/cujwgvF6aljWyhL23IifEJILxWZk49r4xsKy4omre4EtwJHf3UQ7+vv2PZrIifJLx6K96NqGpWloO97gmQ/cBft+3Ol0tNqXxYvwivcjWA54wEbKFndIVpCGQnQD1nR5zFQdG8ReGlVquicAr7YRXLCqVm/wTh1f++pHxl4KgKf52M8Dq5fGwdILxO5sXZiRKwhT7RbhA2BCIB6nmahVA0b3Zl2QivEJt+xUeApwkvc418txLhdXJ92jrYu3jxYhVe9sTJZjgLge0mQD1vd36IbjUC1PNqvLalddG82RWvdv+EPwg5TXipP1rRjBFemsbi+1AHorWi3pKdogWyGCdHILARAep5I3xcvGUEqOctS4gznKJ5i0Kre6QYxJH8Va9+L3813P61f++vjNWX6+OKWffX0dFG0xbhdXJBhDoQrRWFlzQvWiASBFsIJCJAPScCiZmtIEA9b0UaVg6iaN7io8YVfrYl9C6Kq/4jyNAHEWz1F/HlfPf9MYTXyaVh64DveJ3Mi7MTJWALfaLdIGwIRALU8zQLoWjeovCqv/y+Eb1gZ8kjxo3sFri4rVafAgAAIABJREFUVD6sX4RXgeTjMj8BW+j5PeIBAvkIUM/52Oa0XDRvCK+F1JbKh/WL8FpIDQd2gYAt9F3oE32YLwHqeZq5J2/blbdS+bB+EV7bVRdEk4iALfREZjEDgSIEqOci2Dd2GvLGa7sYbJzUNQzY+xfhtQZELtl+ArbQtz9iIoTAcgLU83I2nIHAthOw9y/Ca9szRnxrEbCFvpYRLoLAlhCgnrckEYQBgTUI2PsX4bUGRC7ZfgK20Lc/YiKEwHIC1PNyNpyBwLYTsPcvv1y/7RkjvrUI2EJfywgXQWBLCFDPW5IIwoDAGgTC/dv7AVXZ4cZegyaXbC0B6nlrU0NgaxCgnteAxiUQ2BICC8JL4uLGFhJsd4EA9bwLWaQPQoB6FhJsITA9Avb+5Tte08shETsI2EJ3XEITCGwtAep5a1NDYBA4lYC9fxFepyKjwRQJ2EKfYh+IGQJCgHoWEmwhMD0C9v5FeE0vh0TsIGAL3XEJTSCwtQSo561NDYFB4FQC9v5FeJ2KjAZTJGALfYp9IGYICAHqWUiwhcD0CNj7F+E1vRwSsYOALXTHJTSBwNYSoJ63NjUEBoFTCdj7F+F1KjIaTJGALfQp9oGYISAEqGchwRYC0yNg71+E1/RySMQOArbQHZfQBAJbS4B63trUEBgETiVg719+uf5UZDSYIgFb6FPsAzFDQAhQz0KCLQSmRyDcv/Jj9WHbE17hJC8YUAPUADVADVAD1AA1kK4GesJLtGMAzD8IlCJA/ZUij18I7D4Bxpfdz3HKHnrq5YMf/GB105vetPrQhz50qmtrr1Vb9sSplmgAgYQEqL+EMDEFAQj0CDC+9HCwcwoBT73c5z73qT7+4z+++oVf+IVTrFXxSaJuhPDSNHhfjICn0IsFh2MIQGDSBBhfJp2+0YM/rV4+8IEPVB/7sR8bBdUnfMInVB/+8IdPjNHaQ3idiIuTYxGwhTmWX/xAAAK7T4DxZfdznLKHp9XLve51r1Z4XfrSl64ODg5OdG/tIbxOxMXJsQjYwhzLL34gAIHdJ8D4svs5TtnDk+rl/e9/f/UxH/MxvT9EvNSlLlV95CMfWRqCtYfwWoqKE2MSsIU5pm98QQACu02A8WW385u6dyfVyz3vec/q4z7u43rCK6x6HR4eLg3D2kN4LUXFiTEJ2MIc0ze+IACB3SbA+LLb+U3du2X18r73va/6f//v/1Xhe12Xvexlq4/6qI+qLnOZy8T9T/zET6z+4z/+YzAUaw/hNYiJg2MTsIU5tn/8QQACu0uA8WV3c5ujZ8vq5aEPfWgVBNbjHve46n/+53+qj/7oj47uH/7wh8dVsEc+8pGD4Vh7CK9BTBwcm4AtzLH94w8CENhdAowvu5vbHD3z1Ev4QVQRXiGG//u//1sairW3d+HChSq87ImlFjgBgQwEqL8MUDEJAQhEAowvFMIqBDz1EoRX+JK951+wJ1or6i25yONI2rKFQGoC1F9qotiDAASEAOOLkGDrIeCpl//+7/9eSXhpvzxq1DR4X4yAp9CLBYdjCEBg0gQYXyadvtGD99TLf/3Xf8Xf8vIEZ+0hvDzUaJOdgC3M7A5xAAEIzIYA48tsUp2ko556CcIr/KyE55+1h/DyUKNNdgK2MLM7xAEEIDAbAowvs0l1ko566uU///M/EV5JaGOkGAFPoRcLDscQgMCkCTC+TDp9owfvqZcgvML/JNvzz9pjxctDjTbZCdjCzO4QBxCAwGwIML7MJtVJOuqpl/BjqQivJLgxUoqAp9BLxYZfCEBg2gQYX6adv7Gj99RLEF7hF+w9/6w9Vrw81GiTnYAtzOwOcQABCMyGAOPLbFKdpKOeevn3f//39YVX+BGw8PI4StIjjEBggAD1NwCFQxCAQBICjC9JMM7GiKdePvKRj8T/fZAHSrAnWivqLdnxOPI4oA0E1iFA/a1DjWsgAAEPAcYXDyXaCAFPvQThdalLXUouOXEb7InWisJLWnscSVu2EEhNgPpLTRR7EICAEGB8ERJsPQQ89fLhD394JeGl/fIdL02D98UIeAq9WHA4hgAEJk2A8WXS6Rs9eE+9BOF16Utf2hWbtYfwcmGjUW4CtjBz+8M+BCAwHwKML/PJdYqeeurl3/7t3xBeKWBjoxwBT6GXiw7PEIDAlAkwvkw5e+PH7qmXILw+6ZM+yRWctceKlwsbjXITsIWZ2x/2IQCB+RBgfJlPrlP01FMvH/rQhxBeKWBjoxwBT6GXiw7PEIDAlAkwvkw5e+PH7qmXD37wg9Unf/Inu4Kz9ljxcmGjUW4CtjBz+8M+BCAwHwKML/PJdYqeeuolCK9P+ZRPcbmz9hBeLmw0yk3AFmZuf9iHAATmQ4DxZT65TtFTT7184AMfWF94yY96eRyl6BA2IDBEgPobosIxCEAgBQHGlxQU52PDUy9BeH3qp36qC0qwJ1or/oCq7HgcuTzQCAJrEKD+1oDGJRCAgIsA44sLE40aAp56+dd//df1hZeQ9jiStmwhkJoA9ZeaKPYgAAEhwPgiJNh6CHjqJQivy1zmMh5zC/8vbL7j5cJGo9wEPIWeOwbsQwACu0mA8WU385qrV556ef/734/wypUA7I5DwFPo40SCFwhAYNcIML7sWkbz9sdTL+973/uqT/u0T3MFYu2x4uXCRqPcBGxh5vaHfQhAYD4EGF/mk+sUPfXUSxBel73sZV3urD2ElwsbjXITsIWZ2x/2IQCB+RBgfJlPrlP01FMv//Iv/4LwSgEbG+UIeAq9XHR4hgAEpkyA8WXK2Rs/dk+9BOH16Z/+6a7grD1WvFzYaJSbgC3M3P6wDwEIzIcA48t8cp2ip556+ed//meEVwrY2ChHwFPo5aLDMwQgMGUCjC9Tzt74sXvqJQivz/iMz3AFZ+3t8QOqLm40ykzAFmZmd5iHAARmRIDxZUbJTtBVT7380z/9U/WZn/mZLm/BnmgtfrnehYxGYxDwFPoYceADAhDYPQKML7uX05w98tTLP/7jP64vvCR4jyNpyxYCqQlQf6mJYg8CEBACjC9Cgq2HgKdegvD6rM/6LI85frneRYlGoxPwFProQeEQAhDYCQKMLzuRxtE64amXCxcuILxGywiOshDwFHoWxxiFAAR2ngDjy86nOGkHPfUShNdnf/Znu/xae/ychAsbjXITsIWZ2x/2IQCB+RBgfJlPrlP01FMv58+fR3ilgI2NcgQ8hV4uOjxDAAJTJsD4MuXsjR+7p17+4R/+ofqcz/kcV3DWHiteLmw0yk3AFmZuf9iHAATmQ4DxZT65TtFTT70E4fW5n/u5LnfWHsLLhY1GuQnYwsztD/sQgMB8CDC+zCfXKXrqqZe///u/R3ilgI2NcgQ8hV4uOjxDAAJTJsD4MuXsjR+7p16C8Pq8z/s8V3DWHiteLmw0yk3AFmZuf9iHAATmQ4DxZT65TtFTT7383d/93frCK/xJZHh5HKXoEDYgMESA+huiwjEIQCAFAcaXFBTnY8NTL0F4ff7nf74LSrAnWivqLbnK40jasoVAagLUX2qi2IMABIQA44uQYOsh4KmXSy65ZCXhpf3yqFHT4H0xAp5CLxYcjiEAgUkTYHyZdPpGD95TL3/7t39bfcEXfIErNmsP4eXCRqPcBGxh5vaHfQhAYD4EGF/mk+sUPfXUSxBeX/iFX+hyZ+0hvFzYaJSbgC3M3P6wDwEIzIcA48t8cp2ip556+Zu/+RuEVwrY2ChHwFPo5aLDMwQgMGUCjC9Tzt74sXvqJQivL/qiL3IFZ+2x4uXCRqPcBGxh5vaHfQhAYD4EGF/mk+sUPfXUy1//9V8jvFLAxkY5Ap5CLxcdniEAgSkTYHyZcvbGj91TL0F4ffEXf7ErOGuPFS8XNhrlJmALM7c/7EMAAvMhwPgyn1yn6KmnXv7qr/5qfeF18eLFKrw8jlJ0CBsQGCJA/Q1R4RgEIJCCAONLCorzseGpl7/8y7+svuRLvsQFJdgTrRX1lux4HLk80AgCaxCg/taAxiUQgICLAOOLCxONGgKeetlIeAlpjyNpyxYCqQlQf6mJYg8CEBACjC9Cgq2HgKde/uIv/qL60i/9Uo+5hSeKfMfLhY1GuQl4Cj13DNiHAAR2kwDjy27mNVevPPUShNeXfdmXuUKw9hBeLmw0yk3AFmZuf9iHAATmQ4DxZT65TtFTT738+Z//OcIrBWxslCPgKfRy0eEZAhCYMgHGlylnb/zYPfUShNeXf/mXu4Kz9ljxcmGjUW4CtjBz+8M+BCAwHwKML/PJdYqeeurlz/7szxBeKWBjoxwBT6GXiw7PEIDAlAkwvkw5e+PH7qmXP/3TP62+4iu+whWctceKlwsbjXITsIWZ2x/2IQCB+RBgfJlPrlP01FMvQXh95Vd+pcudtYfwcmGjUW4CtjBz+8M+BCAwHwKML/PJdYqeeurlT/7kT9YXXvyAaoo0YWNTAp5C39QH10MAAvMkwPgyz7yv22tPvQTh9VVf9VUuF8GeaC1+ud6FjEZjEPAU+hhx4AMCENg9Aowvu5fTnD3y1Msf//Efry+8JHiPI2nLFgKpCVB/qYliDwIQEAKML0KCrYeAp17+6I/+qPrqr/5qjzl+ud5FiUajE/AU+uhB4RACENgJAowvO5HG0TrhqReE12jpwFEuAp5Cz+UbuxCAwG4TYHzZ7fym7p2nXv7wD/+w+pqv+RqXa2uPv2p0YaNRbgK2MHP7wz4EIDAfAowv88l1ip566iUIr6/92q91ubP2EF4ubDTKTcAWZm5/2IcABOZDgPFlPrlO0VNPvfzBH/wBwisFbGyUI+Ap9HLR4RkCEJgyAcaXKWdv/Ng99RKE19d93de5grP2WPFyYaNRbgK2MHP7wz4EIDAfAowv88l1ip566uX3f//3EV4pYGOjHAFPoZeLDs8QgMCUCTC+TDl748fuqZff+73fq77+67/eFZy1tye/pmpPuKzRCAKJCFB/iUBiBgIQWCDA+LKAhAMnEPDUy6rCS7QWv1x/AnhOjUvAU+jjRoQ3CEBgVwgwvuxKJsfph6defvd3f7f6hm/4BldAwV5PeMlVHkfSli0EUhOg/lITxR4EICAEGF+EBFsPAU+9BOH1jd/4jR5z/HK9ixKNRifgKfTRg8IhBCCwEwQYX3YijaN1wlMvv/M7v4PwGi0jOMpCwFPoWRxjFAIQ2HkCjC87n+KkHfTUSxBe3/RN3+Tya+3xcxIubDTKTcAWZm5/2IcABOZDgPFlPrlO0VNPvfz2b/82wisFbGyUI+Ap9HLR4RkCEJgyAcaXKWdv/Ng99fJbv/Vb1Td/8ze7grP2WPFyYaNRbgK2MHP7wz4EIDAfAowv88l1ip566gXhlYI0NooS8BR60QBxDgEITJYA48tkU1ckcE+9/OZv/mb1Ld/yLa74rD1WvFzYaJSbgC3M3P6wDwEIzIcA48t8cp2ip556CcLrW7/1W13urD2ElwsbjXITsIWZ2x/2IQCB+RBgfJlPrlP01FMvv/Ebv7G+8Lpw4UIVXh5HKTqEDQgMEaD+hqhwDAIQSEGA8SUFxfnY8NRLEF7f9m3f5oIS7InWinpLrvI4krZsIZCaAPWXmij2IAABIcD4IiTYegh46uXXf/3XVxJe2i+PGjUN3hcj4Cn0YsHhGAIQmDQBxpdJp2/04D318mu/9mvVt3/7t7tis/YQXi5sNMpNwBZmbn/YhwAE5kOA8WU+uU7RU0+9ILxSkMZGUQKeQi8aIM4hAIHJEmB8mWzqigTuqZdf/dVfrb7jO77DFZ+1x4qXCxuNchOwhZnbH/YhAIH5EGB8mU+uU/TUUy9BeH3nd36ny521h/ByYaNRbgK2MHP7wz4EIDAfAowv88l1ip566uW9730vwisFbGyUI+Ap9HLR4RkCEJgyAcaXKWdv/Ng99RKE13d913e5grP2WPFyYaNRbgK2MHP7wz4EIDAfAowv88l1ip566uU973nP+sLr4sWLVXh5HKXoEDYgMESA+huiwjEIQCAFAcaXFBTnY8NTL+fOnau++7u/2wUl2BOtFfWW7HgcuTzQCAJrEKD+1oDGJRCAgIsA44sLE40aAp56CcLre77ne1zMgj3RWlF4yVUeR9KWLQRSE6D+UhPFHgQgIAQYX4QEWw8BT70cHx+vJLy0X77jpWnwvhgBT6EXCw7HEIDApAkwvkw6faMH76mXILwud7nLuWKz9hBeLmw0yk3AFmZuf9iHAATmQ4DxZT65TtFTT728+93vRnilgI2NcgQ8hV4uOjxDAAJTJsD4MuXsjR+7p17e9a53VZe//OVdwVl7rHi5sNEoNwFbmLn9YR8CEJgPAcaX+eQ6RU899YLwSkEaG0UJeAq9aIA4hwAEJkuA8WWyqSsSuKde3vnOd1bf+73f64rP2mPFy4WNRrkJ2MLM7Q/7EIDAfAgwvswn1yl66qmXILy+7/u+z+XO2kN4ubDRKDcBW5i5/WEfAhCYDwHGl/nkOkVPPfXyjne8Y33hJT/q5XGUokPYgMAQAepviArHIACBFAQYX1JQnI8NT70E4XWFK1zBBSXYE60Vf0BVdjyOXB5oBIE1CFB/a0DjEghAwEWA8cWFiUYNAU+9/Mqv/Mr6wktIexxJW7YQSE2A+ktNFHsQgIAQYHwREmw9BDz18va3v7264hWv6DG38P/C5jteLmw0yk3AU+i5Y8A+BCCwmwQYX3Yzr7l65akXhFcu+tgdjYCn0EcLBkcQgMBOEWB82al0Zu+Mp17e9ra3VVe60pVcsVh7rHi5sNEoNwFbmLn9YR8CEJgPAcaX+eQ6RU899YLwSkEaG0UJeAq9aIA4hwAEJkuA8WWyqSsSuKde3vrWt1bf//3f74rP2mPFy4WNRrkJ2MLM7Q/7EIDAfAgwvswn1yl66qmXILyufOUru9xZewgvFzYa5SZgCzO3P+xDAALzIcD4Mp9cp+ipp17e8pa3ILxSwMZGOQKeQi8XHZ4hAIEpE2B8mXL2xo/dUy9vfvObq6tc5Squ4Ky9PX5A1cWNRpkJ2MLM7A7zEIDAjAgwvswo2Qm66qmXVYWXaC1+uT5BgjCRhoCn0NN4wgoEIDA3Aowvc8v4Zv311Mub3vSm6qpXvarLUbDXE15ylceRtGULgdQEqL/URLEHAQgIAcYXIcHWQ8BTL6sKL+2XL9drGrwvRsBT6MWCwzEEIDBpAowvk07f6MF76uWNb3xjdbWrXc0Vm7WH8HJho1FuArYwc/vDPgQgMB8CjC/zyXWKnnrqJQivq1/96i531h7Cy4WNRrkJ2MLM7Q/7EIDAfAgwvswn1yl66qmXN7zhDQivFLCxUY6Ap9DLRYdnCEBgygQYX6acvfFj99TL61//+uoa17iGKzhrjxUvFzYa5SZgCzO3P+xDAALzIcD4Mp9cp+ipp14QXilIY6MoAU+hFw0Q5xCAwGQJML5MNnVFAvfUy+te97rqmte8pis+a48VLxc2GuUmYAsztz/sQwAC8yHA+DKfXKfoqadegvC61rWu5XJn7SG8XNholJuALczc/rAPAQjMhwDjy3xynaKnnnp57Wtfu77wunDhQhVeHkcpOoQNCAwRoP6GqHAMAhBIQYDxJQXF+djw1EsQXte+9rVdUII90VpRb8lVHkfSli0EUhOg/lITxR4EICAEGF+EBFsPAU+9vOY1r1lJeGm/PGrUNHhfjICn0IsFh2MIQGDSBBhfJp2+0YP31MurX/3q6gd+4AdcsVl7CC8XNhrlJmALM7c/7EMAAvMhwPgyn1yn6KmnXhBeKUhjoygBT6EXDRDnEIDAZAkwvkw2dUUC99TLq171quo617mOKz5rjxUvFzYa5SZgCzO3P+xDAALzIcD4Mp9cp+ipp16C8Lruda/rcmftIbxc2GiUm4AtzNz+sA8BCMyHAOPLfHKdoqeeennlK1+J8EoBGxvlCHgKvVx0eIYABKZMgPFlytkbP3ZPvbziFa+orne967mCs/ZY8XJho1FuArYwc/vDPgQgMB8CjC/zyXWKnnrqZSPhdfHixSq8PI5SdAgbEBgiQP0NUeEYBCCQggDjSwqK87HhqZeXv/zl1fWvf30XlGBPtFbUW7LjceTyQCMIrEGA+lsDGpdAAAIuAowvLkw0agh46mUj4SWkPY6kLVsIpCZA/aUmij0IQEAIML4ICbYeAp56ednLXlb94A/+oMfcwhNFvuPlwkaj3AQ8hZ47BuxDAAK7SYDxZTfzmqtXnnoJwusGN7iBKwRrD+Hlwkaj3ARsYeb2N6r9c4fV3sFx6/L82f3e/vHBXvxEFBjsnz1ft7vkqNrf647v7R1WykJ1dKY7d3iuNV1V1XF12F4Xrjnfaxt8iJ/gt7u2btfuh5hbO7qdtt/Z0hHU74f8qj5o+2eOqrrX4Zr96ugSsRZ8hf0hW8LKxKM4ixXZas5tP+Vk2Ko8xRy1cS3xEdqfOaqO2vzV/YvXKnaRY7Cl7Ad3MZ4m3qW5CHUgcURmwtAwkTaS73Y/eqprojnW91X3bZCHZjPx9yEH/IOAl4CnXl760pcivLxAabedBDyFvp2RO6IyE64WXvUk3UymjdiKk6CecKuq0tfECVsm1jgZi1ipJ2OZRPU1VTMhy7kQdX8CVtfGOMRm47vx17dZn2vFYg9FsNfZqAWh7qecawREFCBD10i7YFzFGH3V+61/E7cOpxd3bCcCRrVq8xTEiJw/wUdkLwKwL6RitEZga2FXxRj2WgF+Yi4i+z6bWAOtyNTiqW63r9k3cQaRGASu9hW57GlhrXjs0NudHl92KE/b0hVPvbzkJS+p9vf3XSFbe+3HAHvCZY1GEEhEYKfrr53Qa1haBIRJsBUOehUkTMwirhrhVberhUAnoJQwWCYoolt7XX8CXhQ1KrEhfolloC86/u6qWgD0V69qMRP7L/bCBa39oWtOEl6dt/pdECC6vZxf7Luc6W2bvoX4hvsUWisfoX0r0KqqFlMi2PpiOfpp2TX9PNuthGox1MuF1EF7bS/iZkf3r7MtfYi2D7octr4a22HFrqunIfvTP7bT48v007N1PfDUC8Jr69JGQKsS8BT6qja3pn2coLtHg6Gv9aPHesKUCTLE24qyKKL0NTKh69WNuoeteLNCoAdAT87ddTEW9VhMJuBgs3fOCiV1jY6/c9kIgN5jQyW81PW1n3CujrHntyekFvsQRVvP1pDwWmTWxaneSZ7alaTmnBxv/TQ+wnHNxQjfNpfiIrQPtu1WBHdrv2YfcyF1oP0Ee3JcXVPnruF+ToR72D+sjlWsIrzsVsLcxW2oKf5BwEvAUy8vfvGLqxve8IYuk9ZeW432hMsajSCQiMBO159MtA0rPSG3oqk5FwVPmJzDxKon23bitOKj3o/ix0z8/dTY605Y8Qq+9EpO67u2KBN22Fu+OhT8aREUxI8SXlbcRNND12gbtg9WUIV93V4I2OvkuNlKnmQbT5/gY4iT4qbzHE1Fu0cdF+VHMx1c8erVQ92fTvDq/oX3gUGzDQJMxF5TT9HX2a6++r4Nkx3Z3enxZUdytE3d8NQLwmubMkYsaxHwFPpahrfhIjXBhnD0hBzfy2TdrGK0Kx2Dwqv5LpGci5O/iI2+SIi2pd3C96O8wque1NuVnZ4AWE941as1ErPuj4gGSZoVUnUssionf0gg+zXLzq5YCdsgLto/cIicB9qpPHViZICpiLvIvntM1/Nh8hxjadq3cQz6Cy1VPxXv0L9abNXnW+HVi6NjGNufaa4JbZTwCvebcOv6qont1vudHl92K1Vb0RtPvbzoRS+qbnSjG7nitfb2+AFVFzcaZSZgCzOzu3HNqwk2OI4CQa34xAm7eWTUTqaNCAtc5CUTpUzMi8ftIyh5PBm9xr9u7GycILx6j/z2q6OwahLFoRIEDcFODGiktVjprZrF70apeBqxUPdBjneiobZ2mvBqWLbsjhf62EVVxz7ITBrpPEX+aoVuyEcUM4fVofyFaStya4M2z/VjUelr/68o++JHcVbCa/H7ZU1tHBxHYdmJskZURsbqvRZepv50XQiOXdqGvPMPAl4CnnoJwuvMmTMuk8GeaC1+ud6FjEZjEPAU+hhx4AMCbgJReMlPYbivomEBAowvBaBP2KWnXl74wheuL7yEjceRtGULgdQEqL/URLGXnQDCKzviVA4YX1KRnIcdT7284AUvqG584xu7gFh77fqrPeGyRiMIJCJA/SUCiRkIQGCBAOPLAhIOnEDAUy8IrxMAcmoaBDyFPo2eECUEILBtBBhfti0j2x2Pp16e//znVze5yU1cHbH2WPFyYaNRbgK2MHP7wz4EIDAfAowv88l1ip566gXhlYI0NooS8BR60QBxDgEITJYA48tkU1ckcE+9PO95z6tuetObuuKz9ljxcmGjUW4CtjBz+8M+BCAwHwKML/PJdYqeeuolCK+b3exmLnfWHsLLhY1GuQnYwsztD/sQgMB8CDC+zCfXKXrqqZezZ88ivFLAxkY5Ap5CLxcdniEAgSkTYHyZcvbGj91TL0dHR9XNb35zV3DWHr9c78JGo9wEbGHm9od9CEBgPgQYX+aT6xQ99dTLqsKLX65PkRlsJCXgKfSkDjEGAQjMhgDjy2xSnaSjnnp57nOfW93iFrdw+Qv2esJLrvI4krZsIZCaAPWXmij2IAABIcD4IiTYegh46iUIr1ve8pYec/H/t6sb8uV6TYP3xQh4Cr1YcDiGAAQmTYDxZdLpGz14T7085znPQXiNnhkcJiXgKfSkDjEGAQjMhgDjy2xSnaSjnnp59rOfXd3qVrdy+bP2WPFyYaNRbgK2MHP7wz4EIDAfAowv88l1ip566gXhlYI0NooS8BR60QBxDgEITJYA48tkU1ckcE+9/PIv/3J161vf2hWftceKlwsbjXITsIWZ2x/2IQCB+RBgfJlPrlP01FMvCK8UpLFRlICn0IsGiHMIQGCyBBhfJpu6IoF76uVZz3rLqmVdAAAgAElEQVRWdZvb3MYVn7XHipcLG41yE7CFmdsf9iEAgfkQYHyZT65T9NRTL0F4/dAP/ZDLnbWH8HJho1FuArYwc/vDPgQgMB8CjC/zyXWKnnrq5ZnPfOb6wuvChQtVeHkcpegQNiAwRID6G6LCMQhAIAUBxpcUFOdjw1Mvz3jGM6rb3va2LijBnmitqLfkKo8jacsWAqkJUH+piWIPAhAQAowvQoKth4CnXlYVXtovjxo1Dd4XI+Ap9GLB4RgCEJg0AcaXSadv9OA99fL0pz+9ut3tbueKzdpDeLmw0Sg3AVuYuf1hHwIQmA8Bxpf55DpFTz31gvBKQRobRQl4Cr1ogDiHAAQmS4DxZbKpKxK4p16e9rSnVbe//e1d8Vl7rHi5sNEoNwFbmLn9YR8CEJgPAcaX+eQ6RU899YLwSkEaG0UJeAq9aIA4hwAEJkuA8WWyqSsSuKdenvrUp1Z3uMMdXPFZe6x4ubDRKDcBW5i5/WEfAhCYDwHGl/nkOkVPPfXylKc8pfrhH/5hlztrD+Hlwkaj3ARsYeb2h30IQGA+BBhf5pPrFD311MtGwuvixYtVeHkcpegQNiAwRID6G6LCMQhAIAUBxpcUFOdjw1MvT37yk6sf+ZEfcUEJ9kRrRb0lOx5HLg80gsAaBKi/NaBxCQQg4CLA+OLCRKOGgKdeNhJeQtrjSNqyhUBqAtRfaqLYgwAEhADji5Bg6yHgqZcnPelJ1R3veEePuYUninzHy4WNRrkJeAo9dwzYhwAEdpMA48tu5jVXrzz1gvDKRR+7oxHwFPpoweAIAhDYKQKMLzuVzuyd8dTLL/3SL1V3utOdXLFYe6x4ubDRKDcBW5i5/WEfAhCYDwHGl/nkOkVPPfXyxCc+sbrzne/scmftIbxc2GiUm4AtzNz+sA8BCMyHAOPLfHKdoqeeekF4pSCNjaIEPIVeNECcQwACkyXA+DLZ1BUJ3FMvT3jCE6q73OUurvisPVa8XNholJuALczc/rAPAQjMhwDjy3xynaKnnnpBeKUgjY2iBDyFXjRAnEMAApMlwPgy2dQVCdxTL49//OOru971rq74rL09fkDVxY1GmQnYwszsDvMQgMCMCDC+zCjZCbrqqZcgvO52t7u5vAV7orX45XoXMhqNQcBT6GPEgQ8IQGD3CDC+7F5Oc/bIUy+Pe9zj1hdeErzHkbRlC4HUBKi/1ESxBwEICAHGFyHB1kPAUy+Pfexjqx/90R/1mOOX612UaDQ6AU+hjx4UDiEAgZ0gwPiyE2kcrROeekF4jZYOHOUi4Cn0XL6xCwEI7DYBxpfdzm/q3nnq5TGPeUz1Yz/2Yy7X1h4/J+HCRqPcBGxh5vaHfQhAYD4EGF/mk+sUPfXUC8IrBWlsFCXgKfSiAeIcAhCYLAHGl8mmrkjgnnp59KMfXf34j/+4Kz5rjxUvFzYa5SZgCzO3P+xDAALzIcD4Mp9cp+ipp14e9ahHVXe/+91d7qw9hJcLG41yE7CFmdsf9iEAgfkQYHyZT65T9NRTLwivFKSxUZSAp9CLBohzCEBgsgQYXyabuiKBe+rlkY98ZHWPe9zDFZ+1xy/Xu7DRKDcBW5i5/WEfAhCYDwHGl/nkOkVPPfWyqvDil+tTZAYbSQl4Cj2pQ4xBAAKzIcD4MptUJ+mop14e8YhHVD/xEz/h8hfs9YSXXOVxJG3ZQiA1AeovNVHsQQACQoDxRUiw9RDw1Muqwkv75cv1mgbvixHwFHqx4HAMAQhMmgDjy6TTN3rwnnp5+MMfXv3kT/6kKzZrD+Hlwkaj3ARsYeb2h30IQGA+BBhf5pPrFD311MvDHvaw6p73vKfLnbWH8HJho1FuArYwc/vDPgQgMB8CjC/zyXWKnnrqBeGVgjQ2ihLwFHrRAHEOAQhMlgDjy2RTVyRwT7089KEPre51r3u54rP2WPFyYaNRbgK2MHP7wz4EIDAfAowv88l1ip566gXhlYI0NooS8BR60QBxDgEITJYA48tkU1ckcE+9POQhD6nufe97u+Kz9ljxcmGjUW4CtjBz+8M+BCAwHwKML/PJdYqeeuolCK/73Oc+LnfWHsLLhY1GuQnYwsztD/sQgMB8CDC+zCfXKXrqqZcHP/jB6wuvCxcuVOHlcZSiQ9iAwBAB6m+ICscgAIEUBBhfUlCcjw1PvTzoQQ+q7nvf+7qgBHuitaLekqs8jqQtWwikJkD9pSaKPQhAQAgwvggJth4CnnpZVXhpvzxq1DR4X4yAp9CLBYdjCEBg0gQYXyadvtGD99TLAx/4wOqnfuqnXLFZewgvFzYa5SZgCzO3P+xDAALzIcD4Mp9cp+ipp14QXilIY6MoAU+hFw0Q5xCAwGQJML5MNnVFAvfUywMe8IDqp3/6p13xWXuseLmw0Sg3AVuYuf1hHwIQmA8Bxpf55DpFTz31EoTX/e53P5c7aw/h5cJGo9wEbGHm9od9CEBgPgQYX+aT6xQ99dTL4eEhwisFbGyUI+Ap9HLR4RkCEJgyAcaXKWdv/Ng99fKLv/iL1c/8zM+4grP2WPFyYaNRbgK2MHP7wz4EIDAfAowv88l1ip566mUj4XXx4sUqvDyOUnQIGxAYIkD9DVHhGAQgkIIA40sKivOx4amXg4OD6md/9mddUII90VpRb8mOx5HLA40gsAYB6m8NaFwCAQi4CDC+uDDRqCHgqZeNhJeQ9jiStmwhkJoA9ZeaKPYgAAEhwPgiJNh6CHjq5Rd+4Reqn/u5n/OYW3iiyHe8XNholJuAp9Bzx4B9CEBgNwkwvuxmXnP1ylMvP//zP1/d//73d4Vg7SG8XNholJuALczc/rAPAQjMhwDjy3xynaKnnnpBeKUgjY2iBDyFXjRAnEMAApMlwPgy2dQVCdxTL2G1K4gvzz9rjxUvDzXaZCdgCzO7QxxAAAKzIcD4MptUJ+mop14QXklQY6QkAU+hl4wP3xCAwHQJML5MN3clIvfUS/hiffiCveeftceKl4cabbITsIWZ3SEOIACB2RBgfJlNqpN01FMvCK8kqDFSkoCn0EvGh28IQGC6BBhfppu7EpF76iX8eGr4LS/PP2tvjx9Q9WCjTW4CtjBz+8M+BCAwHwKML/PJdYqeeuolCK/wvw3y/Av2RGvxy/UeYrQZhYCn0EcJBCcQgMDOEWB82bmUZu2Qp17C/yB7beEl0XscSVu2EEhNgPpLTRR7EICAEGB8ERJsPQQ89XK/+92vOjw89Jjjl+tdlGg0OgFPoY8eFA4hAIGdIMD4shNpHK0TnnpBeI2WDhzlIuAp9Fy+sQsBCOw2AcaX3c5v6t556uWnf/qnqwc84AEu19YePyfhwkaj3ARsYeb2h30IQGA+BBhf5pPrFD311AvCKwVpbBQl4Cn0ogHiHAIQmCwBxpfJpq5I4J56+amf+qnqgQ98oCs+a48VLxc2GuUmYAsztz/sQwAC8yHA+DKfXKfoqadegvB60IMe5HJn7SG8XNholJuALczc/rAPAQjMhwDjy3xynaKnnnq5733vi/BKARsb5Qh4Cr1cdHiGAASmTIDxZcrZGz92T73c5z73qR784Ae7grP2+OV6FzYa5SZgCzO3P+xDAALzIcD4Mp9cp+ipp15WFV78cn2KzGAjKQFPoSd1iDEIQGA2BBhfZpPqJB311Mu9733v6iEPeYjLX7DXE15ylceRtGULgdQEqL/URLEHAQgIAcYXIcHWQ8BTL0F4PfShD/WY45frXZRoNDoBT6GPHhQOIQCBnSDA+LITaRytE556ude97oXwGi0jOMpCwFPoWRxjFAIQ2HkCjC87n+KkHfTUyz3vec/qYQ97mMuvtcfPSbiw0Sg3AVuYuf1hHwIQmA8Bxpf55DpFTz31gvBKQRobRQl4Cr1ogDiHAAQmS4DxZbKpKxK4p15+8id/snr4wx/uis/aY8XLhY1GuQnYwsztD/sQgMB8CDC+zCfXKXrqqReEVwrS2ChKwFPoRQPEOQQgMFkCjC+TTV2RwD318hM/8RPVIx7xCFd81h4rXi5sNMpNwBZmbn/YhwAE5kOA8WU+uU7RU0+9BOH1yEc+0uXO2kN4ubDRKDcBW5i5/WEfAhCYDwHGl/nkOkVPPfVyj3vcY33hdeHChSq8PI5SdAgbEBgiQP0NUeEYBCCQggDjSwqK87HhqZe73/3u1aMe9SgXlGBPtFbUW3KVx5G0ZQuB1ASov9REsQcBCAgBxhchwdZDwFMvqwov7ZdHjZoG74sR8BR6seBwDAEITJoA48uk0zd68J56+fEf//Hq0Y9+tCs2aw/h5cJGo9wEbGHm9od9CEBgPgQYX+aT6xQ99dQLwisFaWwUJeAp9KIB4hwCEJgsAcaXyaauSOCeevmxH/ux6jGPeYwrPmuPFS8XNhrlJmALM7c/7EMAAvMhwPgyn1yn6KmnXoLweuxjH+tyZ+0hvFzYaJSbgC3M3P6wDwEIzIcA48t8cp2ip556+dEf/VGEVwrY2ChHwFPo5aLDMwQgMGUCjC9Tzt74sXvq5W53u1v1uMc9zhWctceKlwsbjXITsIWZ2x/2IQCB+RBgfJlPrlP01FMvGwmvixcvVuHlcZSiQ9iAwBAB6m+ICscgAIEUBBhfUlCcjw1Pvdz1rnetHv/4x7ugBHuitaLekh2PI5cHGkFgDQLU3xrQuAQCEHARYHxxYaJRQ8BTL0F4PeEJT3AxC/ZEa0XhJVd5HElbthBITYD6S00UexCAgBBgfBESbD0EPPVyl7vcZSXhpf3yHS9Ng/fFCHgKvVhwOIYABCZNgPFl0ukbPXhPvdz5zneunvjEJ7pis/YQXi5sNMpNwBZmbn/YhwAE5kOA8WU+uU7RU0+9ILxSkMZGUQKeQi8aIM4hAIHJEmB8mWzqigTuqZc73elO1S/90i+54rP2WPFyYaNRbgK2MHP7wz4EIDAfAowv88l1ip566gXhlYI0NooS8BR60QBxDgEITJYA48tkU1ckcE+93PGOd6ye9KQnueKz9ljxcmGjUW4CtjBz+8M+BCAwHwKML/PJdYqeeuolCK8nP/nJLnfWHsLLhY1GuQnYwsztD/sQgMB8CDC+zCfXKXrqqZcf+ZEfWV94yY96eRyl6BA2IDBEgPobosIxCEAgBQHGlxQU52PDUy8//MM/XD3lKU9xQQn2RGvFH1CVHY8jlwcaQWANAtTfGtC4BAIQcBFgfHFholFDwFMvGwkvIe1xJG3ZQiA1AeovNVHsQQACQoDxRUiw9RDw1Msd7nCH6qlPfarH3ML/C5vveLmw0Sg3AU+h544B+xCAwG4SYHzZzbzm6pWnXhBeuehjdzQCnkIfLRgcQQACO0WA8WWn0pm9M556uf3tb1897WlPc8Vi7bHi5cJGo9wEbGHm9od9CEBgPgQYX+aT6xQ99dRLEF5Pf/rTXe6sPYSXCxuNchOwhZnbH/YhAIH5EGB8mU+uU/TUUy+3u93tEF4pYGOjHAFPoZeLDs8QgMCUCTC+TDl748fuqZfb3va21TOe8QxXcNYeK14ubDTKTcAWZm5/2IcABOZDgPFlPrlO0VNPvSC8UpDGRlECnkIvGiDOIQCByRJgfJls6ooE7qmXH/qhH6qe+cxnuuKz9vb4AVUXNxplJmALM7M7zEMAAjMiwPgyo2Qn6KqnXlYVXqK1+OX6BAnCRBoCnkJP4wkrEIDA3Agwvswt45v111Mvt7nNbapnPetZLkfBXk94yVUeR9KWLQRSE6D+UhPFHgQgIAQYX4QEWw8BT70E4fXLv/zLHnP8cr2LEo1GJ+Ap9NGDwiEEILATBBhfdiKNo3XCUy+3vvWtEV6jZQRHWQh4Cj2LY4xCAAI7T4DxZedTnLSDnnq51a1uVT372c92+bX2+DkJFzYa5SZgCzO3P+xDAALzIcD4Mp9cp+ipp14QXilIY6MoAU+hFw0Q5xCAwGQJML5MNnVFAvfUyy1vecvqOc95jis+a48VLxc2GuUmYAsztz/sQwAC8yHA+DKfXKfoqadegvB67nOf63Jn7SG8XNholJuALczc/rAPAQjMhwDjy3xynaKnnnq5xS1ugfBKARsb5Qh4Cr1cdHiGAASmTIDxZcrZGz92T70E4XV0dOQKztpjxcuFjUa5CdjCzO0P+xCAwHwIML7MJ9cpeuqpl5vf/ObrC68LFy5U4RUc8YIBNUANUAPUADVADcy9Bk4TcDe72c2qs2fPntYsng8sRWtFvSVXhRP8gwAEIAABCEAAAnMm4NFDqwovzbNVWx5H+kLeQwACEIAABCAAgV0j4NFDN73pTavnPe95rq5bewgvFzYaQQACEIAABCAwBwJWKA31OQiv5z//+UOnFo5ZewivBUQcgAAEIAABCEBgrgSsUBricJOb3AThNQSGYxCAAAQgAAEIQGAVAl7h9YIXvMBl1tpjxcuFjUYQgAAEIAABCMyBgBVKQ32+8Y1vXCG8hshwDAIQgAAEIAABCKxAwCO8zpw5U73whS90WbX2WPFyYaMRBCAAAQhAAAJzIGCF0lCfNxJeFy9erMLL42jIOccgAAEIQAACEIDArhDw6KEb3ehG1Yte9CJXl4M90VpRb8mOx5HLA40gAAEIQAACEIDARAl49FAQXi9+8YtdPVwQXnKVx5G0ZQsBCEAAAhCAAAR2kYBHD93whjdcSXhpTnzHS9PgPQQgAAEIQAACsybgEV77+/vVS17yEhcnaw/h5cJGIwhAAAIQgAAE5kDACqWhPiO8hqhwDAIQgAAEIAABCKxIwCO8bnCDG1QvfelLXZatPVa8XNhoBAEIQAACEIDAHAhYoTTU5yC8Xvaylw2dWjhm7SG8FhBxAAIQgAAEIACBuRKwQmmIww/+4A8ivIbAcAwCEIAABCAAAQisQsArvF7+8pe7zFp7rHi5sNEIAhCAAAQgAIE5ELBCaajP17/+9au1hRc/oDqElGMQgAAEIAABCMyRgEd4Xe9616te8YpXuPAEe6K1+OV6FzIaQQACEIAABCAwFwLZhZeA9DiStmwhAAEIQAACEIDALhLw6KHrXve61Stf+UpX9609vuPlwkYjCEAAAhCAAATmQMAKpaE+B+H1qle9aujUwjFrD+G1gIgDEIAABCAAAQjMlYAVSkMcrnOd6yC8hsBwDAIQgAAEIAABCKxCwCu8Xv3qV7vMWnuseLmw0QgCEIAABCAAgTkQsEJpqM8/8AM/UCG8hshwDAIQgAAEIAABCKxAwCO8rn3ta1evec1rXFatPVa8XNhoBAEIQAACEIDAHAhYoTTUZ4TXEBWOQQACEIAABCAAgRUJeITXta51req1r32ty7K1tye/pmpPuKzRCAIQgAAEIAABCOwQAY8eCsLrda97navXwZ5oLX653oWMRhCAAAQgAAEIzIWAR3hd85rXXF94CUiPI2nLFgIQgAAEIAABCOwiAY8eusY1rlG9/vWvd3Xf2uPL9S5sNIIABCAAAQhAYA4ErFAa6jPCa4gKxyAweQLnq6Mze1UYBLrXYXUs/Tp32B0/c1Sdb44fH+j24f1+dXRJVYXj+2elVVWdP7vf7J/k57g67PkXG/U1h2ePqv3mfGs7xHXQRhn9yH6I4fCcdEC2jS05fklnc29P9Veah21sc1gdnd1vGNR9bJucwEb77xiEK/sc2nbalupruLbLS8M85MH0X2KK7RUXOc4WAhDYLgIe4XX1q1+9esMb3uAK3NpjxcuFjUYQKEEgCAEtKIIIaoRII05qcdAIhmZS74sbZSMIglagqeNRcAz7sWKhEyqNz148jQ0jPLSNfmzCtLZV96UWeiJ6QvsuZmkvwmuvFXjRh/QtspH+NHEOstHisxamIhCrKLaW96cVmUGuBQGmBZXpv0S90E5OsIUABLaKgBVKQ8EF4fXGN75x6NTCMWsP4bWAiAMQ2BYCWhyFmJTw6omoqqqFQi3K+uJG21DXB3EiQuUE4RXtKlERxEMtOmpBowVI8Bv3jfDQgqMfm3CubUWxFQWPWuVqVra69bPmmp64Eja1UIr+2r41bJp967/rT1/wyepXG9MggzoW3b94xPS/iXhRoMkJthCAwFYRsEJpKLirXe1qCK8hMByDwLQJaNEUetIJpwVxoQRKX1z0bci5TnAEu/022k/kF8VQ9/hSCy9ZmYrRaeFlHk/KilDwHwa19hUFjRVe6nxsK6tXMZr6P6q/9YHARgkv7SO+HxKlesWrFl5tXM31y4SkFpyDwqvnv/a90E51h7cQgMD2EPAKrze96U2uoK09Vrxc2GgEgRIEThBEQQzZVZ3msZ+IqzpiYyOuxhyZR5imjRJ4wYa21wm2Wix1AkTtmxUfLTi0rW5Vqb62XV3S/VqG3a54qX3tz17e92+F14DACwYG+tP1+/RHjRKPbG1M7EMAAttFwAqloeiuetWrVgivITIcg8CkCZwgiKLQkC+q18JFryp1K1FDNuz3pobaNI/7gh8lhIJ4qEVH41POKeEzJFSWxxb6UNuqY+4/8otiRb5HpnPZ9F8EUGw3FEsjHEWkLhde5jtemi/CS5PnPQR2noBHeF3lKlep3vzmN7tYWHuseLmw0QgCJQicIIhCOEEQyCMtER1mhWrxMaL960Z5xKa+V9WueGlBVPffCq/Dgy6GVuwNCBUtvNqYQ+z2UWNw04ieut2SVajY5rA6bB9d6vgNGyXcgvDq+Y/8xEcjJhumIuqGhGR7btmX6yUvccujxhJ3Dz4hsC6BMEac9m8j4XXhwoUqvDyOTguE8xCAwLYT6L4LtVmki6JsM3srXt0Ir4Uv3a9oZkiYrmyCCyAAgZ0i4NFDV77ylau3vOUtrn4He6K1ot6SqzyOpC1bCEBgggSalSS9WrN+LxBe67PjSghAYJsJePRQEF5vfetbXd2w9tr1NHvCZY1GEIAABCAAAQhAYIcIePTQ93//9yO8dijndAUCEIAABCAAgUIEvMLrbW97mytCa48VLxc2GkEAAhCAAAQgMAcCVigN9flKV7pShfAaIsMxCEAAAhCAAAQgsAIBj/C64hWvWL397W93WbX2WPFyYaMRBCAAAQhAAAJzIGCF0lCfEV5DVDgGAQhAAAIQgAAEViTgEV5XuMIVql/5lV9xWbb2WPFyYaMRBCAAAQhAAAJzIGCF0lCfg/B6xzveMXRq4Zi1t3fx4sUqvOyJhSs5AAEIQAACEIAABHacgEcPfd/3fd9Kwku0VtRbsuNxtOOs6R4EIAABCEAAAjMn4NFDQXi9853vdJEK9kRrReElV3kcSVu2EIAABCAAAQhAYBcJePTQ937v964kvDQnvuOlafAeAhCAAAQgAIFZE/AIr8tf/vLVu971Lhcnaw/h5cJGIwhAAAIQgAAE5kDACqWhPiO8hqhwDAIQgAAEIAABCKxIwCO8Lne5y1Xvfve7XZatPVa8XNhoBAEIQAACEIDAHAhYoTTU5yC8jo+Ph04tHLP2EF4LiDgAAQhAAAIQgMBcCVihNMThe77nexBeQ2A4BgEIQAACEIAABFYh4BVe586dc5m19ljxcmGjEQQgAAEIQAACcyBghdJQn7/7u7+7Wlt4yY96eRwNOecYBCAAAQhAAAIQ2BUCHj30Xd/1XdV73vMeV5eDPdFa8QdUZcfjyOWBRhCAAAQgAAEIQGCiBJbpofvf//5tj4Lweu973xv3X/va11b/+7//256zbxaElzRY5kjOs4UABCAAAQj8//buJ7dpJozjeMR/LsBROAaLSGwRHADBGapcgh2b9ijtgtUrIQRrFimCG7CYV8/jeWYeP+O0Lo2TOPlWihzb42fGn3Gbn5wQEEDg2AWG8tCXL1/SgwcP0osXL9KnT5/Sy5cv0+fPn9OrV6/So0ePknyv16afWI/PeG2SYjsCCCCAAAIInJxADEoG8O7du/T48eP0/PlzDVvPnj1L0lYC2Xq9tmbNMtYjeDVEbEAAAQQQQACBUxWIQckcfvz4kZ48eaJhS9rIQ9Y/fPhgTQaXsR7Ba5CJjQgggAACCCBwigIxKHmDt2/fpqdPn5bwJXe7fv365Zs0z2M9gldDxAYEEEAAAQQQOFWBGJS8w/fv30vwkrtdHz9+9LsHn8d6BK9BJjYigAACCCCAwCkKxKAUDd68eaPh6+HDh+n3799xd7Me6xG8GiI2IIAAAggggMCpCsSgFB2+ffuWJHS9f/8+7hpcj/UIXoNMbEQAAQQQQACBUxSIQWnI4OvXr+nPnz9Du5ptsd6CL1BtjNiAAAIIIIAAAicqEIPSfRmknmWt5pvrZScPDLgGuAa4BrgGuAa4BrgGtncN9IKXJTkB5gcBBBBAAAEEEEBgewIxX5W0FXdsr0sqIYAAAggggAACpykQ8xXB6zSvA84aAQQQQAABBHYgQPDaATJdIIAAAggggAACIkDw4jpAAAEEEEAAAQR2JEDw2hE03SCAAAIIIIAAAgQvrgEEEEAAAQQQQGBHAgSvHUHTDQIIIIAAAgggQPDiGkAAAQQQQAABBHYk0ASv6+vrJI+4Y0fjoRsEEEAAAQQQQOBoBSRfWdbSvGVnSvAyCZYIIIAAAggggMB2BGK+4gtUt+NKFQQQQAABBBBAoBEgeDUkbEAAAQQQQAABBKYRIHhN40pVBBBAAAEEEECgESB4NSRsQAABBBBAAAEEphEgeE3jSlUEEEAAAQQQQKARIHg1JGxAAAEEEEAAAQSmESB4TeNKVQQQQAABBBBAoBFogtffv3+TPOKO5kg2IIAAAggggAACCNxJQPKVZS3NW7ZC8LqTI40RQAABBBBAAIFbBZrgZUcQvEyCJQIIHKvA+mKZlhfrYz09zgsBBA5QIOYrvrn+ACeJISGAwDQCBK9pXKmKAAKbBQhem23Yg8DhClyt0uLsUscn4WHx+jx1923W6fz1Qj+jKb/cq6t8Cj/P07K0SSnJ8bIuy0Vt3z1fJa0c9lmtyzOr2/W1vPiv16fVkztJta2Mo2tvdXQMru+yPV2mldsu9U8Xf5MAAAXbSURBVIbuSvVrd8d0NaSfZTr/adMn++q6emn9ZVqdLdPy9bIY1DFkIxuHs5N+lxfndYx5Huz86lxI//lcyvH9+Slt4/zocXkewr7+fI+zMgmWCCCwfwH5m+Z/ylrc4RvxHAEE9ixQgpe88OYXaHmZP1vUEKbBKQeO8OJdgpedhrQt4SClJO1jWMn7S+ApY7AiIVjl8dQw4/bfUF+DRQkzKcn6bcHLwtStwUv7NS8LLS7gmKW26wdMC7pqXGy6Gr5fCXIl9Okc1DnRY8u5uWOlP++/MXjlMee2Y61shlgigMD+BWK+Injtf04YAQK3C+TQ0w8lLthohW5dQ0t8YY9BK67HEbj9XfCS2i5guP5q0OqCYF2P43OduPoaCks4GRG88rmd9+7E+bFJWOnWY1CRc6mhzo3Pj0eGKes5lPXDUze+LpRlk4tVqalWZyHUltN2/cX52RC8tN6FC2kyrhFWpUueIIDA3gUIXnufAgaAwD8IaBBY9F507W2tGnS64FOCl71tZkt/hyUGDbt7Zm1l6e54yR8O3093Bi5I5FPSkOJruOOafXE87rgajqqVhpCrGu5svbzl545fuODla/WDa62lAc2PR4KRC16xRi94XVkwEo9VuvS2Wqf/1q46jgle1saWRmHXQj5fPzZrwhIBBA5HgOB1OHPBSBAYLyAvtnKnw5Z6ZAw+3bq+EA+9WPtg4cOB1NIXc3tLzn0mzL19WIOODTv2X4NM18Ltv6G+tPW1Yziy3rSNu/tTj5F+dnfHS/rtBa+fuX8JYDZHat2dfw1GziPOz8Adr3JHL7St57357qCZsUQAgf0LELz2PweMAIG7C7jA5V94NQRYoNJwkwNIeLHWYGXtpHdpG9ft8075Q/G2v/Ynb+G5cBY/PB8ClN2J0js8veDVBRCrr58vc2O5KXj5O291XDn4DH24XhzC57N6/dr5aDu7q5fHl9/SU2NrpwHJt6tvacpnvTRkFduuTgleapCPjfMTg5fczTIT39Y/l3++sOHzcHe/wDgCAQSmEmiCF1+gOhU1dRHYooC8aNtnezQkWADKISG/7VTeDgwv0INBy17YdZi+zjKdy92bHDZqwPGfb5KDumNKnzcFLwtzOk5fv62xKUxoADKDXl9SY/iOl55aDjzy9uM//6vGs1VaNm/tuX61jzwGeW62pe/uLpmcQ7kjmevJH+XykPPT+XXnU+ZyvNUWrzxKIYDAPQXk99uyFt9cf09MDkcAgXkJbAp1N51FCUs3NdrGPglpLlhuoyQ1EEBg/wJN8LIhyQ5+EEAAgWMWIHgd8+xybggcpkDMVyVtxR2HOXxGhQACCCCAAAIIzEcg5iuC13zmjpEigAACCCCAwMwECF4zmzCGiwACCCCAAALzFSB4zXfuGDkCCCCAAAIIzEyA4DWzCWO4CCCAAAIIIDBfAYLXfOeOkSOAAAIIIIDAzAQIXjObMIaLAAIIIIAAAvMVaIKXfZtq3DHfU2TkCCCAAAIIIIDAYQhIvrKsxTfXH8acMAoEEEAAAQQQOFKBJnjZeXLHyyRYIoAAAggggAAC2xGI+YovUN2OK1UQQAABBBBAAIFGgODVkLABAQQQQAABBBCYRoDgNY0rVRFAAAEEEEAAgUaA4NWQsAEBBBBAAAEEEJhGgOA1jStVEUAAAQQQQACBRoDg1ZCwAQEEEEAAAQQQmEaA4DWNK1URQAABBBBAAIFGgODVkLABAQQQQAABBBCYRqAJXtfX10kesoMHBlwDXANcA1wDXANcA1wD270GLGtp3rJ8Jyu3/dj/NbTrdtIf42vVx84Hfq2dbMHvfi744WcC/H02ibrk96Na+GdjXca2k9pzu/7KN9ev12tvM/h8LMS228lgGF87JWOd8WvtZAt+93PBDz8T4O+zSdQlvx/Vwj8b6zK2ndSe2/VH8PJXRHh+zBMfTlVXx57vtttJ53P7xcGP4Dp0Dcg2fj+GZbbtMraejIa/L+2c4NeayJaxLmPbDV1//wNXrVUx7PKImwAAAABJRU5ErkJggg==;" vertex="1" parent="1">
          <mxGeometry x="240" y="160" width="606" height="687" as="geometry" />
        </mxCell>
        <mxCell id="EKHix6JRG0I5_opqSx7Z-2" value="" style="rounded=0;whiteSpace=wrap;html=1;" vertex="1" parent="1">
          <mxGeometry x="880" y="160" width="600" height="680" as="geometry" />
        </mxCell>
        <mxCell id="EKHix6JRG0I5_opqSx7Z-3" value="синемаграфы" style="rounded=0;whiteSpace=wrap;html=1;" vertex="1" parent="1">
          <mxGeometry x="880" y="160" width="600" height="60" as="geometry" />
        </mxCell>
        <mxCell id="EKHix6JRG0I5_opqSx7Z-4" value="" style="rounded=0;whiteSpace=wrap;html=1;" vertex="1" parent="1">
          <mxGeometry x="880" y="220" width="600" height="40" as="geometry" />
        </mxCell>
        <mxCell id="EKHix6JRG0I5_opqSx7Z-5" value="кулинарные статьи" style="rounded=0;whiteSpace=wrap;html=1;" vertex="1" parent="1">
          <mxGeometry x="880" y="220" width="90" height="40" as="geometry" />
        </mxCell>
        <mxCell id="EKHix6JRG0I5_opqSx7Z-6" value="новости" style="rounded=0;whiteSpace=wrap;html=1;" vertex="1" parent="1">
          <mxGeometry x="970" y="220" width="90" height="40" as="geometry" />
        </mxCell>
        <mxCell id="EKHix6JRG0I5_opqSx7Z-7" value="регистрация и вход" style="rounded=0;whiteSpace=wrap;html=1;" vertex="1" parent="1">
          <mxGeometry x="1370" y="220" width="110" height="40" as="geometry" />
        </mxCell>
        <mxCell id="EKHix6JRG0I5_opqSx7Z-8" value="личный кабинет" style="rounded=0;whiteSpace=wrap;html=1;" vertex="1" parent="1">
          <mxGeometry x="1300" y="220" width="70" height="40" as="geometry" />
        </mxCell>
        <mxCell id="EKHix6JRG0I5_opqSx7Z-9" value="избранное" style="rounded=0;whiteSpace=wrap;html=1;" vertex="1" parent="1">
          <mxGeometry x="1230" y="220" width="70" height="40" as="geometry" />
        </mxCell>
        <mxCell id="EKHix6JRG0I5_opqSx7Z-10" value="подписки" style="rounded=0;whiteSpace=wrap;html=1;" vertex="1" parent="1">
          <mxGeometry x="1060" y="220" width="90" height="40" as="geometry" />
        </mxCell>
        <mxCell id="EKHix6JRG0I5_opqSx7Z-11" value="контактная информация" style="rounded=0;whiteSpace=wrap;html=1;" vertex="1" parent="1">
          <mxGeometry x="880" y="790" width="600" height="50" as="geometry" />
        </mxCell>
        <mxCell id="EKHix6JRG0I5_opqSx7Z-12" value="" style="rounded=0;whiteSpace=wrap;html=1;" vertex="1" parent="1">
          <mxGeometry x="1040" y="260" width="280" height="530" as="geometry" />
        </mxCell>
        <mxCell id="EKHix6JRG0I5_opqSx7Z-13" value="изменить аватар" style="rounded=0;whiteSpace=wrap;html=1;" vertex="1" parent="1">
          <mxGeometry x="1040" y="260" width="280" height="20" as="geometry" />
        </mxCell>
        <mxCell id="EKHix6JRG0I5_opqSx7Z-14" value="текстовое поле" style="rounded=0;whiteSpace=wrap;html=1;" vertex="1" parent="1">
          <mxGeometry x="1040" y="280" width="280" height="50" as="geometry" />
        </mxCell>
        <mxCell id="EKHix6JRG0I5_opqSx7Z-15" value="выбрать файл" style="rounded=0;whiteSpace=wrap;html=1;" vertex="1" parent="1">
          <mxGeometry x="1100" y="340" width="160" height="30" as="geometry" />
        </mxCell>
        <mxCell id="EKHix6JRG0I5_opqSx7Z-16" value="" style="rounded=0;whiteSpace=wrap;html=1;" vertex="1" parent="1">
          <mxGeometry x="1560" y="160" width="600" height="680" as="geometry" />
        </mxCell>
        <mxCell id="EKHix6JRG0I5_opqSx7Z-17" value="синемаграфы" style="rounded=0;whiteSpace=wrap;html=1;" vertex="1" parent="1">
          <mxGeometry x="1560" y="160" width="600" height="60" as="geometry" />
        </mxCell>
        <mxCell id="EKHix6JRG0I5_opqSx7Z-18" value="" style="rounded=0;whiteSpace=wrap;html=1;" vertex="1" parent="1">
          <mxGeometry x="1560" y="220" width="600" height="40" as="geometry" />
        </mxCell>
        <mxCell id="EKHix6JRG0I5_opqSx7Z-19" value="кулинарные статьи" style="rounded=0;whiteSpace=wrap;html=1;" vertex="1" parent="1">
          <mxGeometry x="1560" y="220" width="90" height="40" as="geometry" />
        </mxCell>
        <mxCell id="EKHix6JRG0I5_opqSx7Z-20" value="новости" style="rounded=0;whiteSpace=wrap;html=1;" vertex="1" parent="1">
          <mxGeometry x="1650" y="220" width="90" height="40" as="geometry" />
        </mxCell>
        <mxCell id="EKHix6JRG0I5_opqSx7Z-21" value="регистрация и вход" style="rounded=0;whiteSpace=wrap;html=1;" vertex="1" parent="1">
          <mxGeometry x="2050" y="220" width="110" height="40" as="geometry" />
        </mxCell>
        <mxCell id="EKHix6JRG0I5_opqSx7Z-22" value="личный кабинет" style="rounded=0;whiteSpace=wrap;html=1;" vertex="1" parent="1">
          <mxGeometry x="1980" y="220" width="70" height="40" as="geometry" />
        </mxCell>
        <mxCell id="EKHix6JRG0I5_opqSx7Z-23" value="избранное" style="rounded=0;whiteSpace=wrap;html=1;" vertex="1" parent="1">
          <mxGeometry x="1910" y="220" width="70" height="40" as="geometry" />
        </mxCell>
        <mxCell id="EKHix6JRG0I5_opqSx7Z-24" value="подписки" style="rounded=0;whiteSpace=wrap;html=1;" vertex="1" parent="1">
          <mxGeometry x="1740" y="220" width="90" height="40" as="geometry" />
        </mxCell>
        <mxCell id="EKHix6JRG0I5_opqSx7Z-25" value="контактная информация" style="rounded=0;whiteSpace=wrap;html=1;" vertex="1" parent="1">
          <mxGeometry x="1560" y="790" width="600" height="50" as="geometry" />
        </mxCell>
        <mxCell id="EKHix6JRG0I5_opqSx7Z-26" value="" style="rounded=0;whiteSpace=wrap;html=1;" vertex="1" parent="1">
          <mxGeometry x="1720" y="260" width="280" height="530" as="geometry" />
        </mxCell>
        <mxCell id="EKHix6JRG0I5_opqSx7Z-27" value="изменить миниатюру" style="rounded=0;whiteSpace=wrap;html=1;" vertex="1" parent="1">
          <mxGeometry x="1720" y="260" width="280" height="20" as="geometry" />
        </mxCell>
        <mxCell id="EKHix6JRG0I5_opqSx7Z-30" value="" style="rounded=0;whiteSpace=wrap;html=1;" vertex="1" parent="1">
          <mxGeometry x="1730" y="290" width="120" height="120" as="geometry" />
        </mxCell>
        <mxCell id="EKHix6JRG0I5_opqSx7Z-31" value="" style="rounded=0;whiteSpace=wrap;html=1;" vertex="1" parent="1">
          <mxGeometry x="1860" y="290" width="50" height="50" as="geometry" />
        </mxCell>
        <mxCell id="EKHix6JRG0I5_opqSx7Z-32" value="" style="rounded=0;whiteSpace=wrap;html=1;" vertex="1" parent="1">
          <mxGeometry x="1860" y="350" width="30" height="30" as="geometry" />
        </mxCell>
        <mxCell id="EKHix6JRG0I5_opqSx7Z-34" value="сохранить изменения" style="rounded=0;whiteSpace=wrap;html=1;" vertex="1" parent="1">
          <mxGeometry x="1780" y="420" width="160" height="30" as="geometry" />
        </mxCell>
        <mxCell id="EKHix6JRG0I5_opqSx7Z-35" value="" style="rounded=0;whiteSpace=wrap;html=1;" vertex="1" parent="1">
          <mxGeometry x="2240" y="160" width="600" height="680" as="geometry" />
        </mxCell>
        <mxCell id="EKHix6JRG0I5_opqSx7Z-36" value="синемаграфы" style="rounded=0;whiteSpace=wrap;html=1;" vertex="1" parent="1">
          <mxGeometry x="2240" y="160" width="600" height="60" as="geometry" />
        </mxCell>
        <mxCell id="EKHix6JRG0I5_opqSx7Z-37" value="" style="rounded=0;whiteSpace=wrap;html=1;" vertex="1" parent="1">
          <mxGeometry x="2240" y="220" width="600" height="40" as="geometry" />
        </mxCell>
        <mxCell id="EKHix6JRG0I5_opqSx7Z-38" value="кулинарные статьи" style="rounded=0;whiteSpace=wrap;html=1;" vertex="1" parent="1">
          <mxGeometry x="2240" y="220" width="90" height="40" as="geometry" />
        </mxCell>
        <mxCell id="EKHix6JRG0I5_opqSx7Z-39" value="новости" style="rounded=0;whiteSpace=wrap;html=1;" vertex="1" parent="1">
          <mxGeometry x="2330" y="220" width="90" height="40" as="geometry" />
        </mxCell>
        <mxCell id="EKHix6JRG0I5_opqSx7Z-40" value="регистрация и вход" style="rounded=0;whiteSpace=wrap;html=1;" vertex="1" parent="1">
          <mxGeometry x="2730" y="220" width="110" height="40" as="geometry" />
        </mxCell>
        <mxCell id="EKHix6JRG0I5_opqSx7Z-41" value="личный кабинет" style="rounded=0;whiteSpace=wrap;html=1;" vertex="1" parent="1">
          <mxGeometry x="2660" y="220" width="70" height="40" as="geometry" />
        </mxCell>
        <mxCell id="EKHix6JRG0I5_opqSx7Z-42" value="избранное" style="rounded=0;whiteSpace=wrap;html=1;" vertex="1" parent="1">
          <mxGeometry x="2590" y="220" width="70" height="40" as="geometry" />
        </mxCell>
        <mxCell id="EKHix6JRG0I5_opqSx7Z-43" value="подписки" style="rounded=0;whiteSpace=wrap;html=1;" vertex="1" parent="1">
          <mxGeometry x="2420" y="220" width="90" height="40" as="geometry" />
        </mxCell>
        <mxCell id="EKHix6JRG0I5_opqSx7Z-44" value="контактная информация" style="rounded=0;whiteSpace=wrap;html=1;" vertex="1" parent="1">
          <mxGeometry x="2240" y="790" width="600" height="50" as="geometry" />
        </mxCell>
        <mxCell id="EKHix6JRG0I5_opqSx7Z-45" value="" style="rounded=0;whiteSpace=wrap;html=1;" vertex="1" parent="1">
          <mxGeometry x="2400" y="260" width="280" height="530" as="geometry" />
        </mxCell>
        <mxCell id="EKHix6JRG0I5_opqSx7Z-46" value="изменить логин и пароль" style="rounded=0;whiteSpace=wrap;html=1;" vertex="1" parent="1">
          <mxGeometry x="2400" y="260" width="280" height="20" as="geometry" />
        </mxCell>
        <mxCell id="EKHix6JRG0I5_opqSx7Z-47" value="изменить логин" style="rounded=0;whiteSpace=wrap;html=1;" vertex="1" parent="1">
          <mxGeometry x="2400" y="380" width="280" height="50" as="geometry" />
        </mxCell>
        <mxCell id="EKHix6JRG0I5_opqSx7Z-49" value="изменить пароль" style="rounded=0;whiteSpace=wrap;html=1;" vertex="1" parent="1">
          <mxGeometry x="2400" y="330" width="280" height="50" as="geometry" />
        </mxCell>
        <mxCell id="EKHix6JRG0I5_opqSx7Z-51" value="" style="rounded=0;whiteSpace=wrap;html=1;" vertex="1" parent="1">
          <mxGeometry x="2920" y="160" width="600" height="680" as="geometry" />
        </mxCell>
        <mxCell id="EKHix6JRG0I5_opqSx7Z-52" value="синемаграфы" style="rounded=0;whiteSpace=wrap;html=1;" vertex="1" parent="1">
          <mxGeometry x="2920" y="160" width="600" height="60" as="geometry" />
        </mxCell>
        <mxCell id="EKHix6JRG0I5_opqSx7Z-53" value="" style="rounded=0;whiteSpace=wrap;html=1;" vertex="1" parent="1">
          <mxGeometry x="2920" y="220" width="600" height="40" as="geometry" />
        </mxCell>
        <mxCell id="EKHix6JRG0I5_opqSx7Z-54" value="кулинарные статьи" style="rounded=0;whiteSpace=wrap;html=1;" vertex="1" parent="1">
          <mxGeometry x="2920" y="220" width="90" height="40" as="geometry" />
        </mxCell>
        <mxCell id="EKHix6JRG0I5_opqSx7Z-55" value="новости" style="rounded=0;whiteSpace=wrap;html=1;" vertex="1" parent="1">
          <mxGeometry x="3010" y="220" width="90" height="40" as="geometry" />
        </mxCell>
        <mxCell id="EKHix6JRG0I5_opqSx7Z-56" value="регистрация и вход" style="rounded=0;whiteSpace=wrap;html=1;" vertex="1" parent="1">
          <mxGeometry x="3410" y="220" width="110" height="40" as="geometry" />
        </mxCell>
        <mxCell id="EKHix6JRG0I5_opqSx7Z-57" value="личный кабинет" style="rounded=0;whiteSpace=wrap;html=1;" vertex="1" parent="1">
          <mxGeometry x="3340" y="220" width="70" height="40" as="geometry" />
        </mxCell>
        <mxCell id="EKHix6JRG0I5_opqSx7Z-58" value="избранное" style="rounded=0;whiteSpace=wrap;html=1;" vertex="1" parent="1">
          <mxGeometry x="3270" y="220" width="70" height="40" as="geometry" />
        </mxCell>
        <mxCell id="EKHix6JRG0I5_opqSx7Z-59" value="подписки" style="rounded=0;whiteSpace=wrap;html=1;" vertex="1" parent="1">
          <mxGeometry x="3100" y="220" width="90" height="40" as="geometry" />
        </mxCell>
        <mxCell id="EKHix6JRG0I5_opqSx7Z-60" value="контактная информация" style="rounded=0;whiteSpace=wrap;html=1;" vertex="1" parent="1">
          <mxGeometry x="2920" y="790" width="600" height="50" as="geometry" />
        </mxCell>
        <mxCell id="EKHix6JRG0I5_opqSx7Z-61" value="" style="rounded=0;whiteSpace=wrap;html=1;" vertex="1" parent="1">
          <mxGeometry x="3080" y="260" width="280" height="530" as="geometry" />
        </mxCell>
        <mxCell id="EKHix6JRG0I5_opqSx7Z-62" value="изменить логин" style="rounded=0;whiteSpace=wrap;html=1;" vertex="1" parent="1">
          <mxGeometry x="3080" y="260" width="280" height="20" as="geometry" />
        </mxCell>
        <mxCell id="EKHix6JRG0I5_opqSx7Z-65" value="введите новый логин" style="rounded=0;whiteSpace=wrap;html=1;" vertex="1" parent="1">
          <mxGeometry x="3080" y="330" width="280" height="50" as="geometry" />
        </mxCell>
        <mxCell id="EKHix6JRG0I5_opqSx7Z-66" value="введите пароль" style="rounded=0;whiteSpace=wrap;html=1;" vertex="1" parent="1">
          <mxGeometry x="3080" y="380" width="280" height="50" as="geometry" />
        </mxCell>
        <mxCell id="EKHix6JRG0I5_opqSx7Z-67" value="сохранить изменения" style="rounded=0;whiteSpace=wrap;html=1;" vertex="1" parent="1">
          <mxGeometry x="3140" y="440" width="160" height="30" as="geometry" />
        </mxCell>
        <mxCell id="EKHix6JRG0I5_opqSx7Z-68" value="" style="rounded=0;whiteSpace=wrap;html=1;" vertex="1" parent="1">
          <mxGeometry x="3600" y="160" width="600" height="680" as="geometry" />
        </mxCell>
        <mxCell id="EKHix6JRG0I5_opqSx7Z-69" value="синемаграфы" style="rounded=0;whiteSpace=wrap;html=1;" vertex="1" parent="1">
          <mxGeometry x="3600" y="160" width="600" height="60" as="geometry" />
        </mxCell>
        <mxCell id="EKHix6JRG0I5_opqSx7Z-70" value="" style="rounded=0;whiteSpace=wrap;html=1;" vertex="1" parent="1">
          <mxGeometry x="3600" y="220" width="600" height="40" as="geometry" />
        </mxCell>
        <mxCell id="EKHix6JRG0I5_opqSx7Z-71" value="кулинарные статьи" style="rounded=0;whiteSpace=wrap;html=1;" vertex="1" parent="1">
          <mxGeometry x="3600" y="220" width="90" height="40" as="geometry" />
        </mxCell>
        <mxCell id="EKHix6JRG0I5_opqSx7Z-72" value="новости" style="rounded=0;whiteSpace=wrap;html=1;" vertex="1" parent="1">
          <mxGeometry x="3690" y="220" width="90" height="40" as="geometry" />
        </mxCell>
        <mxCell id="EKHix6JRG0I5_opqSx7Z-73" value="регистрация и вход" style="rounded=0;whiteSpace=wrap;html=1;" vertex="1" parent="1">
          <mxGeometry x="4090" y="220" width="110" height="40" as="geometry" />
        </mxCell>
        <mxCell id="EKHix6JRG0I5_opqSx7Z-74" value="личный кабинет" style="rounded=0;whiteSpace=wrap;html=1;" vertex="1" parent="1">
          <mxGeometry x="4020" y="220" width="70" height="40" as="geometry" />
        </mxCell>
        <mxCell id="EKHix6JRG0I5_opqSx7Z-75" value="избранное" style="rounded=0;whiteSpace=wrap;html=1;" vertex="1" parent="1">
          <mxGeometry x="3950" y="220" width="70" height="40" as="geometry" />
        </mxCell>
        <mxCell id="EKHix6JRG0I5_opqSx7Z-76" value="подписки" style="rounded=0;whiteSpace=wrap;html=1;" vertex="1" parent="1">
          <mxGeometry x="3780" y="220" width="90" height="40" as="geometry" />
        </mxCell>
        <mxCell id="EKHix6JRG0I5_opqSx7Z-77" value="контактная информация" style="rounded=0;whiteSpace=wrap;html=1;" vertex="1" parent="1">
          <mxGeometry x="3600" y="790" width="600" height="50" as="geometry" />
        </mxCell>
        <mxCell id="EKHix6JRG0I5_opqSx7Z-78" value="" style="rounded=0;whiteSpace=wrap;html=1;" vertex="1" parent="1">
          <mxGeometry x="3760" y="260" width="280" height="530" as="geometry" />
        </mxCell>
        <mxCell id="EKHix6JRG0I5_opqSx7Z-79" value="изменить пароль" style="rounded=0;whiteSpace=wrap;html=1;" vertex="1" parent="1">
          <mxGeometry x="3760" y="260" width="280" height="20" as="geometry" />
        </mxCell>
        <mxCell id="EKHix6JRG0I5_opqSx7Z-80" value="введите новый пароль" style="rounded=0;whiteSpace=wrap;html=1;" vertex="1" parent="1">
          <mxGeometry x="3760" y="330" width="280" height="50" as="geometry" />
        </mxCell>
        <mxCell id="EKHix6JRG0I5_opqSx7Z-81" value="введите старый пароль" style="rounded=0;whiteSpace=wrap;html=1;" vertex="1" parent="1">
          <mxGeometry x="3760" y="380" width="280" height="50" as="geometry" />
        </mxCell>
        <mxCell id="EKHix6JRG0I5_opqSx7Z-82" value="сохранить изменения" style="rounded=0;whiteSpace=wrap;html=1;" vertex="1" parent="1">
          <mxGeometry x="3820" y="440" width="160" height="30" as="geometry" />
        </mxCell>
        <mxCell id="EKHix6JRG0I5_opqSx7Z-83" value="" style="rounded=0;whiteSpace=wrap;html=1;" vertex="1" parent="1">
          <mxGeometry x="4280" y="160" width="600" height="680" as="geometry" />
        </mxCell>
        <mxCell id="EKHix6JRG0I5_opqSx7Z-84" value="синемаграфы" style="rounded=0;whiteSpace=wrap;html=1;" vertex="1" parent="1">
          <mxGeometry x="4280" y="160" width="600" height="60" as="geometry" />
        </mxCell>
        <mxCell id="EKHix6JRG0I5_opqSx7Z-85" value="" style="rounded=0;whiteSpace=wrap;html=1;" vertex="1" parent="1">
          <mxGeometry x="4280" y="220" width="600" height="40" as="geometry" />
        </mxCell>
        <mxCell id="EKHix6JRG0I5_opqSx7Z-86" value="кулинарные статьи" style="rounded=0;whiteSpace=wrap;html=1;" vertex="1" parent="1">
          <mxGeometry x="4280" y="220" width="90" height="40" as="geometry" />
        </mxCell>
        <mxCell id="EKHix6JRG0I5_opqSx7Z-87" value="новости" style="rounded=0;whiteSpace=wrap;html=1;" vertex="1" parent="1">
          <mxGeometry x="4370" y="220" width="90" height="40" as="geometry" />
        </mxCell>
        <mxCell id="EKHix6JRG0I5_opqSx7Z-88" value="регистрация и вход" style="rounded=0;whiteSpace=wrap;html=1;" vertex="1" parent="1">
          <mxGeometry x="4770" y="220" width="110" height="40" as="geometry" />
        </mxCell>
        <mxCell id="EKHix6JRG0I5_opqSx7Z-89" value="личный кабинет" style="rounded=0;whiteSpace=wrap;html=1;" vertex="1" parent="1">
          <mxGeometry x="4700" y="220" width="70" height="40" as="geometry" />
        </mxCell>
        <mxCell id="EKHix6JRG0I5_opqSx7Z-90" value="избранное" style="rounded=0;whiteSpace=wrap;html=1;" vertex="1" parent="1">
          <mxGeometry x="4630" y="220" width="70" height="40" as="geometry" />
        </mxCell>
        <mxCell id="EKHix6JRG0I5_opqSx7Z-91" value="подписки" style="rounded=0;whiteSpace=wrap;html=1;" vertex="1" parent="1">
          <mxGeometry x="4460" y="220" width="90" height="40" as="geometry" />
        </mxCell>
        <mxCell id="EKHix6JRG0I5_opqSx7Z-92" value="контактная информация" style="rounded=0;whiteSpace=wrap;html=1;" vertex="1" parent="1">
          <mxGeometry x="4280" y="790" width="600" height="50" as="geometry" />
        </mxCell>
        <mxCell id="EKHix6JRG0I5_opqSx7Z-93" value="" style="rounded=0;whiteSpace=wrap;html=1;" vertex="1" parent="1">
          <mxGeometry x="4440" y="260" width="280" height="530" as="geometry" />
        </mxCell>
        <mxCell id="EKHix6JRG0I5_opqSx7Z-94" value="изменить никнейм" style="rounded=0;whiteSpace=wrap;html=1;" vertex="1" parent="1">
          <mxGeometry x="4440" y="260" width="280" height="20" as="geometry" />
        </mxCell>
        <mxCell id="EKHix6JRG0I5_opqSx7Z-95" value="введите новый никнейм" style="rounded=0;whiteSpace=wrap;html=1;" vertex="1" parent="1">
          <mxGeometry x="4440" y="330" width="280" height="50" as="geometry" />
        </mxCell>
        <mxCell id="EKHix6JRG0I5_opqSx7Z-96" value="введите пароль" style="rounded=0;whiteSpace=wrap;html=1;" vertex="1" parent="1">
          <mxGeometry x="4440" y="380" width="280" height="50" as="geometry" />
        </mxCell>
        <mxCell id="EKHix6JRG0I5_opqSx7Z-97" value="сохранить изменения" style="rounded=0;whiteSpace=wrap;html=1;" vertex="1" parent="1">
          <mxGeometry x="4500" y="440" width="160" height="30" as="geometry" />
        </mxCell>
        <mxCell id="EKHix6JRG0I5_opqSx7Z-101" value="кулинарные статьи" style="rounded=0;whiteSpace=wrap;html=1;" vertex="1" parent="1">
          <mxGeometry x="4961" y="220" width="90" height="40" as="geometry" />
        </mxCell>
        <mxCell id="EKHix6JRG0I5_opqSx7Z-102" value="новости" style="rounded=0;whiteSpace=wrap;html=1;" vertex="1" parent="1">
          <mxGeometry x="5051" y="220" width="90" height="40" as="geometry" />
        </mxCell>
        <mxCell id="EKHix6JRG0I5_opqSx7Z-104" value="личный кабинет" style="rounded=0;whiteSpace=wrap;html=1;" vertex="1" parent="1">
          <mxGeometry x="5381" y="220" width="70" height="40" as="geometry" />
        </mxCell>
        <mxCell id="EKHix6JRG0I5_opqSx7Z-105" value="избранное" style="rounded=0;whiteSpace=wrap;html=1;" vertex="1" parent="1">
          <mxGeometry x="5311" y="220" width="70" height="40" as="geometry" />
        </mxCell>
        <mxCell id="EKHix6JRG0I5_opqSx7Z-106" value="подписки" style="rounded=0;whiteSpace=wrap;html=1;" vertex="1" parent="1">
          <mxGeometry x="5141" y="220" width="90" height="40" as="geometry" />
        </mxCell>
        <mxCell id="EKHix6JRG0I5_opqSx7Z-108" value="" style="rounded=0;whiteSpace=wrap;html=1;" vertex="1" parent="1">
          <mxGeometry x="5121" y="260" width="280" height="530" as="geometry" />
        </mxCell>
        <mxCell id="EKHix6JRG0I5_opqSx7Z-114" value="" style="rounded=0;whiteSpace=wrap;html=1;" vertex="1" parent="1">
          <mxGeometry x="4921" y="260" width="598" height="60" as="geometry" />
        </mxCell>
        <mxCell id="EKHix6JRG0I5_opqSx7Z-115" value="" style="rounded=0;whiteSpace=wrap;html=1;" vertex="1" parent="1">
          <mxGeometry x="4920" y="160" width="600" height="680" as="geometry" />
        </mxCell>
        <mxCell id="EKHix6JRG0I5_opqSx7Z-116" value="синемаграфы" style="rounded=0;whiteSpace=wrap;html=1;" vertex="1" parent="1">
          <mxGeometry x="4920" y="160" width="600" height="60" as="geometry" />
        </mxCell>
        <mxCell id="EKHix6JRG0I5_opqSx7Z-117" value="" style="rounded=0;whiteSpace=wrap;html=1;" vertex="1" parent="1">
          <mxGeometry x="4920" y="220" width="600" height="40" as="geometry" />
        </mxCell>
        <mxCell id="EKHix6JRG0I5_opqSx7Z-118" value="кулинарные статьи" style="rounded=0;whiteSpace=wrap;html=1;" vertex="1" parent="1">
          <mxGeometry x="4920" y="220" width="90" height="40" as="geometry" />
        </mxCell>
        <mxCell id="EKHix6JRG0I5_opqSx7Z-119" value="новости" style="rounded=0;whiteSpace=wrap;html=1;" vertex="1" parent="1">
          <mxGeometry x="5010" y="220" width="90" height="40" as="geometry" />
        </mxCell>
        <mxCell id="EKHix6JRG0I5_opqSx7Z-120" value="регистрация и вход" style="rounded=0;whiteSpace=wrap;html=1;" vertex="1" parent="1">
          <mxGeometry x="5410" y="220" width="110" height="40" as="geometry" />
        </mxCell>
        <mxCell id="EKHix6JRG0I5_opqSx7Z-121" value="личный кабинет" style="rounded=0;whiteSpace=wrap;html=1;" vertex="1" parent="1">
          <mxGeometry x="5340" y="220" width="70" height="40" as="geometry" />
        </mxCell>
        <mxCell id="EKHix6JRG0I5_opqSx7Z-122" value="избранное" style="rounded=0;whiteSpace=wrap;html=1;" vertex="1" parent="1">
          <mxGeometry x="5270" y="220" width="70" height="40" as="geometry" />
        </mxCell>
        <mxCell id="EKHix6JRG0I5_opqSx7Z-123" value="подписки" style="rounded=0;whiteSpace=wrap;html=1;" vertex="1" parent="1">
          <mxGeometry x="5100" y="220" width="90" height="40" as="geometry" />
        </mxCell>
        <mxCell id="EKHix6JRG0I5_opqSx7Z-124" value="контактная информация" style="rounded=0;whiteSpace=wrap;html=1;" vertex="1" parent="1">
          <mxGeometry x="4920" y="790" width="600" height="50" as="geometry" />
        </mxCell>
        <mxCell id="EKHix6JRG0I5_opqSx7Z-125" value="" style="rounded=0;whiteSpace=wrap;html=1;" vertex="1" parent="1">
          <mxGeometry x="5080" y="260" width="280" height="530" as="geometry" />
        </mxCell>
        <mxCell id="EKHix6JRG0I5_opqSx7Z-126" value="подписки" style="rounded=0;whiteSpace=wrap;html=1;" vertex="1" parent="1">
          <mxGeometry x="4920" y="260" width="600" height="60" as="geometry" />
        </mxCell>
        <mxCell id="EKHix6JRG0I5_opqSx7Z-127" value="популярные авторы" style="rounded=0;whiteSpace=wrap;html=1;" vertex="1" parent="1">
          <mxGeometry x="5160" y="300" width="120" height="20" as="geometry" />
        </mxCell>
        <mxCell id="EKHix6JRG0I5_opqSx7Z-128" value="" style="rounded=0;whiteSpace=wrap;html=1;" vertex="1" parent="1">
          <mxGeometry x="5080" y="332.5" width="280" height="65" as="geometry" />
        </mxCell>
        <mxCell id="EKHix6JRG0I5_opqSx7Z-129" value="" style="rounded=0;whiteSpace=wrap;html=1;" vertex="1" parent="1">
          <mxGeometry x="5080" y="397.5" width="280" height="65" as="geometry" />
        </mxCell>
        <mxCell id="EKHix6JRG0I5_opqSx7Z-130" value="" style="rounded=0;whiteSpace=wrap;html=1;" vertex="1" parent="1">
          <mxGeometry x="5080" y="462.5" width="280" height="65" as="geometry" />
        </mxCell>
        <mxCell id="EKHix6JRG0I5_opqSx7Z-131" value="" style="rounded=0;whiteSpace=wrap;html=1;" vertex="1" parent="1">
          <mxGeometry x="5080" y="527.5" width="280" height="65" as="geometry" />
        </mxCell>
        <mxCell id="EKHix6JRG0I5_opqSx7Z-132" value="" style="rounded=0;whiteSpace=wrap;html=1;" vertex="1" parent="1">
          <mxGeometry x="5080" y="592.5" width="280" height="65" as="geometry" />
        </mxCell>
        <mxCell id="EKHix6JRG0I5_opqSx7Z-133" value="" style="rounded=0;whiteSpace=wrap;html=1;" vertex="1" parent="1">
          <mxGeometry x="5080" y="657.5" width="280" height="65" as="geometry" />
        </mxCell>
        <mxCell id="EKHix6JRG0I5_opqSx7Z-134" value="" style="rounded=0;whiteSpace=wrap;html=1;" vertex="1" parent="1">
          <mxGeometry x="5080" y="722.5" width="280" height="65" as="geometry" />
        </mxCell>
        <mxCell id="EKHix6JRG0I5_opqSx7Z-135" value="" style="rounded=0;whiteSpace=wrap;html=1;" vertex="1" parent="1">
          <mxGeometry x="5500" y="320" width="19" height="470" as="geometry" />
        </mxCell>
        <mxCell id="EKHix6JRG0I5_opqSx7Z-136" value="" style="endArrow=classic;startArrow=classic;html=1;entryX=0.5;entryY=0;entryDx=0;entryDy=0;exitX=0.5;exitY=1;exitDx=0;exitDy=0;" edge="1" parent="1" source="EKHix6JRG0I5_opqSx7Z-135" target="EKHix6JRG0I5_opqSx7Z-135">
          <mxGeometry width="50" height="50" relative="1" as="geometry">
            <mxPoint x="5500" y="370" as="sourcePoint" />
            <mxPoint x="5550" y="320" as="targetPoint" />
          </mxGeometry>
        </mxCell>
        <mxCell id="EKHix6JRG0I5_opqSx7Z-137" value="картинка" style="rounded=0;whiteSpace=wrap;html=1;" vertex="1" parent="1">
          <mxGeometry x="5085" y="340" width="55" height="50" as="geometry" />
        </mxCell>
        <mxCell id="EKHix6JRG0I5_opqSx7Z-138" value="картинка" style="rounded=0;whiteSpace=wrap;html=1;" vertex="1" parent="1">
          <mxGeometry x="5085" y="405" width="55" height="50" as="geometry" />
        </mxCell>
        <mxCell id="EKHix6JRG0I5_opqSx7Z-139" value="картинка" style="rounded=0;whiteSpace=wrap;html=1;" vertex="1" parent="1">
          <mxGeometry x="5086" y="470" width="55" height="50" as="geometry" />
        </mxCell>
        <mxCell id="EKHix6JRG0I5_opqSx7Z-140" value="картинка" style="rounded=0;whiteSpace=wrap;html=1;" vertex="1" parent="1">
          <mxGeometry x="5086" y="535" width="55" height="50" as="geometry" />
        </mxCell>
        <mxCell id="EKHix6JRG0I5_opqSx7Z-141" value="картинка" style="rounded=0;whiteSpace=wrap;html=1;" vertex="1" parent="1">
          <mxGeometry x="5086" y="600" width="55" height="50" as="geometry" />
        </mxCell>
        <mxCell id="EKHix6JRG0I5_opqSx7Z-142" value="картинка" style="rounded=0;whiteSpace=wrap;html=1;" vertex="1" parent="1">
          <mxGeometry x="5086" y="665" width="55" height="50" as="geometry" />
        </mxCell>
        <mxCell id="EKHix6JRG0I5_opqSx7Z-143" value="картинка" style="rounded=0;whiteSpace=wrap;html=1;" vertex="1" parent="1">
          <mxGeometry x="5086" y="730" width="55" height="50" as="geometry" />
        </mxCell>
        <mxCell id="EKHix6JRG0I5_opqSx7Z-144" value="никнейм и описание" style="rounded=0;whiteSpace=wrap;html=1;" vertex="1" parent="1">
          <mxGeometry x="5150" y="340" width="200" height="50" as="geometry" />
        </mxCell>
        <mxCell id="EKHix6JRG0I5_opqSx7Z-145" value="никнейм и описание" style="rounded=0;whiteSpace=wrap;html=1;" vertex="1" parent="1">
          <mxGeometry x="5150" y="405" width="200" height="50" as="geometry" />
        </mxCell>
        <mxCell id="EKHix6JRG0I5_opqSx7Z-146" value="никнейм и описание" style="rounded=0;whiteSpace=wrap;html=1;" vertex="1" parent="1">
          <mxGeometry x="5150" y="470" width="200" height="50" as="geometry" />
        </mxCell>
        <mxCell id="EKHix6JRG0I5_opqSx7Z-147" value="никнейм и описание" style="rounded=0;whiteSpace=wrap;html=1;" vertex="1" parent="1">
          <mxGeometry x="5150" y="535" width="200" height="50" as="geometry" />
        </mxCell>
        <mxCell id="EKHix6JRG0I5_opqSx7Z-148" value="никнейм и описание" style="rounded=0;whiteSpace=wrap;html=1;" vertex="1" parent="1">
          <mxGeometry x="5150" y="600" width="200" height="50" as="geometry" />
        </mxCell>
        <mxCell id="EKHix6JRG0I5_opqSx7Z-149" value="никнейм и описание" style="rounded=0;whiteSpace=wrap;html=1;" vertex="1" parent="1">
          <mxGeometry x="5150" y="665" width="200" height="50" as="geometry" />
        </mxCell>
        <mxCell id="EKHix6JRG0I5_opqSx7Z-150" value="никнейм и описание" style="rounded=0;whiteSpace=wrap;html=1;" vertex="1" parent="1">
          <mxGeometry x="5150" y="730" width="200" height="50" as="geometry" />
        </mxCell>
        <mxCell id="EKHix6JRG0I5_opqSx7Z-151" value="мои подписки" style="rounded=0;whiteSpace=wrap;html=1;" vertex="1" parent="1">
          <mxGeometry x="5380" y="270" width="110" height="40" as="geometry" />
        </mxCell>
        <mxCell id="EKHix6JRG0I5_opqSx7Z-152" value="кулинарные статьи" style="rounded=0;whiteSpace=wrap;html=1;" vertex="1" parent="1">
          <mxGeometry x="4961" y="940" width="90" height="40" as="geometry" />
        </mxCell>
        <mxCell id="EKHix6JRG0I5_opqSx7Z-153" value="новости" style="rounded=0;whiteSpace=wrap;html=1;" vertex="1" parent="1">
          <mxGeometry x="5051" y="940" width="90" height="40" as="geometry" />
        </mxCell>
        <mxCell id="EKHix6JRG0I5_opqSx7Z-154" value="личный кабинет" style="rounded=0;whiteSpace=wrap;html=1;" vertex="1" parent="1">
          <mxGeometry x="5381" y="940" width="70" height="40" as="geometry" />
        </mxCell>
        <mxCell id="EKHix6JRG0I5_opqSx7Z-155" value="избранное" style="rounded=0;whiteSpace=wrap;html=1;" vertex="1" parent="1">
          <mxGeometry x="5311" y="940" width="70" height="40" as="geometry" />
        </mxCell>
        <mxCell id="EKHix6JRG0I5_opqSx7Z-156" value="подписки" style="rounded=0;whiteSpace=wrap;html=1;" vertex="1" parent="1">
          <mxGeometry x="5141" y="940" width="90" height="40" as="geometry" />
        </mxCell>
        <mxCell id="EKHix6JRG0I5_opqSx7Z-157" value="" style="rounded=0;whiteSpace=wrap;html=1;" vertex="1" parent="1">
          <mxGeometry x="5121" y="980" width="280" height="530" as="geometry" />
        </mxCell>
        <mxCell id="EKHix6JRG0I5_opqSx7Z-158" value="" style="rounded=0;whiteSpace=wrap;html=1;" vertex="1" parent="1">
          <mxGeometry x="4921" y="980" width="598" height="60" as="geometry" />
        </mxCell>
        <mxCell id="EKHix6JRG0I5_opqSx7Z-159" value="" style="rounded=0;whiteSpace=wrap;html=1;" vertex="1" parent="1">
          <mxGeometry x="4920" y="880" width="600" height="680" as="geometry" />
        </mxCell>
        <mxCell id="EKHix6JRG0I5_opqSx7Z-160" value="синемаграфы" style="rounded=0;whiteSpace=wrap;html=1;" vertex="1" parent="1">
          <mxGeometry x="4920" y="880" width="600" height="60" as="geometry" />
        </mxCell>
        <mxCell id="EKHix6JRG0I5_opqSx7Z-161" value="" style="rounded=0;whiteSpace=wrap;html=1;" vertex="1" parent="1">
          <mxGeometry x="4920" y="940" width="600" height="40" as="geometry" />
        </mxCell>
        <mxCell id="EKHix6JRG0I5_opqSx7Z-162" value="кулинарные статьи" style="rounded=0;whiteSpace=wrap;html=1;" vertex="1" parent="1">
          <mxGeometry x="4920" y="940" width="90" height="40" as="geometry" />
        </mxCell>
        <mxCell id="EKHix6JRG0I5_opqSx7Z-163" value="новости" style="rounded=0;whiteSpace=wrap;html=1;" vertex="1" parent="1">
          <mxGeometry x="5010" y="940" width="90" height="40" as="geometry" />
        </mxCell>
        <mxCell id="EKHix6JRG0I5_opqSx7Z-164" value="регистрация и вход" style="rounded=0;whiteSpace=wrap;html=1;" vertex="1" parent="1">
          <mxGeometry x="5410" y="940" width="110" height="40" as="geometry" />
        </mxCell>
        <mxCell id="EKHix6JRG0I5_opqSx7Z-165" value="личный кабинет" style="rounded=0;whiteSpace=wrap;html=1;" vertex="1" parent="1">
          <mxGeometry x="5340" y="940" width="70" height="40" as="geometry" />
        </mxCell>
        <mxCell id="EKHix6JRG0I5_opqSx7Z-166" value="избранное" style="rounded=0;whiteSpace=wrap;html=1;" vertex="1" parent="1">
          <mxGeometry x="5270" y="940" width="70" height="40" as="geometry" />
        </mxCell>
        <mxCell id="EKHix6JRG0I5_opqSx7Z-167" value="подписки" style="rounded=0;whiteSpace=wrap;html=1;" vertex="1" parent="1">
          <mxGeometry x="5100" y="940" width="90" height="40" as="geometry" />
        </mxCell>
        <mxCell id="EKHix6JRG0I5_opqSx7Z-168" value="контактная информация" style="rounded=0;whiteSpace=wrap;html=1;" vertex="1" parent="1">
          <mxGeometry x="4920" y="1510" width="600" height="50" as="geometry" />
        </mxCell>
        <mxCell id="EKHix6JRG0I5_opqSx7Z-169" value="" style="rounded=0;whiteSpace=wrap;html=1;" vertex="1" parent="1">
          <mxGeometry x="5080" y="980" width="280" height="530" as="geometry" />
        </mxCell>
        <mxCell id="EKHix6JRG0I5_opqSx7Z-170" value="мои подписки" style="rounded=0;whiteSpace=wrap;html=1;" vertex="1" parent="1">
          <mxGeometry x="4920" y="980" width="600" height="60" as="geometry" />
        </mxCell>
        <mxCell id="EKHix6JRG0I5_opqSx7Z-172" value="" style="rounded=0;whiteSpace=wrap;html=1;" vertex="1" parent="1">
          <mxGeometry x="5080" y="1052.5" width="280" height="65" as="geometry" />
        </mxCell>
        <mxCell id="EKHix6JRG0I5_opqSx7Z-173" value="" style="rounded=0;whiteSpace=wrap;html=1;" vertex="1" parent="1">
          <mxGeometry x="5080" y="1117.5" width="280" height="65" as="geometry" />
        </mxCell>
        <mxCell id="EKHix6JRG0I5_opqSx7Z-174" value="" style="rounded=0;whiteSpace=wrap;html=1;" vertex="1" parent="1">
          <mxGeometry x="5080" y="1182.5" width="280" height="65" as="geometry" />
        </mxCell>
        <mxCell id="EKHix6JRG0I5_opqSx7Z-175" value="" style="rounded=0;whiteSpace=wrap;html=1;" vertex="1" parent="1">
          <mxGeometry x="5080" y="1247.5" width="280" height="65" as="geometry" />
        </mxCell>
        <mxCell id="EKHix6JRG0I5_opqSx7Z-176" value="" style="rounded=0;whiteSpace=wrap;html=1;" vertex="1" parent="1">
          <mxGeometry x="5080" y="1312.5" width="280" height="65" as="geometry" />
        </mxCell>
        <mxCell id="EKHix6JRG0I5_opqSx7Z-177" value="" style="rounded=0;whiteSpace=wrap;html=1;" vertex="1" parent="1">
          <mxGeometry x="5080" y="1377.5" width="280" height="65" as="geometry" />
        </mxCell>
        <mxCell id="EKHix6JRG0I5_opqSx7Z-178" value="" style="rounded=0;whiteSpace=wrap;html=1;" vertex="1" parent="1">
          <mxGeometry x="5080" y="1442.5" width="280" height="65" as="geometry" />
        </mxCell>
        <mxCell id="EKHix6JRG0I5_opqSx7Z-179" value="" style="rounded=0;whiteSpace=wrap;html=1;" vertex="1" parent="1">
          <mxGeometry x="5500" y="1040" width="19" height="470" as="geometry" />
        </mxCell>
        <mxCell id="EKHix6JRG0I5_opqSx7Z-180" value="" style="endArrow=classic;startArrow=classic;html=1;entryX=0.5;entryY=0;entryDx=0;entryDy=0;exitX=0.5;exitY=1;exitDx=0;exitDy=0;" edge="1" parent="1" source="EKHix6JRG0I5_opqSx7Z-179" target="EKHix6JRG0I5_opqSx7Z-179">
          <mxGeometry width="50" height="50" relative="1" as="geometry">
            <mxPoint x="5500" y="1090" as="sourcePoint" />
            <mxPoint x="5550" y="1040" as="targetPoint" />
          </mxGeometry>
        </mxCell>
        <mxCell id="EKHix6JRG0I5_opqSx7Z-181" value="картинка" style="rounded=0;whiteSpace=wrap;html=1;" vertex="1" parent="1">
          <mxGeometry x="5085" y="1060" width="55" height="50" as="geometry" />
        </mxCell>
        <mxCell id="EKHix6JRG0I5_opqSx7Z-182" value="картинка" style="rounded=0;whiteSpace=wrap;html=1;" vertex="1" parent="1">
          <mxGeometry x="5085" y="1125" width="55" height="50" as="geometry" />
        </mxCell>
        <mxCell id="EKHix6JRG0I5_opqSx7Z-183" value="картинка" style="rounded=0;whiteSpace=wrap;html=1;" vertex="1" parent="1">
          <mxGeometry x="5086" y="1190" width="55" height="50" as="geometry" />
        </mxCell>
        <mxCell id="EKHix6JRG0I5_opqSx7Z-184" value="картинка" style="rounded=0;whiteSpace=wrap;html=1;" vertex="1" parent="1">
          <mxGeometry x="5086" y="1255" width="55" height="50" as="geometry" />
        </mxCell>
        <mxCell id="EKHix6JRG0I5_opqSx7Z-185" value="картинка" style="rounded=0;whiteSpace=wrap;html=1;" vertex="1" parent="1">
          <mxGeometry x="5086" y="1320" width="55" height="50" as="geometry" />
        </mxCell>
        <mxCell id="EKHix6JRG0I5_opqSx7Z-186" value="картинка" style="rounded=0;whiteSpace=wrap;html=1;" vertex="1" parent="1">
          <mxGeometry x="5086" y="1385" width="55" height="50" as="geometry" />
        </mxCell>
        <mxCell id="EKHix6JRG0I5_opqSx7Z-187" value="картинка" style="rounded=0;whiteSpace=wrap;html=1;" vertex="1" parent="1">
          <mxGeometry x="5086" y="1450" width="55" height="50" as="geometry" />
        </mxCell>
        <mxCell id="EKHix6JRG0I5_opqSx7Z-188" value="никнейм и описание" style="rounded=0;whiteSpace=wrap;html=1;" vertex="1" parent="1">
          <mxGeometry x="5150" y="1060" width="200" height="50" as="geometry" />
        </mxCell>
        <mxCell id="EKHix6JRG0I5_opqSx7Z-189" value="никнейм и описание" style="rounded=0;whiteSpace=wrap;html=1;" vertex="1" parent="1">
          <mxGeometry x="5150" y="1125" width="200" height="50" as="geometry" />
        </mxCell>
        <mxCell id="EKHix6JRG0I5_opqSx7Z-190" value="никнейм и описание" style="rounded=0;whiteSpace=wrap;html=1;" vertex="1" parent="1">
          <mxGeometry x="5150" y="1190" width="200" height="50" as="geometry" />
        </mxCell>
        <mxCell id="EKHix6JRG0I5_opqSx7Z-191" value="никнейм и описание" style="rounded=0;whiteSpace=wrap;html=1;" vertex="1" parent="1">
          <mxGeometry x="5150" y="1255" width="200" height="50" as="geometry" />
        </mxCell>
        <mxCell id="EKHix6JRG0I5_opqSx7Z-192" value="никнейм и описание" style="rounded=0;whiteSpace=wrap;html=1;" vertex="1" parent="1">
          <mxGeometry x="5150" y="1320" width="200" height="50" as="geometry" />
        </mxCell>
        <mxCell id="EKHix6JRG0I5_opqSx7Z-193" value="никнейм и описание" style="rounded=0;whiteSpace=wrap;html=1;" vertex="1" parent="1">
          <mxGeometry x="5150" y="1385" width="200" height="50" as="geometry" />
        </mxCell>
        <mxCell id="EKHix6JRG0I5_opqSx7Z-194" value="никнейм и описание" style="rounded=0;whiteSpace=wrap;html=1;" vertex="1" parent="1">
          <mxGeometry x="5150" y="1450" width="200" height="50" as="geometry" />
        </mxCell>
        <mxCell id="EKHix6JRG0I5_opqSx7Z-195" value="сортировка" style="rounded=0;whiteSpace=wrap;html=1;" vertex="1" parent="1">
          <mxGeometry x="5380" y="990" width="110" height="40" as="geometry" />
        </mxCell>
        <mxCell id="EKHix6JRG0I5_opqSx7Z-196" value="кулинарные статьи" style="rounded=0;whiteSpace=wrap;html=1;" vertex="1" parent="1">
          <mxGeometry x="4321" y="940" width="90" height="40" as="geometry" />
        </mxCell>
        <mxCell id="EKHix6JRG0I5_opqSx7Z-197" value="новости" style="rounded=0;whiteSpace=wrap;html=1;" vertex="1" parent="1">
          <mxGeometry x="4411" y="940" width="90" height="40" as="geometry" />
        </mxCell>
        <mxCell id="EKHix6JRG0I5_opqSx7Z-198" value="личный кабинет" style="rounded=0;whiteSpace=wrap;html=1;" vertex="1" parent="1">
          <mxGeometry x="4741" y="940" width="70" height="40" as="geometry" />
        </mxCell>
        <mxCell id="EKHix6JRG0I5_opqSx7Z-199" value="избранное" style="rounded=0;whiteSpace=wrap;html=1;" vertex="1" parent="1">
          <mxGeometry x="4671" y="940" width="70" height="40" as="geometry" />
        </mxCell>
        <mxCell id="EKHix6JRG0I5_opqSx7Z-200" value="подписки" style="rounded=0;whiteSpace=wrap;html=1;" vertex="1" parent="1">
          <mxGeometry x="4501" y="940" width="90" height="40" as="geometry" />
        </mxCell>
        <mxCell id="EKHix6JRG0I5_opqSx7Z-201" value="" style="rounded=0;whiteSpace=wrap;html=1;" vertex="1" parent="1">
          <mxGeometry x="4481" y="980" width="280" height="530" as="geometry" />
        </mxCell>
        <mxCell id="EKHix6JRG0I5_opqSx7Z-202" value="" style="rounded=0;whiteSpace=wrap;html=1;" vertex="1" parent="1">
          <mxGeometry x="4281" y="980" width="598" height="60" as="geometry" />
        </mxCell>
        <mxCell id="EKHix6JRG0I5_opqSx7Z-203" value="" style="rounded=0;whiteSpace=wrap;html=1;" vertex="1" parent="1">
          <mxGeometry x="4280" y="880" width="600" height="680" as="geometry" />
        </mxCell>
        <mxCell id="EKHix6JRG0I5_opqSx7Z-204" value="синемаграфы" style="rounded=0;whiteSpace=wrap;html=1;" vertex="1" parent="1">
          <mxGeometry x="4280" y="880" width="600" height="60" as="geometry" />
        </mxCell>
        <mxCell id="EKHix6JRG0I5_opqSx7Z-205" value="" style="rounded=0;whiteSpace=wrap;html=1;" vertex="1" parent="1">
          <mxGeometry x="4280" y="940" width="600" height="40" as="geometry" />
        </mxCell>
        <mxCell id="EKHix6JRG0I5_opqSx7Z-206" value="кулинарные статьи" style="rounded=0;whiteSpace=wrap;html=1;" vertex="1" parent="1">
          <mxGeometry x="4280" y="940" width="90" height="40" as="geometry" />
        </mxCell>
        <mxCell id="EKHix6JRG0I5_opqSx7Z-207" value="новости" style="rounded=0;whiteSpace=wrap;html=1;" vertex="1" parent="1">
          <mxGeometry x="4370" y="940" width="90" height="40" as="geometry" />
        </mxCell>
        <mxCell id="EKHix6JRG0I5_opqSx7Z-208" value="регистрация и вход" style="rounded=0;whiteSpace=wrap;html=1;" vertex="1" parent="1">
          <mxGeometry x="4770" y="940" width="110" height="40" as="geometry" />
        </mxCell>
        <mxCell id="EKHix6JRG0I5_opqSx7Z-209" value="личный кабинет" style="rounded=0;whiteSpace=wrap;html=1;" vertex="1" parent="1">
          <mxGeometry x="4700" y="940" width="70" height="40" as="geometry" />
        </mxCell>
        <mxCell id="EKHix6JRG0I5_opqSx7Z-210" value="избранное" style="rounded=0;whiteSpace=wrap;html=1;" vertex="1" parent="1">
          <mxGeometry x="4630" y="940" width="70" height="40" as="geometry" />
        </mxCell>
        <mxCell id="EKHix6JRG0I5_opqSx7Z-211" value="подписки" style="rounded=0;whiteSpace=wrap;html=1;" vertex="1" parent="1">
          <mxGeometry x="4460" y="940" width="90" height="40" as="geometry" />
        </mxCell>
        <mxCell id="EKHix6JRG0I5_opqSx7Z-212" value="контактная информация" style="rounded=0;whiteSpace=wrap;html=1;" vertex="1" parent="1">
          <mxGeometry x="4280" y="1510" width="600" height="50" as="geometry" />
        </mxCell>
        <mxCell id="EKHix6JRG0I5_opqSx7Z-213" value="" style="rounded=0;whiteSpace=wrap;html=1;" vertex="1" parent="1">
          <mxGeometry x="4440" y="980" width="280" height="530" as="geometry" />
        </mxCell>
        <mxCell id="EKHix6JRG0I5_opqSx7Z-222" value="" style="rounded=0;whiteSpace=wrap;html=1;" vertex="1" parent="1">
          <mxGeometry x="4860" y="980" width="19" height="530" as="geometry" />
        </mxCell>
        <mxCell id="EKHix6JRG0I5_opqSx7Z-223" value="" style="endArrow=classic;startArrow=classic;html=1;entryX=0.5;entryY=0;entryDx=0;entryDy=0;exitX=0.5;exitY=1;exitDx=0;exitDy=0;" edge="1" parent="1" source="EKHix6JRG0I5_opqSx7Z-222" target="EKHix6JRG0I5_opqSx7Z-222">
          <mxGeometry width="50" height="50" relative="1" as="geometry">
            <mxPoint x="4860" y="1090" as="sourcePoint" />
            <mxPoint x="4910" y="1040" as="targetPoint" />
          </mxGeometry>
        </mxCell>
        <mxCell id="EKHix6JRG0I5_opqSx7Z-239" value="аватарка" style="rounded=0;whiteSpace=wrap;html=1;" vertex="1" parent="1">
          <mxGeometry x="4450" y="990" width="90" height="80" as="geometry" />
        </mxCell>
        <mxCell id="EKHix6JRG0I5_opqSx7Z-240" value="никнейм" style="rounded=0;whiteSpace=wrap;html=1;" vertex="1" parent="1">
          <mxGeometry x="4550" y="990" width="159" height="40" as="geometry" />
        </mxCell>
        <mxCell id="EKHix6JRG0I5_opqSx7Z-241" value="количество подписчиков" style="rounded=0;whiteSpace=wrap;html=1;" vertex="1" parent="1">
          <mxGeometry x="4550" y="1030" width="80" height="40" as="geometry" />
        </mxCell>
        <mxCell id="EKHix6JRG0I5_opqSx7Z-242" value="количество подписок" style="rounded=0;whiteSpace=wrap;html=1;" vertex="1" parent="1">
          <mxGeometry x="4630" y="1030" width="80" height="40" as="geometry" />
        </mxCell>
        <mxCell id="EKHix6JRG0I5_opqSx7Z-243" value="подписаться" style="rounded=0;whiteSpace=wrap;html=1;" vertex="1" parent="1">
          <mxGeometry x="4450" y="1080" width="260" height="30" as="geometry" />
        </mxCell>
        <mxCell id="EKHix6JRG0I5_opqSx7Z-245" value="статьи" style="rounded=0;whiteSpace=wrap;html=1;" vertex="1" parent="1">
          <mxGeometry x="4450" y="1123" width="260" height="17" as="geometry" />
        </mxCell>
        <mxCell id="EKHix6JRG0I5_opqSx7Z-246" value="" style="rounded=0;whiteSpace=wrap;html=1;" vertex="1" parent="1">
          <mxGeometry x="4450" y="1150" width="240" height="50" as="geometry" />
        </mxCell>
        <mxCell id="EKHix6JRG0I5_opqSx7Z-247" value="" style="rounded=0;whiteSpace=wrap;html=1;" vertex="1" parent="1">
          <mxGeometry x="4450" y="1210" width="240" height="50" as="geometry" />
        </mxCell>
        <mxCell id="EKHix6JRG0I5_opqSx7Z-248" value="" style="rounded=0;whiteSpace=wrap;html=1;" vertex="1" parent="1">
          <mxGeometry x="4690" y="1150" width="20" height="110" as="geometry" />
        </mxCell>
        <mxCell id="EKHix6JRG0I5_opqSx7Z-249" value="" style="endArrow=classic;startArrow=classic;html=1;entryX=0.5;entryY=0;entryDx=0;entryDy=0;exitX=0.5;exitY=1;exitDx=0;exitDy=0;" edge="1" parent="1" source="EKHix6JRG0I5_opqSx7Z-248" target="EKHix6JRG0I5_opqSx7Z-248">
          <mxGeometry width="50" height="50" relative="1" as="geometry">
            <mxPoint x="4690" y="1200" as="sourcePoint" />
            <mxPoint x="4740" y="1150" as="targetPoint" />
          </mxGeometry>
        </mxCell>
        <mxCell id="EKHix6JRG0I5_opqSx7Z-250" value="картинка" style="rounded=0;whiteSpace=wrap;html=1;" vertex="1" parent="1">
          <mxGeometry x="4460" y="1156.25" width="40" height="37.5" as="geometry" />
        </mxCell>
        <mxCell id="EKHix6JRG0I5_opqSx7Z-251" value="картинка" style="rounded=0;whiteSpace=wrap;html=1;" vertex="1" parent="1">
          <mxGeometry x="4460" y="1216.25" width="40" height="37.5" as="geometry" />
        </mxCell>
        <mxCell id="EKHix6JRG0I5_opqSx7Z-253" value="название и описание" style="rounded=0;whiteSpace=wrap;html=1;" vertex="1" parent="1">
          <mxGeometry x="4510" y="1156.25" width="170" height="37.5" as="geometry" />
        </mxCell>
        <mxCell id="EKHix6JRG0I5_opqSx7Z-254" value="название и описание" style="rounded=0;whiteSpace=wrap;html=1;" vertex="1" parent="1">
          <mxGeometry x="4510" y="1216.25" width="170" height="37.5" as="geometry" />
        </mxCell>
        <mxCell id="EKHix6JRG0I5_opqSx7Z-255" value="рецепты" style="rounded=0;whiteSpace=wrap;html=1;" vertex="1" parent="1">
          <mxGeometry x="4450" y="1280" width="260" height="17" as="geometry" />
        </mxCell>
        <mxCell id="EKHix6JRG0I5_opqSx7Z-256" value="" style="rounded=0;whiteSpace=wrap;html=1;" vertex="1" parent="1">
          <mxGeometry x="4450" y="1305" width="240" height="50" as="geometry" />
        </mxCell>
        <mxCell id="EKHix6JRG0I5_opqSx7Z-257" value="" style="rounded=0;whiteSpace=wrap;html=1;" vertex="1" parent="1">
          <mxGeometry x="4450" y="1365" width="240" height="50" as="geometry" />
        </mxCell>
        <mxCell id="EKHix6JRG0I5_opqSx7Z-258" value="картинка" style="rounded=0;whiteSpace=wrap;html=1;" vertex="1" parent="1">
          <mxGeometry x="4460" y="1311.25" width="40" height="37.5" as="geometry" />
        </mxCell>
        <mxCell id="EKHix6JRG0I5_opqSx7Z-259" value="картинка" style="rounded=0;whiteSpace=wrap;html=1;" vertex="1" parent="1">
          <mxGeometry x="4460" y="1371.25" width="40" height="37.5" as="geometry" />
        </mxCell>
        <mxCell id="EKHix6JRG0I5_opqSx7Z-260" value="название и описание" style="rounded=0;whiteSpace=wrap;html=1;" vertex="1" parent="1">
          <mxGeometry x="4510" y="1311.25" width="170" height="37.5" as="geometry" />
        </mxCell>
        <mxCell id="EKHix6JRG0I5_opqSx7Z-261" value="название и описание" style="rounded=0;whiteSpace=wrap;html=1;" vertex="1" parent="1">
          <mxGeometry x="4510" y="1371.25" width="170" height="37.5" as="geometry" />
        </mxCell>
        <mxCell id="EKHix6JRG0I5_opqSx7Z-262" value="" style="rounded=0;whiteSpace=wrap;html=1;" vertex="1" parent="1">
          <mxGeometry x="4690" y="1305" width="20" height="110" as="geometry" />
        </mxCell>
        <mxCell id="EKHix6JRG0I5_opqSx7Z-263" value="" style="endArrow=classic;startArrow=classic;html=1;entryX=0.5;entryY=0;entryDx=0;entryDy=0;exitX=0.5;exitY=1;exitDx=0;exitDy=0;" edge="1" parent="1">
          <mxGeometry width="50" height="50" relative="1" as="geometry">
            <mxPoint x="4699.17" y="1415.0000000000002" as="sourcePoint" />
            <mxPoint x="4699.17" y="1305.0000000000002" as="targetPoint" />
          </mxGeometry>
        </mxCell>
        <mxCell id="EKHix6JRG0I5_opqSx7Z-264" value="кулинарные статьи" style="rounded=0;whiteSpace=wrap;html=1;" vertex="1" parent="1">
          <mxGeometry x="3641" y="940" width="90" height="40" as="geometry" />
        </mxCell>
        <mxCell id="EKHix6JRG0I5_opqSx7Z-265" value="новости" style="rounded=0;whiteSpace=wrap;html=1;" vertex="1" parent="1">
          <mxGeometry x="3731" y="940" width="90" height="40" as="geometry" />
        </mxCell>
        <mxCell id="EKHix6JRG0I5_opqSx7Z-266" value="личный кабинет" style="rounded=0;whiteSpace=wrap;html=1;" vertex="1" parent="1">
          <mxGeometry x="4061" y="940" width="70" height="40" as="geometry" />
        </mxCell>
        <mxCell id="EKHix6JRG0I5_opqSx7Z-267" value="избранное" style="rounded=0;whiteSpace=wrap;html=1;" vertex="1" parent="1">
          <mxGeometry x="3991" y="940" width="70" height="40" as="geometry" />
        </mxCell>
        <mxCell id="EKHix6JRG0I5_opqSx7Z-268" value="подписки" style="rounded=0;whiteSpace=wrap;html=1;" vertex="1" parent="1">
          <mxGeometry x="3821" y="940" width="90" height="40" as="geometry" />
        </mxCell>
        <mxCell id="EKHix6JRG0I5_opqSx7Z-269" value="" style="rounded=0;whiteSpace=wrap;html=1;" vertex="1" parent="1">
          <mxGeometry x="3801" y="980" width="280" height="530" as="geometry" />
        </mxCell>
        <mxCell id="EKHix6JRG0I5_opqSx7Z-275" value="новости" style="rounded=0;whiteSpace=wrap;html=1;" vertex="1" parent="1">
          <mxGeometry x="3690" y="940" width="90" height="40" as="geometry" />
        </mxCell>
        <mxCell id="EKHix6JRG0I5_opqSx7Z-276" value="регистрация и вход" style="rounded=0;whiteSpace=wrap;html=1;" vertex="1" parent="1">
          <mxGeometry x="4090" y="940" width="110" height="40" as="geometry" />
        </mxCell>
        <mxCell id="EKHix6JRG0I5_opqSx7Z-277" value="личный кабинет" style="rounded=0;whiteSpace=wrap;html=1;" vertex="1" parent="1">
          <mxGeometry x="4020" y="940" width="70" height="40" as="geometry" />
        </mxCell>
        <mxCell id="EKHix6JRG0I5_opqSx7Z-278" value="избранное" style="rounded=0;whiteSpace=wrap;html=1;" vertex="1" parent="1">
          <mxGeometry x="3950" y="940" width="70" height="40" as="geometry" />
        </mxCell>
        <mxCell id="EKHix6JRG0I5_opqSx7Z-279" value="подписки" style="rounded=0;whiteSpace=wrap;html=1;" vertex="1" parent="1">
          <mxGeometry x="3780" y="940" width="90" height="40" as="geometry" />
        </mxCell>
        <mxCell id="EKHix6JRG0I5_opqSx7Z-281" value="" style="rounded=0;whiteSpace=wrap;html=1;" vertex="1" parent="1">
          <mxGeometry x="3760" y="980" width="280" height="530" as="geometry" />
        </mxCell>
        <mxCell id="EKHix6JRG0I5_opqSx7Z-282" value="" style="rounded=0;whiteSpace=wrap;html=1;" vertex="1" parent="1">
          <mxGeometry x="4180" y="980" width="19" height="530" as="geometry" />
        </mxCell>
        <mxCell id="EKHix6JRG0I5_opqSx7Z-283" value="" style="endArrow=classic;startArrow=classic;html=1;entryX=0.5;entryY=0;entryDx=0;entryDy=0;exitX=0.5;exitY=1;exitDx=0;exitDy=0;" edge="1" parent="1" source="EKHix6JRG0I5_opqSx7Z-282" target="EKHix6JRG0I5_opqSx7Z-282">
          <mxGeometry width="50" height="50" relative="1" as="geometry">
            <mxPoint x="4180" y="1090" as="sourcePoint" />
            <mxPoint x="4230" y="1040" as="targetPoint" />
          </mxGeometry>
        </mxCell>
        <mxCell id="EKHix6JRG0I5_opqSx7Z-284" value="аватарка" style="rounded=0;whiteSpace=wrap;html=1;" vertex="1" parent="1">
          <mxGeometry x="3770" y="990" width="90" height="80" as="geometry" />
        </mxCell>
        <mxCell id="EKHix6JRG0I5_opqSx7Z-285" value="никнейм" style="rounded=0;whiteSpace=wrap;html=1;" vertex="1" parent="1">
          <mxGeometry x="3870" y="990" width="159" height="40" as="geometry" />
        </mxCell>
        <mxCell id="EKHix6JRG0I5_opqSx7Z-286" value="количество подписчиков" style="rounded=0;whiteSpace=wrap;html=1;" vertex="1" parent="1">
          <mxGeometry x="3870" y="1030" width="80" height="40" as="geometry" />
        </mxCell>
        <mxCell id="EKHix6JRG0I5_opqSx7Z-287" value="количество подписок" style="rounded=0;whiteSpace=wrap;html=1;" vertex="1" parent="1">
          <mxGeometry x="3950" y="1030" width="80" height="40" as="geometry" />
        </mxCell>
        <mxCell id="EKHix6JRG0I5_opqSx7Z-288" value="подписаться" style="rounded=0;whiteSpace=wrap;html=1;" vertex="1" parent="1">
          <mxGeometry x="3770" y="1080" width="260" height="30" as="geometry" />
        </mxCell>
        <mxCell id="EKHix6JRG0I5_opqSx7Z-289" value="статьи" style="rounded=0;whiteSpace=wrap;html=1;" vertex="1" parent="1">
          <mxGeometry x="3770" y="1123" width="260" height="17" as="geometry" />
        </mxCell>
        <mxCell id="EKHix6JRG0I5_opqSx7Z-290" value="" style="rounded=0;whiteSpace=wrap;html=1;" vertex="1" parent="1">
          <mxGeometry x="3770" y="1150" width="240" height="50" as="geometry" />
        </mxCell>
        <mxCell id="EKHix6JRG0I5_opqSx7Z-291" value="" style="rounded=0;whiteSpace=wrap;html=1;" vertex="1" parent="1">
          <mxGeometry x="3770" y="1210" width="240" height="50" as="geometry" />
        </mxCell>
        <mxCell id="EKHix6JRG0I5_opqSx7Z-292" value="" style="rounded=0;whiteSpace=wrap;html=1;" vertex="1" parent="1">
          <mxGeometry x="4010" y="1150" width="20" height="110" as="geometry" />
        </mxCell>
        <mxCell id="EKHix6JRG0I5_opqSx7Z-293" value="" style="endArrow=classic;startArrow=classic;html=1;entryX=0.5;entryY=0;entryDx=0;entryDy=0;exitX=0.5;exitY=1;exitDx=0;exitDy=0;" edge="1" parent="1" source="EKHix6JRG0I5_opqSx7Z-292" target="EKHix6JRG0I5_opqSx7Z-292">
          <mxGeometry width="50" height="50" relative="1" as="geometry">
            <mxPoint x="4010" y="1200" as="sourcePoint" />
            <mxPoint x="4060" y="1150" as="targetPoint" />
          </mxGeometry>
        </mxCell>
        <mxCell id="EKHix6JRG0I5_opqSx7Z-294" value="картинка" style="rounded=0;whiteSpace=wrap;html=1;" vertex="1" parent="1">
          <mxGeometry x="3780" y="1156.25" width="40" height="37.5" as="geometry" />
        </mxCell>
        <mxCell id="EKHix6JRG0I5_opqSx7Z-295" value="картинка" style="rounded=0;whiteSpace=wrap;html=1;" vertex="1" parent="1">
          <mxGeometry x="3780" y="1216.25" width="40" height="37.5" as="geometry" />
        </mxCell>
        <mxCell id="EKHix6JRG0I5_opqSx7Z-296" value="название и описание" style="rounded=0;whiteSpace=wrap;html=1;" vertex="1" parent="1">
          <mxGeometry x="3830" y="1156.25" width="170" height="37.5" as="geometry" />
        </mxCell>
        <mxCell id="EKHix6JRG0I5_opqSx7Z-297" value="название и описание" style="rounded=0;whiteSpace=wrap;html=1;" vertex="1" parent="1">
          <mxGeometry x="3830" y="1216.25" width="170" height="37.5" as="geometry" />
        </mxCell>
        <mxCell id="EKHix6JRG0I5_opqSx7Z-298" value="рецепты" style="rounded=0;whiteSpace=wrap;html=1;" vertex="1" parent="1">
          <mxGeometry x="3770" y="1280" width="260" height="17" as="geometry" />
        </mxCell>
        <mxCell id="EKHix6JRG0I5_opqSx7Z-299" value="" style="rounded=0;whiteSpace=wrap;html=1;" vertex="1" parent="1">
          <mxGeometry x="3770" y="1305" width="240" height="50" as="geometry" />
        </mxCell>
        <mxCell id="EKHix6JRG0I5_opqSx7Z-300" value="" style="rounded=0;whiteSpace=wrap;html=1;" vertex="1" parent="1">
          <mxGeometry x="3770" y="1365" width="240" height="50" as="geometry" />
        </mxCell>
        <mxCell id="EKHix6JRG0I5_opqSx7Z-301" value="картинка" style="rounded=0;whiteSpace=wrap;html=1;" vertex="1" parent="1">
          <mxGeometry x="3780" y="1311.25" width="40" height="37.5" as="geometry" />
        </mxCell>
        <mxCell id="EKHix6JRG0I5_opqSx7Z-302" value="картинка" style="rounded=0;whiteSpace=wrap;html=1;" vertex="1" parent="1">
          <mxGeometry x="3780" y="1371.25" width="40" height="37.5" as="geometry" />
        </mxCell>
        <mxCell id="EKHix6JRG0I5_opqSx7Z-303" value="название и описание" style="rounded=0;whiteSpace=wrap;html=1;" vertex="1" parent="1">
          <mxGeometry x="3830" y="1311.25" width="170" height="37.5" as="geometry" />
        </mxCell>
        <mxCell id="EKHix6JRG0I5_opqSx7Z-304" value="название и описание" style="rounded=0;whiteSpace=wrap;html=1;" vertex="1" parent="1">
          <mxGeometry x="3830" y="1371.25" width="170" height="37.5" as="geometry" />
        </mxCell>
        <mxCell id="EKHix6JRG0I5_opqSx7Z-305" value="" style="rounded=0;whiteSpace=wrap;html=1;" vertex="1" parent="1">
          <mxGeometry x="4010" y="1305" width="20" height="110" as="geometry" />
        </mxCell>
        <mxCell id="EKHix6JRG0I5_opqSx7Z-306" value="" style="endArrow=classic;startArrow=classic;html=1;entryX=0.5;entryY=0;entryDx=0;entryDy=0;exitX=0.5;exitY=1;exitDx=0;exitDy=0;" edge="1" parent="1">
          <mxGeometry width="50" height="50" relative="1" as="geometry">
            <mxPoint x="4019.170000000001" y="1415" as="sourcePoint" />
            <mxPoint x="4019.170000000001" y="1305" as="targetPoint" />
          </mxGeometry>
        </mxCell>
        <mxCell id="EKHix6JRG0I5_opqSx7Z-307" value="кулинарные статьи" style="rounded=0;whiteSpace=wrap;html=1;" vertex="1" parent="1">
          <mxGeometry x="3682" y="940" width="90" height="40" as="geometry" />
        </mxCell>
        <mxCell id="EKHix6JRG0I5_opqSx7Z-308" value="новости" style="rounded=0;whiteSpace=wrap;html=1;" vertex="1" parent="1">
          <mxGeometry x="3772" y="940" width="90" height="40" as="geometry" />
        </mxCell>
        <mxCell id="EKHix6JRG0I5_opqSx7Z-309" value="личный кабинет" style="rounded=0;whiteSpace=wrap;html=1;" vertex="1" parent="1">
          <mxGeometry x="4102" y="940" width="70" height="40" as="geometry" />
        </mxCell>
        <mxCell id="EKHix6JRG0I5_opqSx7Z-310" value="избранное" style="rounded=0;whiteSpace=wrap;html=1;" vertex="1" parent="1">
          <mxGeometry x="4032" y="940" width="70" height="40" as="geometry" />
        </mxCell>
        <mxCell id="EKHix6JRG0I5_opqSx7Z-311" value="подписки" style="rounded=0;whiteSpace=wrap;html=1;" vertex="1" parent="1">
          <mxGeometry x="3862" y="940" width="90" height="40" as="geometry" />
        </mxCell>
        <mxCell id="EKHix6JRG0I5_opqSx7Z-312" value="" style="rounded=0;whiteSpace=wrap;html=1;" vertex="1" parent="1">
          <mxGeometry x="3842" y="980" width="280" height="530" as="geometry" />
        </mxCell>
        <mxCell id="EKHix6JRG0I5_opqSx7Z-313" value="" style="rounded=0;whiteSpace=wrap;html=1;" vertex="1" parent="1">
          <mxGeometry x="3642" y="980" width="598" height="60" as="geometry" />
        </mxCell>
        <mxCell id="EKHix6JRG0I5_opqSx7Z-314" value="" style="rounded=0;whiteSpace=wrap;html=1;" vertex="1" parent="1">
          <mxGeometry x="3641" y="880" width="600" height="680" as="geometry" />
        </mxCell>
        <mxCell id="EKHix6JRG0I5_opqSx7Z-315" value="синемаграфы" style="rounded=0;whiteSpace=wrap;html=1;" vertex="1" parent="1">
          <mxGeometry x="3641" y="880" width="600" height="60" as="geometry" />
        </mxCell>
        <mxCell id="EKHix6JRG0I5_opqSx7Z-316" value="" style="rounded=0;whiteSpace=wrap;html=1;" vertex="1" parent="1">
          <mxGeometry x="3641" y="940" width="600" height="40" as="geometry" />
        </mxCell>
        <mxCell id="EKHix6JRG0I5_opqSx7Z-317" value="кулинарные статьи" style="rounded=0;whiteSpace=wrap;html=1;" vertex="1" parent="1">
          <mxGeometry x="3641" y="940" width="90" height="40" as="geometry" />
        </mxCell>
        <mxCell id="EKHix6JRG0I5_opqSx7Z-318" value="новости" style="rounded=0;whiteSpace=wrap;html=1;" vertex="1" parent="1">
          <mxGeometry x="3731" y="940" width="90" height="40" as="geometry" />
        </mxCell>
        <mxCell id="EKHix6JRG0I5_opqSx7Z-319" value="регистрация и вход" style="rounded=0;whiteSpace=wrap;html=1;" vertex="1" parent="1">
          <mxGeometry x="4131" y="940" width="110" height="40" as="geometry" />
        </mxCell>
        <mxCell id="EKHix6JRG0I5_opqSx7Z-320" value="личный кабинет" style="rounded=0;whiteSpace=wrap;html=1;" vertex="1" parent="1">
          <mxGeometry x="4061" y="940" width="70" height="40" as="geometry" />
        </mxCell>
        <mxCell id="EKHix6JRG0I5_opqSx7Z-321" value="избранное" style="rounded=0;whiteSpace=wrap;html=1;" vertex="1" parent="1">
          <mxGeometry x="3991" y="940" width="70" height="40" as="geometry" />
        </mxCell>
        <mxCell id="EKHix6JRG0I5_opqSx7Z-322" value="подписки" style="rounded=0;whiteSpace=wrap;html=1;" vertex="1" parent="1">
          <mxGeometry x="3821" y="940" width="90" height="40" as="geometry" />
        </mxCell>
        <mxCell id="EKHix6JRG0I5_opqSx7Z-323" value="контактная информация" style="rounded=0;whiteSpace=wrap;html=1;" vertex="1" parent="1">
          <mxGeometry x="3641" y="1510" width="600" height="50" as="geometry" />
        </mxCell>
        <mxCell id="EKHix6JRG0I5_opqSx7Z-324" value="" style="rounded=0;whiteSpace=wrap;html=1;" vertex="1" parent="1">
          <mxGeometry x="3801" y="980" width="280" height="530" as="geometry" />
        </mxCell>
        <mxCell id="EKHix6JRG0I5_opqSx7Z-325" value="" style="rounded=0;whiteSpace=wrap;html=1;" vertex="1" parent="1">
          <mxGeometry x="4221" y="980" width="19" height="530" as="geometry" />
        </mxCell>
        <mxCell id="EKHix6JRG0I5_opqSx7Z-326" value="" style="endArrow=classic;startArrow=classic;html=1;entryX=0.5;entryY=0;entryDx=0;entryDy=0;exitX=0.5;exitY=1;exitDx=0;exitDy=0;" edge="1" source="EKHix6JRG0I5_opqSx7Z-325" target="EKHix6JRG0I5_opqSx7Z-325" parent="1">
          <mxGeometry width="50" height="50" relative="1" as="geometry">
            <mxPoint x="4221" y="1090" as="sourcePoint" />
            <mxPoint x="4271" y="1040" as="targetPoint" />
          </mxGeometry>
        </mxCell>
        <mxCell id="EKHix6JRG0I5_opqSx7Z-327" value="аватарка" style="rounded=0;whiteSpace=wrap;html=1;" vertex="1" parent="1">
          <mxGeometry x="3811" y="990" width="90" height="80" as="geometry" />
        </mxCell>
        <mxCell id="EKHix6JRG0I5_opqSx7Z-328" value="никнейм" style="rounded=0;whiteSpace=wrap;html=1;" vertex="1" parent="1">
          <mxGeometry x="3911" y="990" width="159" height="40" as="geometry" />
        </mxCell>
        <mxCell id="EKHix6JRG0I5_opqSx7Z-329" value="количество подписчиков" style="rounded=0;whiteSpace=wrap;html=1;" vertex="1" parent="1">
          <mxGeometry x="3911" y="1030" width="80" height="40" as="geometry" />
        </mxCell>
        <mxCell id="EKHix6JRG0I5_opqSx7Z-330" value="количество подписок" style="rounded=0;whiteSpace=wrap;html=1;" vertex="1" parent="1">
          <mxGeometry x="3991" y="1030" width="80" height="40" as="geometry" />
        </mxCell>
        <mxCell id="EKHix6JRG0I5_opqSx7Z-331" value="отписаться" style="rounded=0;whiteSpace=wrap;html=1;" vertex="1" parent="1">
          <mxGeometry x="3811" y="1080" width="259" height="30" as="geometry" />
        </mxCell>
        <mxCell id="EKHix6JRG0I5_opqSx7Z-332" value="статьи" style="rounded=0;whiteSpace=wrap;html=1;" vertex="1" parent="1">
          <mxGeometry x="3811" y="1123" width="260" height="17" as="geometry" />
        </mxCell>
        <mxCell id="EKHix6JRG0I5_opqSx7Z-333" value="" style="rounded=0;whiteSpace=wrap;html=1;" vertex="1" parent="1">
          <mxGeometry x="3811" y="1150" width="240" height="50" as="geometry" />
        </mxCell>
        <mxCell id="EKHix6JRG0I5_opqSx7Z-334" value="" style="rounded=0;whiteSpace=wrap;html=1;" vertex="1" parent="1">
          <mxGeometry x="3811" y="1210" width="240" height="50" as="geometry" />
        </mxCell>
        <mxCell id="EKHix6JRG0I5_opqSx7Z-335" value="" style="rounded=0;whiteSpace=wrap;html=1;" vertex="1" parent="1">
          <mxGeometry x="4051" y="1150" width="20" height="110" as="geometry" />
        </mxCell>
        <mxCell id="EKHix6JRG0I5_opqSx7Z-336" value="" style="endArrow=classic;startArrow=classic;html=1;entryX=0.5;entryY=0;entryDx=0;entryDy=0;exitX=0.5;exitY=1;exitDx=0;exitDy=0;" edge="1" source="EKHix6JRG0I5_opqSx7Z-335" target="EKHix6JRG0I5_opqSx7Z-335" parent="1">
          <mxGeometry width="50" height="50" relative="1" as="geometry">
            <mxPoint x="4051" y="1200" as="sourcePoint" />
            <mxPoint x="4101" y="1150" as="targetPoint" />
          </mxGeometry>
        </mxCell>
        <mxCell id="EKHix6JRG0I5_opqSx7Z-337" value="картинка" style="rounded=0;whiteSpace=wrap;html=1;" vertex="1" parent="1">
          <mxGeometry x="3821" y="1156.25" width="40" height="37.5" as="geometry" />
        </mxCell>
        <mxCell id="EKHix6JRG0I5_opqSx7Z-338" value="картинка" style="rounded=0;whiteSpace=wrap;html=1;" vertex="1" parent="1">
          <mxGeometry x="3821" y="1216.25" width="40" height="37.5" as="geometry" />
        </mxCell>
        <mxCell id="EKHix6JRG0I5_opqSx7Z-339" value="название и описание" style="rounded=0;whiteSpace=wrap;html=1;" vertex="1" parent="1">
          <mxGeometry x="3871" y="1156.25" width="170" height="37.5" as="geometry" />
        </mxCell>
        <mxCell id="EKHix6JRG0I5_opqSx7Z-340" value="название и описание" style="rounded=0;whiteSpace=wrap;html=1;" vertex="1" parent="1">
          <mxGeometry x="3871" y="1216.25" width="170" height="37.5" as="geometry" />
        </mxCell>
        <mxCell id="EKHix6JRG0I5_opqSx7Z-341" value="рецепты" style="rounded=0;whiteSpace=wrap;html=1;" vertex="1" parent="1">
          <mxGeometry x="3811" y="1280" width="260" height="17" as="geometry" />
        </mxCell>
        <mxCell id="EKHix6JRG0I5_opqSx7Z-342" value="" style="rounded=0;whiteSpace=wrap;html=1;" vertex="1" parent="1">
          <mxGeometry x="3811" y="1305" width="240" height="50" as="geometry" />
        </mxCell>
        <mxCell id="EKHix6JRG0I5_opqSx7Z-343" value="" style="rounded=0;whiteSpace=wrap;html=1;" vertex="1" parent="1">
          <mxGeometry x="3811" y="1365" width="240" height="50" as="geometry" />
        </mxCell>
        <mxCell id="EKHix6JRG0I5_opqSx7Z-344" value="картинка" style="rounded=0;whiteSpace=wrap;html=1;" vertex="1" parent="1">
          <mxGeometry x="3821" y="1311.25" width="40" height="37.5" as="geometry" />
        </mxCell>
        <mxCell id="EKHix6JRG0I5_opqSx7Z-345" value="картинка" style="rounded=0;whiteSpace=wrap;html=1;" vertex="1" parent="1">
          <mxGeometry x="3821" y="1371.25" width="40" height="37.5" as="geometry" />
        </mxCell>
        <mxCell id="EKHix6JRG0I5_opqSx7Z-346" value="название и описание" style="rounded=0;whiteSpace=wrap;html=1;" vertex="1" parent="1">
          <mxGeometry x="3871" y="1311.25" width="170" height="37.5" as="geometry" />
        </mxCell>
        <mxCell id="EKHix6JRG0I5_opqSx7Z-347" value="название и описание" style="rounded=0;whiteSpace=wrap;html=1;" vertex="1" parent="1">
          <mxGeometry x="3871" y="1371.25" width="170" height="37.5" as="geometry" />
        </mxCell>
        <mxCell id="EKHix6JRG0I5_opqSx7Z-348" value="" style="rounded=0;whiteSpace=wrap;html=1;" vertex="1" parent="1">
          <mxGeometry x="4051" y="1305" width="20" height="110" as="geometry" />
        </mxCell>
        <mxCell id="EKHix6JRG0I5_opqSx7Z-349" value="" style="endArrow=classic;startArrow=classic;html=1;entryX=0.5;entryY=0;entryDx=0;entryDy=0;exitX=0.5;exitY=1;exitDx=0;exitDy=0;" edge="1" parent="1">
          <mxGeometry width="50" height="50" relative="1" as="geometry">
            <mxPoint x="4060.170000000001" y="1415" as="sourcePoint" />
            <mxPoint x="4060.170000000001" y="1305" as="targetPoint" />
          </mxGeometry>
        </mxCell>
        <mxCell id="EKHix6JRG0I5_opqSx7Z-350" value="кулинарные статьи" style="rounded=0;whiteSpace=wrap;html=1;" vertex="1" parent="1">
          <mxGeometry x="2961" y="940" width="90" height="40" as="geometry" />
        </mxCell>
        <mxCell id="EKHix6JRG0I5_opqSx7Z-351" value="новости" style="rounded=0;whiteSpace=wrap;html=1;" vertex="1" parent="1">
          <mxGeometry x="3051" y="940" width="90" height="40" as="geometry" />
        </mxCell>
        <mxCell id="EKHix6JRG0I5_opqSx7Z-352" value="личный кабинет" style="rounded=0;whiteSpace=wrap;html=1;" vertex="1" parent="1">
          <mxGeometry x="3381" y="940" width="70" height="40" as="geometry" />
        </mxCell>
        <mxCell id="EKHix6JRG0I5_opqSx7Z-353" value="избранное" style="rounded=0;whiteSpace=wrap;html=1;" vertex="1" parent="1">
          <mxGeometry x="3311" y="940" width="70" height="40" as="geometry" />
        </mxCell>
        <mxCell id="EKHix6JRG0I5_opqSx7Z-354" value="подписки" style="rounded=0;whiteSpace=wrap;html=1;" vertex="1" parent="1">
          <mxGeometry x="3141" y="940" width="90" height="40" as="geometry" />
        </mxCell>
        <mxCell id="EKHix6JRG0I5_opqSx7Z-355" value="" style="rounded=0;whiteSpace=wrap;html=1;" vertex="1" parent="1">
          <mxGeometry x="3121" y="980" width="280" height="530" as="geometry" />
        </mxCell>
        <mxCell id="EKHix6JRG0I5_opqSx7Z-356" value="" style="rounded=0;whiteSpace=wrap;html=1;" vertex="1" parent="1">
          <mxGeometry x="2921" y="980" width="598" height="60" as="geometry" />
        </mxCell>
        <mxCell id="EKHix6JRG0I5_opqSx7Z-357" value="" style="rounded=0;whiteSpace=wrap;html=1;" vertex="1" parent="1">
          <mxGeometry x="2920" y="880" width="600" height="680" as="geometry" />
        </mxCell>
        <mxCell id="EKHix6JRG0I5_opqSx7Z-358" value="синемаграфы" style="rounded=0;whiteSpace=wrap;html=1;" vertex="1" parent="1">
          <mxGeometry x="2920" y="880" width="600" height="60" as="geometry" />
        </mxCell>
        <mxCell id="EKHix6JRG0I5_opqSx7Z-359" value="" style="rounded=0;whiteSpace=wrap;html=1;" vertex="1" parent="1">
          <mxGeometry x="2920" y="940" width="600" height="40" as="geometry" />
        </mxCell>
        <mxCell id="EKHix6JRG0I5_opqSx7Z-360" value="кулинарные статьи" style="rounded=0;whiteSpace=wrap;html=1;" vertex="1" parent="1">
          <mxGeometry x="2920" y="940" width="90" height="40" as="geometry" />
        </mxCell>
        <mxCell id="EKHix6JRG0I5_opqSx7Z-361" value="новости" style="rounded=0;whiteSpace=wrap;html=1;" vertex="1" parent="1">
          <mxGeometry x="3010" y="940" width="90" height="40" as="geometry" />
        </mxCell>
        <mxCell id="EKHix6JRG0I5_opqSx7Z-362" value="регистрация и вход" style="rounded=0;whiteSpace=wrap;html=1;" vertex="1" parent="1">
          <mxGeometry x="3410" y="940" width="110" height="40" as="geometry" />
        </mxCell>
        <mxCell id="EKHix6JRG0I5_opqSx7Z-363" value="личный кабинет" style="rounded=0;whiteSpace=wrap;html=1;" vertex="1" parent="1">
          <mxGeometry x="3340" y="940" width="70" height="40" as="geometry" />
        </mxCell>
        <mxCell id="EKHix6JRG0I5_opqSx7Z-364" value="избранное" style="rounded=0;whiteSpace=wrap;html=1;" vertex="1" parent="1">
          <mxGeometry x="3270" y="940" width="70" height="40" as="geometry" />
        </mxCell>
        <mxCell id="EKHix6JRG0I5_opqSx7Z-365" value="подписки" style="rounded=0;whiteSpace=wrap;html=1;" vertex="1" parent="1">
          <mxGeometry x="3100" y="940" width="90" height="40" as="geometry" />
        </mxCell>
        <mxCell id="EKHix6JRG0I5_opqSx7Z-366" value="контактная информация" style="rounded=0;whiteSpace=wrap;html=1;" vertex="1" parent="1">
          <mxGeometry x="2920" y="1510" width="600" height="50" as="geometry" />
        </mxCell>
        <mxCell id="EKHix6JRG0I5_opqSx7Z-367" value="" style="rounded=0;whiteSpace=wrap;html=1;" vertex="1" parent="1">
          <mxGeometry x="3080" y="980" width="280" height="530" as="geometry" />
        </mxCell>
        <mxCell id="EKHix6JRG0I5_opqSx7Z-368" value="избранное" style="rounded=0;whiteSpace=wrap;html=1;" vertex="1" parent="1">
          <mxGeometry x="2920" y="980" width="600" height="60" as="geometry" />
        </mxCell>
        <mxCell id="EKHix6JRG0I5_opqSx7Z-376" value="" style="rounded=0;whiteSpace=wrap;html=1;" vertex="1" parent="1">
          <mxGeometry x="3500" y="1040" width="19" height="470" as="geometry" />
        </mxCell>
        <mxCell id="EKHix6JRG0I5_opqSx7Z-377" value="" style="endArrow=classic;startArrow=classic;html=1;entryX=0.5;entryY=0;entryDx=0;entryDy=0;exitX=0.5;exitY=1;exitDx=0;exitDy=0;" edge="1" parent="1" source="EKHix6JRG0I5_opqSx7Z-376" target="EKHix6JRG0I5_opqSx7Z-376">
          <mxGeometry width="50" height="50" relative="1" as="geometry">
            <mxPoint x="3500" y="1090" as="sourcePoint" />
            <mxPoint x="3550" y="1040" as="targetPoint" />
          </mxGeometry>
        </mxCell>
        <mxCell id="EKHix6JRG0I5_opqSx7Z-392" value="сортировка" style="rounded=0;whiteSpace=wrap;html=1;" vertex="1" parent="1">
          <mxGeometry x="3380" y="990" width="110" height="40" as="geometry" />
        </mxCell>
        <mxCell id="EKHix6JRG0I5_opqSx7Z-393" value="рецепты" style="rounded=0;whiteSpace=wrap;html=1;" vertex="1" parent="1">
          <mxGeometry x="3080" y="1060" width="280" height="40" as="geometry" />
        </mxCell>
        <mxCell id="EKHix6JRG0I5_opqSx7Z-394" value="статьи" style="rounded=0;whiteSpace=wrap;html=1;" vertex="1" parent="1">
          <mxGeometry x="3080" y="1110" width="280" height="40" as="geometry" />
        </mxCell>
        <mxCell id="EKHix6JRG0I5_opqSx7Z-395" value="кулинарные статьи" style="rounded=0;whiteSpace=wrap;html=1;" vertex="1" parent="1">
          <mxGeometry x="2321" y="940" width="90" height="40" as="geometry" />
        </mxCell>
        <mxCell id="EKHix6JRG0I5_opqSx7Z-396" value="новости" style="rounded=0;whiteSpace=wrap;html=1;" vertex="1" parent="1">
          <mxGeometry x="2411" y="940" width="90" height="40" as="geometry" />
        </mxCell>
        <mxCell id="EKHix6JRG0I5_opqSx7Z-397" value="личный кабинет" style="rounded=0;whiteSpace=wrap;html=1;" vertex="1" parent="1">
          <mxGeometry x="2741" y="940" width="70" height="40" as="geometry" />
        </mxCell>
        <mxCell id="EKHix6JRG0I5_opqSx7Z-398" value="избранное" style="rounded=0;whiteSpace=wrap;html=1;" vertex="1" parent="1">
          <mxGeometry x="2671" y="940" width="70" height="40" as="geometry" />
        </mxCell>
        <mxCell id="EKHix6JRG0I5_opqSx7Z-399" value="подписки" style="rounded=0;whiteSpace=wrap;html=1;" vertex="1" parent="1">
          <mxGeometry x="2501" y="940" width="90" height="40" as="geometry" />
        </mxCell>
        <mxCell id="EKHix6JRG0I5_opqSx7Z-400" value="" style="rounded=0;whiteSpace=wrap;html=1;" vertex="1" parent="1">
          <mxGeometry x="2481" y="980" width="280" height="530" as="geometry" />
        </mxCell>
        <mxCell id="EKHix6JRG0I5_opqSx7Z-401" value="" style="rounded=0;whiteSpace=wrap;html=1;" vertex="1" parent="1">
          <mxGeometry x="2281" y="980" width="598" height="60" as="geometry" />
        </mxCell>
        <mxCell id="EKHix6JRG0I5_opqSx7Z-402" value="" style="rounded=0;whiteSpace=wrap;html=1;" vertex="1" parent="1">
          <mxGeometry x="2280" y="880" width="600" height="680" as="geometry" />
        </mxCell>
        <mxCell id="EKHix6JRG0I5_opqSx7Z-403" value="синемаграфы" style="rounded=0;whiteSpace=wrap;html=1;" vertex="1" parent="1">
          <mxGeometry x="2280" y="880" width="600" height="60" as="geometry" />
        </mxCell>
        <mxCell id="EKHix6JRG0I5_opqSx7Z-404" value="" style="rounded=0;whiteSpace=wrap;html=1;" vertex="1" parent="1">
          <mxGeometry x="2280" y="940" width="600" height="40" as="geometry" />
        </mxCell>
        <mxCell id="EKHix6JRG0I5_opqSx7Z-405" value="кулинарные статьи" style="rounded=0;whiteSpace=wrap;html=1;" vertex="1" parent="1">
          <mxGeometry x="2280" y="940" width="90" height="40" as="geometry" />
        </mxCell>
        <mxCell id="EKHix6JRG0I5_opqSx7Z-406" value="новости" style="rounded=0;whiteSpace=wrap;html=1;" vertex="1" parent="1">
          <mxGeometry x="2370" y="940" width="90" height="40" as="geometry" />
        </mxCell>
        <mxCell id="EKHix6JRG0I5_opqSx7Z-407" value="регистрация и вход" style="rounded=0;whiteSpace=wrap;html=1;" vertex="1" parent="1">
          <mxGeometry x="2770" y="940" width="110" height="40" as="geometry" />
        </mxCell>
        <mxCell id="EKHix6JRG0I5_opqSx7Z-408" value="личный кабинет" style="rounded=0;whiteSpace=wrap;html=1;" vertex="1" parent="1">
          <mxGeometry x="2700" y="940" width="70" height="40" as="geometry" />
        </mxCell>
        <mxCell id="EKHix6JRG0I5_opqSx7Z-409" value="избранное" style="rounded=0;whiteSpace=wrap;html=1;" vertex="1" parent="1">
          <mxGeometry x="2630" y="940" width="70" height="40" as="geometry" />
        </mxCell>
        <mxCell id="EKHix6JRG0I5_opqSx7Z-410" value="подписки" style="rounded=0;whiteSpace=wrap;html=1;" vertex="1" parent="1">
          <mxGeometry x="2460" y="940" width="90" height="40" as="geometry" />
        </mxCell>
        <mxCell id="EKHix6JRG0I5_opqSx7Z-411" value="контактная информация" style="rounded=0;whiteSpace=wrap;html=1;" vertex="1" parent="1">
          <mxGeometry x="2280" y="1510" width="600" height="50" as="geometry" />
        </mxCell>
        <mxCell id="EKHix6JRG0I5_opqSx7Z-412" value="" style="rounded=0;whiteSpace=wrap;html=1;" vertex="1" parent="1">
          <mxGeometry x="2440" y="980" width="280" height="530" as="geometry" />
        </mxCell>
        <mxCell id="EKHix6JRG0I5_opqSx7Z-413" value="избранное" style="rounded=0;whiteSpace=wrap;html=1;" vertex="1" parent="1">
          <mxGeometry x="2280" y="980" width="600" height="60" as="geometry" />
        </mxCell>
        <mxCell id="EKHix6JRG0I5_opqSx7Z-414" value="" style="rounded=0;whiteSpace=wrap;html=1;" vertex="1" parent="1">
          <mxGeometry x="2860" y="1040" width="19" height="470" as="geometry" />
        </mxCell>
        <mxCell id="EKHix6JRG0I5_opqSx7Z-415" value="" style="endArrow=classic;startArrow=classic;html=1;entryX=0.5;entryY=0;entryDx=0;entryDy=0;exitX=0.5;exitY=1;exitDx=0;exitDy=0;" edge="1" parent="1" source="EKHix6JRG0I5_opqSx7Z-414" target="EKHix6JRG0I5_opqSx7Z-414">
          <mxGeometry width="50" height="50" relative="1" as="geometry">
            <mxPoint x="2860" y="1090" as="sourcePoint" />
            <mxPoint x="2910" y="1040" as="targetPoint" />
          </mxGeometry>
        </mxCell>
        <mxCell id="EKHix6JRG0I5_opqSx7Z-416" value="сортировка" style="rounded=0;whiteSpace=wrap;html=1;" vertex="1" parent="1">
          <mxGeometry x="2740" y="990" width="110" height="40" as="geometry" />
        </mxCell>
        <mxCell id="EKHix6JRG0I5_opqSx7Z-417" value="рецепты" style="rounded=0;whiteSpace=wrap;html=1;" vertex="1" parent="1">
          <mxGeometry x="2440" y="1040" width="280" height="40" as="geometry" />
        </mxCell>
        <mxCell id="EKHix6JRG0I5_opqSx7Z-419" value="" style="rounded=0;whiteSpace=wrap;html=1;" vertex="1" parent="1">
          <mxGeometry x="2440" y="1102" width="280" height="58" as="geometry" />
        </mxCell>
        <mxCell id="EKHix6JRG0I5_opqSx7Z-423" value="" style="rounded=0;whiteSpace=wrap;html=1;" vertex="1" parent="1">
          <mxGeometry x="2440" y="1102" width="280" height="65" as="geometry" />
        </mxCell>
        <mxCell id="EKHix6JRG0I5_opqSx7Z-424" value="картинка" style="rounded=0;whiteSpace=wrap;html=1;" vertex="1" parent="1">
          <mxGeometry x="2445" y="1109.5" width="55" height="50" as="geometry" />
        </mxCell>
        <mxCell id="EKHix6JRG0I5_opqSx7Z-425" value="название и описание" style="rounded=0;whiteSpace=wrap;html=1;" vertex="1" parent="1">
          <mxGeometry x="2510" y="1109.5" width="200" height="50" as="geometry" />
        </mxCell>
        <mxCell id="EKHix6JRG0I5_opqSx7Z-426" value="" style="rounded=0;whiteSpace=wrap;html=1;" vertex="1" parent="1">
          <mxGeometry x="2440" y="1167" width="280" height="65" as="geometry" />
        </mxCell>
        <mxCell id="EKHix6JRG0I5_opqSx7Z-427" value="картинка" style="rounded=0;whiteSpace=wrap;html=1;" vertex="1" parent="1">
          <mxGeometry x="2445" y="1174.5" width="55" height="50" as="geometry" />
        </mxCell>
        <mxCell id="EKHix6JRG0I5_opqSx7Z-428" value="название и описание" style="rounded=0;whiteSpace=wrap;html=1;" vertex="1" parent="1">
          <mxGeometry x="2510" y="1174.5" width="200" height="50" as="geometry" />
        </mxCell>
        <mxCell id="EKHix6JRG0I5_opqSx7Z-429" value="" style="rounded=0;whiteSpace=wrap;html=1;" vertex="1" parent="1">
          <mxGeometry x="2440" y="1232" width="280" height="65" as="geometry" />
        </mxCell>
        <mxCell id="EKHix6JRG0I5_opqSx7Z-430" value="картинка" style="rounded=0;whiteSpace=wrap;html=1;" vertex="1" parent="1">
          <mxGeometry x="2445" y="1239.5" width="55" height="50" as="geometry" />
        </mxCell>
        <mxCell id="EKHix6JRG0I5_opqSx7Z-431" value="название и описание" style="rounded=0;whiteSpace=wrap;html=1;" vertex="1" parent="1">
          <mxGeometry x="2510" y="1239.5" width="200" height="50" as="geometry" />
        </mxCell>
        <mxCell id="EKHix6JRG0I5_opqSx7Z-432" value="" style="rounded=0;whiteSpace=wrap;html=1;" vertex="1" parent="1">
          <mxGeometry x="2440" y="1297" width="280" height="65" as="geometry" />
        </mxCell>
        <mxCell id="EKHix6JRG0I5_opqSx7Z-433" value="картинка" style="rounded=0;whiteSpace=wrap;html=1;" vertex="1" parent="1">
          <mxGeometry x="2445" y="1304.5" width="55" height="50" as="geometry" />
        </mxCell>
        <mxCell id="EKHix6JRG0I5_opqSx7Z-434" value="название и описание" style="rounded=0;whiteSpace=wrap;html=1;" vertex="1" parent="1">
          <mxGeometry x="2510" y="1304.5" width="200" height="50" as="geometry" />
        </mxCell>
        <mxCell id="EKHix6JRG0I5_opqSx7Z-435" value="" style="rounded=0;whiteSpace=wrap;html=1;" vertex="1" parent="1">
          <mxGeometry x="2440" y="1362" width="280" height="65" as="geometry" />
        </mxCell>
        <mxCell id="EKHix6JRG0I5_opqSx7Z-436" value="картинка" style="rounded=0;whiteSpace=wrap;html=1;" vertex="1" parent="1">
          <mxGeometry x="2445" y="1369.5" width="55" height="50" as="geometry" />
        </mxCell>
        <mxCell id="EKHix6JRG0I5_opqSx7Z-437" value="название и описание" style="rounded=0;whiteSpace=wrap;html=1;" vertex="1" parent="1">
          <mxGeometry x="2510" y="1369.5" width="200" height="50" as="geometry" />
        </mxCell>
        <mxCell id="EKHix6JRG0I5_opqSx7Z-438" value="" style="rounded=0;whiteSpace=wrap;html=1;" vertex="1" parent="1">
          <mxGeometry x="2440" y="1427" width="280" height="65" as="geometry" />
        </mxCell>
        <mxCell id="EKHix6JRG0I5_opqSx7Z-439" value="картинка" style="rounded=0;whiteSpace=wrap;html=1;" vertex="1" parent="1">
          <mxGeometry x="2445" y="1434.5" width="55" height="50" as="geometry" />
        </mxCell>
        <mxCell id="EKHix6JRG0I5_opqSx7Z-440" value="название и описание" style="rounded=0;whiteSpace=wrap;html=1;" vertex="1" parent="1">
          <mxGeometry x="2510" y="1434.5" width="200" height="50" as="geometry" />
        </mxCell>
        <mxCell id="EKHix6JRG0I5_opqSx7Z-441" value="кулинарные статьи" style="rounded=0;whiteSpace=wrap;html=1;" vertex="1" parent="1">
          <mxGeometry x="1681" y="940" width="90" height="40" as="geometry" />
        </mxCell>
        <mxCell id="EKHix6JRG0I5_opqSx7Z-442" value="новости" style="rounded=0;whiteSpace=wrap;html=1;" vertex="1" parent="1">
          <mxGeometry x="1771" y="940" width="90" height="40" as="geometry" />
        </mxCell>
        <mxCell id="EKHix6JRG0I5_opqSx7Z-443" value="личный кабинет" style="rounded=0;whiteSpace=wrap;html=1;" vertex="1" parent="1">
          <mxGeometry x="2101" y="940" width="70" height="40" as="geometry" />
        </mxCell>
        <mxCell id="EKHix6JRG0I5_opqSx7Z-444" value="избранное" style="rounded=0;whiteSpace=wrap;html=1;" vertex="1" parent="1">
          <mxGeometry x="2031" y="940" width="70" height="40" as="geometry" />
        </mxCell>
        <mxCell id="EKHix6JRG0I5_opqSx7Z-445" value="подписки" style="rounded=0;whiteSpace=wrap;html=1;" vertex="1" parent="1">
          <mxGeometry x="1861" y="940" width="90" height="40" as="geometry" />
        </mxCell>
        <mxCell id="EKHix6JRG0I5_opqSx7Z-446" value="" style="rounded=0;whiteSpace=wrap;html=1;" vertex="1" parent="1">
          <mxGeometry x="1841" y="980" width="280" height="530" as="geometry" />
        </mxCell>
        <mxCell id="EKHix6JRG0I5_opqSx7Z-447" value="" style="rounded=0;whiteSpace=wrap;html=1;" vertex="1" parent="1">
          <mxGeometry x="1641" y="980" width="598" height="60" as="geometry" />
        </mxCell>
        <mxCell id="EKHix6JRG0I5_opqSx7Z-448" value="" style="rounded=0;whiteSpace=wrap;html=1;" vertex="1" parent="1">
          <mxGeometry x="1640" y="880" width="600" height="680" as="geometry" />
        </mxCell>
        <mxCell id="EKHix6JRG0I5_opqSx7Z-449" value="синемаграфы" style="rounded=0;whiteSpace=wrap;html=1;" vertex="1" parent="1">
          <mxGeometry x="1640" y="880" width="600" height="60" as="geometry" />
        </mxCell>
        <mxCell id="EKHix6JRG0I5_opqSx7Z-450" value="" style="rounded=0;whiteSpace=wrap;html=1;" vertex="1" parent="1">
          <mxGeometry x="1640" y="940" width="600" height="40" as="geometry" />
        </mxCell>
        <mxCell id="EKHix6JRG0I5_opqSx7Z-451" value="кулинарные статьи" style="rounded=0;whiteSpace=wrap;html=1;" vertex="1" parent="1">
          <mxGeometry x="1640" y="940" width="90" height="40" as="geometry" />
        </mxCell>
        <mxCell id="EKHix6JRG0I5_opqSx7Z-452" value="новости" style="rounded=0;whiteSpace=wrap;html=1;" vertex="1" parent="1">
          <mxGeometry x="1730" y="940" width="90" height="40" as="geometry" />
        </mxCell>
        <mxCell id="EKHix6JRG0I5_opqSx7Z-453" value="регистрация и вход" style="rounded=0;whiteSpace=wrap;html=1;" vertex="1" parent="1">
          <mxGeometry x="2130" y="940" width="110" height="40" as="geometry" />
        </mxCell>
        <mxCell id="EKHix6JRG0I5_opqSx7Z-454" value="личный кабинет" style="rounded=0;whiteSpace=wrap;html=1;" vertex="1" parent="1">
          <mxGeometry x="2060" y="940" width="70" height="40" as="geometry" />
        </mxCell>
        <mxCell id="EKHix6JRG0I5_opqSx7Z-455" value="избранное" style="rounded=0;whiteSpace=wrap;html=1;" vertex="1" parent="1">
          <mxGeometry x="1990" y="940" width="70" height="40" as="geometry" />
        </mxCell>
        <mxCell id="EKHix6JRG0I5_opqSx7Z-456" value="подписки" style="rounded=0;whiteSpace=wrap;html=1;" vertex="1" parent="1">
          <mxGeometry x="1820" y="940" width="90" height="40" as="geometry" />
        </mxCell>
        <mxCell id="EKHix6JRG0I5_opqSx7Z-457" value="контактная информация" style="rounded=0;whiteSpace=wrap;html=1;" vertex="1" parent="1">
          <mxGeometry x="1640" y="1510" width="600" height="50" as="geometry" />
        </mxCell>
        <mxCell id="EKHix6JRG0I5_opqSx7Z-458" value="" style="rounded=0;whiteSpace=wrap;html=1;" vertex="1" parent="1">
          <mxGeometry x="1800" y="980" width="280" height="530" as="geometry" />
        </mxCell>
        <mxCell id="EKHix6JRG0I5_opqSx7Z-459" value="избранное" style="rounded=0;whiteSpace=wrap;html=1;" vertex="1" parent="1">
          <mxGeometry x="1640" y="980" width="600" height="60" as="geometry" />
        </mxCell>
        <mxCell id="EKHix6JRG0I5_opqSx7Z-460" value="" style="rounded=0;whiteSpace=wrap;html=1;" vertex="1" parent="1">
          <mxGeometry x="2220" y="1040" width="19" height="470" as="geometry" />
        </mxCell>
        <mxCell id="EKHix6JRG0I5_opqSx7Z-461" value="" style="endArrow=classic;startArrow=classic;html=1;entryX=0.5;entryY=0;entryDx=0;entryDy=0;exitX=0.5;exitY=1;exitDx=0;exitDy=0;" edge="1" parent="1" source="EKHix6JRG0I5_opqSx7Z-460" target="EKHix6JRG0I5_opqSx7Z-460">
          <mxGeometry width="50" height="50" relative="1" as="geometry">
            <mxPoint x="2220" y="1090" as="sourcePoint" />
            <mxPoint x="2270" y="1040" as="targetPoint" />
          </mxGeometry>
        </mxCell>
        <mxCell id="EKHix6JRG0I5_opqSx7Z-462" value="сортировка" style="rounded=0;whiteSpace=wrap;html=1;" vertex="1" parent="1">
          <mxGeometry x="2100" y="990" width="110" height="40" as="geometry" />
        </mxCell>
        <mxCell id="EKHix6JRG0I5_opqSx7Z-463" value="статьи" style="rounded=0;whiteSpace=wrap;html=1;" vertex="1" parent="1">
          <mxGeometry x="1800" y="1040" width="280" height="40" as="geometry" />
        </mxCell>
        <mxCell id="EKHix6JRG0I5_opqSx7Z-464" value="" style="rounded=0;whiteSpace=wrap;html=1;" vertex="1" parent="1">
          <mxGeometry x="1800" y="1102" width="280" height="58" as="geometry" />
        </mxCell>
        <mxCell id="EKHix6JRG0I5_opqSx7Z-465" value="" style="rounded=0;whiteSpace=wrap;html=1;" vertex="1" parent="1">
          <mxGeometry x="1800" y="1102" width="280" height="65" as="geometry" />
        </mxCell>
        <mxCell id="EKHix6JRG0I5_opqSx7Z-466" value="картинка" style="rounded=0;whiteSpace=wrap;html=1;" vertex="1" parent="1">
          <mxGeometry x="1805" y="1109.5" width="55" height="50" as="geometry" />
        </mxCell>
        <mxCell id="EKHix6JRG0I5_opqSx7Z-467" value="название и описание" style="rounded=0;whiteSpace=wrap;html=1;" vertex="1" parent="1">
          <mxGeometry x="1870" y="1110" width="200" height="50" as="geometry" />
        </mxCell>
        <mxCell id="EKHix6JRG0I5_opqSx7Z-468" value="" style="rounded=0;whiteSpace=wrap;html=1;" vertex="1" parent="1">
          <mxGeometry x="1800" y="1167" width="280" height="65" as="geometry" />
        </mxCell>
        <mxCell id="EKHix6JRG0I5_opqSx7Z-469" value="картинка" style="rounded=0;whiteSpace=wrap;html=1;" vertex="1" parent="1">
          <mxGeometry x="1805" y="1174.5" width="55" height="50" as="geometry" />
        </mxCell>
        <mxCell id="EKHix6JRG0I5_opqSx7Z-470" value="название и описание" style="rounded=0;whiteSpace=wrap;html=1;" vertex="1" parent="1">
          <mxGeometry x="1870" y="1174.5" width="200" height="50" as="geometry" />
        </mxCell>
        <mxCell id="EKHix6JRG0I5_opqSx7Z-471" value="" style="rounded=0;whiteSpace=wrap;html=1;" vertex="1" parent="1">
          <mxGeometry x="1800" y="1232" width="280" height="65" as="geometry" />
        </mxCell>
        <mxCell id="EKHix6JRG0I5_opqSx7Z-472" value="картинка" style="rounded=0;whiteSpace=wrap;html=1;" vertex="1" parent="1">
          <mxGeometry x="1805" y="1239.5" width="55" height="50" as="geometry" />
        </mxCell>
        <mxCell id="EKHix6JRG0I5_opqSx7Z-473" value="название и описание" style="rounded=0;whiteSpace=wrap;html=1;" vertex="1" parent="1">
          <mxGeometry x="1870" y="1239.5" width="200" height="50" as="geometry" />
        </mxCell>
        <mxCell id="EKHix6JRG0I5_opqSx7Z-474" value="" style="rounded=0;whiteSpace=wrap;html=1;" vertex="1" parent="1">
          <mxGeometry x="1800" y="1297" width="280" height="65" as="geometry" />
        </mxCell>
        <mxCell id="EKHix6JRG0I5_opqSx7Z-475" value="картинка" style="rounded=0;whiteSpace=wrap;html=1;" vertex="1" parent="1">
          <mxGeometry x="1805" y="1304.5" width="55" height="50" as="geometry" />
        </mxCell>
        <mxCell id="EKHix6JRG0I5_opqSx7Z-476" value="название и описание" style="rounded=0;whiteSpace=wrap;html=1;" vertex="1" parent="1">
          <mxGeometry x="1870" y="1304.5" width="200" height="50" as="geometry" />
        </mxCell>
        <mxCell id="EKHix6JRG0I5_opqSx7Z-477" value="" style="rounded=0;whiteSpace=wrap;html=1;" vertex="1" parent="1">
          <mxGeometry x="1800" y="1362" width="280" height="65" as="geometry" />
        </mxCell>
        <mxCell id="EKHix6JRG0I5_opqSx7Z-478" value="картинка" style="rounded=0;whiteSpace=wrap;html=1;" vertex="1" parent="1">
          <mxGeometry x="1805" y="1369.5" width="55" height="50" as="geometry" />
        </mxCell>
        <mxCell id="EKHix6JRG0I5_opqSx7Z-479" value="название и описание" style="rounded=0;whiteSpace=wrap;html=1;" vertex="1" parent="1">
          <mxGeometry x="1870" y="1369.5" width="200" height="50" as="geometry" />
        </mxCell>
        <mxCell id="EKHix6JRG0I5_opqSx7Z-480" value="" style="rounded=0;whiteSpace=wrap;html=1;" vertex="1" parent="1">
          <mxGeometry x="1800" y="1427" width="280" height="65" as="geometry" />
        </mxCell>
        <mxCell id="EKHix6JRG0I5_opqSx7Z-481" value="картинка" style="rounded=0;whiteSpace=wrap;html=1;" vertex="1" parent="1">
          <mxGeometry x="1805" y="1434.5" width="55" height="50" as="geometry" />
        </mxCell>
        <mxCell id="EKHix6JRG0I5_opqSx7Z-482" value="название и описание" style="rounded=0;whiteSpace=wrap;html=1;" vertex="1" parent="1">
          <mxGeometry x="1870" y="1434.5" width="200" height="50" as="geometry" />
        </mxCell>
      </root>
    </mxGraphModel>
  </diagram>
</mxfile>
